<ttFont>
    <TTGlyph name="A" xMin="-73" yMin="-26" xMax="1005" yMax="931">
      <contour>
        <pt x="1005" y="257" on="1"/>
        <pt x="1003" y="230" on="0"/>
        <pt x="986" y="203" on="0"/>
        <pt x="967" y="181" on="0"/>
        <pt x="948" y="153" on="0"/>
        <pt x="943" y="125" on="1"/>
        <pt x="910" y="112" on="0"/>
        <pt x="880" y="77" on="0"/>
        <pt x="859" y="47" on="0"/>
        <pt x="830" y="31" on="0"/>
        <pt x="797" y="36" on="1"/>
        <pt x="792" y="42" on="0"/>
        <pt x="781" y="52" on="0"/>
        <pt x="774" y="57" on="1"/>
        <pt x="766" y="36" on="0"/>
        <pt x="741" y="22" on="0"/>
        <pt x="711" y="17" on="0"/>
        <pt x="679" y="9" on="0"/>
        <pt x="664" y="-7" on="1"/>
        <pt x="626" y="-2" on="0"/>
        <pt x="581" y="22" on="0"/>
        <pt x="555" y="51" on="0"/>
        <pt x="540" y="84" on="0"/>
        <pt x="524" y="114" on="0"/>
        <pt x="501" y="139" on="0"/>
        <pt x="479" y="146" on="1"/>
        <pt x="469" y="149" on="0"/>
        <pt x="456" y="145" on="0"/>
        <pt x="446" y="135" on="0"/>
        <pt x="437" y="122" on="0"/>
        <pt x="431" y="117" on="1"/>
        <pt x="420" y="128" on="1"/>
        <pt x="411" y="104" on="0"/>
        <pt x="376" y="77" on="0"/>
        <pt x="331" y="64" on="0"/>
        <pt x="282" y="61" on="0"/>
        <pt x="260" y="61" on="1"/>
        <pt x="249" y="37" on="0"/>
        <pt x="217" y="13" on="0"/>
        <pt x="178" y="1" on="0"/>
        <pt x="136" y="-5" on="0"/>
        <pt x="114" y="-11" on="1"/>
        <pt x="105" y="-9" on="0"/>
        <pt x="84" y="-15" on="0"/>
        <pt x="63" y="-22" on="0"/>
        <pt x="42" y="-26" on="0"/>
        <pt x="35" y="-22" on="1"/>
        <pt x="26" y="-17" on="0"/>
        <pt x="26" y="-3" on="0"/>
        <pt x="21" y="3" on="1"/>
        <pt x="19" y="3" on="1"/>
        <pt x="-2" y="5" on="0"/>
        <pt x="-28" y="28" on="0"/>
        <pt x="-47" y="60" on="0"/>
        <pt x="-61" y="96" on="0"/>
        <pt x="-68" y="111" on="1"/>
        <pt x="-68" y="133" on="0"/>
        <pt x="-73" y="186" on="0"/>
        <pt x="-69" y="239" on="0"/>
        <pt x="-51" y="285" on="0"/>
        <pt x="-30" y="299" on="1"/>
        <pt x="-27" y="301" on="1"/>
        <pt x="-38" y="310" on="1"/>
        <pt x="-25" y="321" on="0"/>
        <pt x="-20" y="342" on="0"/>
        <pt x="-21" y="357" on="1"/>
        <pt x="-14" y="368" on="0"/>
        <pt x="3" y="385" on="0"/>
        <pt x="12" y="393" on="1"/>
        <pt x="37" y="419" on="0"/>
        <pt x="77" y="475" on="0"/>
        <pt x="77" y="513" on="1"/>
        <pt x="77" y="518" on="0"/>
        <pt x="76" y="526" on="0"/>
        <pt x="76" y="531" on="1"/>
        <pt x="90" y="535" on="0"/>
        <pt x="115" y="554" on="0"/>
        <pt x="139" y="573" on="0"/>
        <pt x="165" y="585" on="0"/>
        <pt x="179" y="582" on="1"/>
        <pt x="177" y="588" on="0"/>
        <pt x="173" y="598" on="0"/>
        <pt x="173" y="604" on="1"/>
        <pt x="173" y="621" on="0"/>
        <pt x="198" y="647" on="0"/>
        <pt x="208" y="657" on="1"/>
        <pt x="216" y="665" on="0"/>
        <pt x="236" y="688" on="0"/>
        <pt x="241" y="693" on="1"/>
        <pt x="235" y="699" on="1"/>
        <pt x="250" y="700" on="0"/>
        <pt x="264" y="717" on="0"/>
        <pt x="277" y="735" on="0"/>
        <pt x="293" y="750" on="0"/>
        <pt x="309" y="750" on="1"/>
        <pt x="312" y="750" on="1"/>
        <pt x="320" y="766" on="0"/>
        <pt x="352" y="791" on="0"/>
        <pt x="387" y="815" on="0"/>
        <pt x="421" y="841" on="0"/>
        <pt x="430" y="860" on="1"/>
        <pt x="445" y="865" on="0"/>
        <pt x="467" y="882" on="0"/>
        <pt x="488" y="897" on="0"/>
        <pt x="513" y="909" on="0"/>
        <pt x="531" y="910" on="1"/>
        <pt x="536" y="915" on="0"/>
        <pt x="552" y="931" on="0"/>
        <pt x="557" y="931" on="1"/>
        <pt x="562" y="931" on="0"/>
        <pt x="565" y="924" on="0"/>
        <pt x="567" y="921" on="1"/>
        <pt x="573" y="926" on="0"/>
        <pt x="594" y="923" on="0"/>
        <pt x="616" y="913" on="0"/>
        <pt x="636" y="901" on="0"/>
        <pt x="642" y="898" on="1"/>
        <pt x="667" y="836" on="0"/>
        <pt x="648" y="771" on="1"/>
        <pt x="643" y="771" on="0"/>
        <pt x="631" y="770" on="0"/>
        <pt x="625" y="770" on="1"/>
        <pt x="625" y="774" on="0"/>
        <pt x="635" y="784" on="0"/>
        <pt x="637" y="786" on="1"/>
        <pt x="625" y="792" on="0"/>
        <pt x="613" y="813" on="0"/>
        <pt x="603" y="834" on="0"/>
        <pt x="588" y="851" on="0"/>
        <pt x="572" y="853" on="1"/>
        <pt x="550" y="856" on="0"/>
        <pt x="512" y="835" on="0"/>
        <pt x="480" y="810" on="0"/>
        <pt x="452" y="789" on="0"/>
        <pt x="439" y="791" on="1"/>
        <pt x="433" y="779" on="0"/>
        <pt x="418" y="763" on="0"/>
        <pt x="405" y="747" on="0"/>
        <pt x="398" y="727" on="0"/>
        <pt x="402" y="711" on="1"/>
        <pt x="366" y="677" on="0"/>
        <pt x="291" y="614" on="0"/>
        <pt x="259" y="575" on="1"/>
        <pt x="248" y="586" on="1"/>
        <pt x="248" y="579" on="0"/>
        <pt x="239" y="568" on="0"/>
        <pt x="231" y="556" on="0"/>
        <pt x="226" y="541" on="0"/>
        <pt x="229" y="532" on="1"/>
        <pt x="221" y="527" on="0"/>
        <pt x="210" y="514" on="0"/>
        <pt x="205" y="506" on="1"/>
        <pt x="199" y="497" on="0"/>
        <pt x="186" y="482" on="0"/>
        <pt x="176" y="475" on="1"/>
        <pt x="175" y="474" on="1"/>
        <pt x="176" y="464" on="0"/>
        <pt x="176" y="446" on="0"/>
        <pt x="176" y="435" on="1"/>
        <pt x="165" y="418" on="0"/>
        <pt x="133" y="388" on="0"/>
        <pt x="103" y="357" on="0"/>
        <pt x="80" y="321" on="0"/>
        <pt x="78" y="299" on="1"/>
        <pt x="61" y="293" on="0"/>
        <pt x="47" y="265" on="0"/>
        <pt x="39" y="235" on="0"/>
        <pt x="33" y="207" on="0"/>
        <pt x="24" y="200" on="1"/>
        <pt x="33" y="191" on="1"/>
        <pt x="7" y="176" on="0"/>
        <pt x="-17" y="132" on="0"/>
        <pt x="-9" y="102" on="1"/>
        <pt x="-8" y="101" on="1"/>
        <pt x="-8" y="100" on="1"/>
        <pt x="21" y="75" on="0"/>
        <pt x="81" y="71" on="0"/>
        <pt x="116" y="76" on="1"/>
        <pt x="132" y="78" on="0"/>
        <pt x="161" y="79" on="0"/>
        <pt x="175" y="79" on="1"/>
        <pt x="177" y="79" on="1"/>
        <pt x="191" y="93" on="0"/>
        <pt x="223" y="100" on="0"/>
        <pt x="242" y="100" on="1"/>
        <pt x="258" y="100" on="0"/>
        <pt x="288" y="104" on="0"/>
        <pt x="299" y="117" on="1"/>
        <pt x="303" y="121" on="0"/>
        <pt x="307" y="129" on="0"/>
        <pt x="310" y="133" on="1"/>
        <pt x="312" y="135" on="0"/>
        <pt x="316" y="139" on="0"/>
        <pt x="318" y="141" on="1"/>
        <pt x="340" y="136" on="0"/>
        <pt x="378" y="157" on="0"/>
        <pt x="413" y="187" on="0"/>
        <pt x="448" y="218" on="0"/>
        <pt x="466" y="224" on="1"/>
        <pt x="489" y="247" on="0"/>
        <pt x="504" y="301" on="0"/>
        <pt x="506" y="331" on="1"/>
        <pt x="507" y="346" on="0"/>
        <pt x="510" y="372" on="0"/>
        <pt x="517" y="395" on="0"/>
        <pt x="531" y="416" on="0"/>
        <pt x="544" y="427" on="1"/>
        <pt x="546" y="429" on="1"/>
        <pt x="544" y="437" on="0"/>
        <pt x="540" y="449" on="0"/>
        <pt x="540" y="458" on="1"/>
        <pt x="540" y="477" on="0"/>
        <pt x="554" y="511" on="0"/>
        <pt x="571" y="546" on="0"/>
        <pt x="585" y="586" on="0"/>
        <pt x="585" y="611" on="1"/>
        <pt x="599" y="635" on="0"/>
        <pt x="633" y="685" on="0"/>
        <pt x="673" y="731" on="0"/>
        <pt x="719" y="767" on="0"/>
        <pt x="746" y="777" on="1"/>
        <pt x="759" y="776" on="0"/>
        <pt x="786" y="773" on="0"/>
        <pt x="798" y="771" on="1"/>
        <pt x="792" y="757" on="0"/>
        <pt x="792" y="720" on="0"/>
        <pt x="789" y="685" on="0"/>
        <pt x="775" y="657" on="0"/>
        <pt x="756" y="651" on="1"/>
        <pt x="758" y="648" on="0"/>
        <pt x="759" y="631" on="0"/>
        <pt x="759" y="627" on="1"/>
        <pt x="759" y="597" on="0"/>
        <pt x="733" y="543" on="0"/>
        <pt x="700" y="490" on="0"/>
        <pt x="669" y="436" on="0"/>
        <pt x="663" y="408" on="1"/>
        <pt x="660" y="395" on="0"/>
        <pt x="639" y="373" on="0"/>
        <pt x="618" y="351" on="0"/>
        <pt x="605" y="326" on="0"/>
        <pt x="610" y="311" on="1"/>
        <pt x="602" y="298" on="0"/>
        <pt x="581" y="281" on="0"/>
        <pt x="565" y="264" on="0"/>
        <pt x="559" y="240" on="0"/>
        <pt x="566" y="221" on="1"/>
        <pt x="567" y="221" on="1"/>
        <pt x="567" y="220" on="1"/>
        <pt x="578" y="203" on="0"/>
        <pt x="590" y="167" on="0"/>
        <pt x="605" y="133" on="0"/>
        <pt x="630" y="105" on="0"/>
        <pt x="653" y="98" on="1"/>
        <pt x="655" y="109" on="0"/>
        <pt x="669" y="110" on="0"/>
        <pt x="677" y="110" on="1"/>
        <pt x="682" y="105" on="0"/>
        <pt x="692" y="96" on="0"/>
        <pt x="697" y="91" on="1"/>
        <pt x="741" y="91" on="0"/>
        <pt x="793" y="97" on="0"/>
        <pt x="830" y="113" on="0"/>
        <pt x="866" y="144" on="0"/>
        <pt x="895" y="169" on="1"/>
        <pt x="922" y="192" on="0"/>
        <pt x="976" y="237" on="0"/>
      </contour>
      <contour>
        <pt x="673" y="542" on="1"/>
        <pt x="668" y="553" on="0"/>
        <pt x="644" y="553" on="0"/>
        <pt x="634" y="552" on="1"/>
        <pt x="642" y="544" on="0"/>
        <pt x="655" y="524" on="0"/>
        <pt x="661" y="515" on="1"/>
        <pt x="666" y="520" on="0"/>
        <pt x="677" y="534" on="0"/>
      </contour>
    </TTGlyph>
    <TTGlyph name="AE" xMin="-73" yMin="-56" xMax="1492" yMax="942">
      <contour>
        <pt x="1491" y="223" on="1"/>
        <pt x="1492" y="220" on="0"/>
        <pt x="1485" y="208" on="0"/>
        <pt x="1475" y="196" on="0"/>
        <pt x="1465" y="186" on="0"/>
        <pt x="1462" y="185" on="1"/>
        <pt x="1450" y="180" on="0"/>
        <pt x="1446" y="171" on="1"/>
        <pt x="1438" y="154" on="0"/>
        <pt x="1419" y="136" on="0"/>
        <pt x="1401" y="131" on="1"/>
        <pt x="1395" y="129" on="0"/>
        <pt x="1389" y="121" on="0"/>
        <pt x="1384" y="112" on="0"/>
        <pt x="1378" y="103" on="0"/>
        <pt x="1373" y="100" on="1"/>
        <pt x="1358" y="93" on="0"/>
        <pt x="1324" y="92" on="0"/>
        <pt x="1311" y="81" on="1"/>
        <pt x="1302" y="73" on="0"/>
        <pt x="1294" y="50" on="0"/>
        <pt x="1283" y="44" on="1"/>
        <pt x="1273" y="38" on="0"/>
        <pt x="1250" y="42" on="0"/>
        <pt x="1239" y="35" on="1"/>
        <pt x="1234" y="31" on="0"/>
        <pt x="1229" y="23" on="0"/>
        <pt x="1225" y="18" on="1"/>
        <pt x="1218" y="9" on="0"/>
        <pt x="1207" y="9" on="1"/>
        <pt x="1193" y="9" on="0"/>
        <pt x="1164" y="-2" on="0"/>
        <pt x="1148" y="-4" on="1"/>
        <pt x="1147" y="-6" on="1"/>
        <pt x="1132" y="-9" on="0"/>
        <pt x="1103" y="-20" on="0"/>
        <pt x="1088" y="-24" on="1"/>
        <pt x="1075" y="-26" on="0"/>
        <pt x="1049" y="-30" on="0"/>
        <pt x="1037" y="-34" on="1"/>
        <pt x="1025" y="-37" on="0"/>
        <pt x="1004" y="-51" on="0"/>
        <pt x="992" y="-52" on="1"/>
        <pt x="980" y="-54" on="0"/>
        <pt x="957" y="-49" on="0"/>
        <pt x="946" y="-45" on="1"/>
        <pt x="940" y="-43" on="0"/>
        <pt x="931" y="-47" on="0"/>
        <pt x="921" y="-52" on="0"/>
        <pt x="911" y="-56" on="0"/>
        <pt x="904" y="-54" on="1"/>
        <pt x="899" y="-53" on="0"/>
        <pt x="889" y="-48" on="0"/>
        <pt x="884" y="-46" on="1"/>
        <pt x="879" y="-44" on="0"/>
        <pt x="868" y="-40" on="0"/>
        <pt x="863" y="-40" on="1"/>
        <pt x="858" y="-40" on="0"/>
        <pt x="842" y="-34" on="0"/>
        <pt x="824" y="-25" on="0"/>
        <pt x="809" y="-15" on="0"/>
        <pt x="806" y="-11" on="1"/>
        <pt x="800" y="-3" on="0"/>
        <pt x="786" y="12" on="0"/>
        <pt x="781" y="22" on="1"/>
        <pt x="779" y="24" on="0"/>
        <pt x="773" y="32" on="0"/>
        <pt x="770" y="32" on="1"/>
        <pt x="770" y="33" on="1"/>
        <pt x="769" y="34" on="0"/>
        <pt x="769" y="35" on="1"/>
        <pt x="769" y="42" on="1"/>
        <pt x="768" y="50" on="0"/>
        <pt x="768" y="64" on="0"/>
        <pt x="766" y="71" on="1"/>
        <pt x="722" y="10" on="0"/>
        <pt x="649" y="-15" on="1"/>
        <pt x="611" y="-10" on="0"/>
        <pt x="569" y="15" on="0"/>
        <pt x="546" y="46" on="0"/>
        <pt x="535" y="81" on="0"/>
        <pt x="522" y="113" on="0"/>
        <pt x="501" y="139" on="0"/>
        <pt x="479" y="146" on="1"/>
        <pt x="470" y="149" on="0"/>
        <pt x="457" y="145" on="0"/>
        <pt x="446" y="135" on="0"/>
        <pt x="437" y="122" on="0"/>
        <pt x="432" y="117" on="1"/>
        <pt x="420" y="128" on="1"/>
        <pt x="411" y="104" on="0"/>
        <pt x="375" y="77" on="0"/>
        <pt x="331" y="64" on="0"/>
        <pt x="283" y="61" on="0"/>
        <pt x="261" y="61" on="1"/>
        <pt x="249" y="37" on="0"/>
        <pt x="217" y="13" on="0"/>
        <pt x="178" y="1" on="0"/>
        <pt x="136" y="-5" on="0"/>
        <pt x="114" y="-11" on="1"/>
        <pt x="105" y="-9" on="0"/>
        <pt x="84" y="-15" on="0"/>
        <pt x="63" y="-22" on="0"/>
        <pt x="42" y="-26" on="0"/>
        <pt x="35" y="-22" on="1"/>
        <pt x="25" y="-16" on="0"/>
        <pt x="26" y="-4" on="0"/>
        <pt x="21" y="3" on="1"/>
        <pt x="19" y="3" on="1"/>
        <pt x="-1" y="5" on="0"/>
        <pt x="-28" y="28" on="0"/>
        <pt x="-47" y="60" on="0"/>
        <pt x="-61" y="96" on="0"/>
        <pt x="-68" y="111" on="1"/>
        <pt x="-68" y="133" on="0"/>
        <pt x="-73" y="188" on="0"/>
        <pt x="-69" y="241" on="0"/>
        <pt x="-50" y="287" on="0"/>
        <pt x="-27" y="301" on="1"/>
        <pt x="-37" y="310" on="1"/>
        <pt x="-25" y="321" on="0"/>
        <pt x="-20" y="342" on="0"/>
        <pt x="-21" y="357" on="1"/>
        <pt x="-14" y="368" on="0"/>
        <pt x="3" y="385" on="0"/>
        <pt x="12" y="393" on="1"/>
        <pt x="37" y="419" on="0"/>
        <pt x="77" y="475" on="0"/>
        <pt x="77" y="513" on="1"/>
        <pt x="77" y="518" on="0"/>
        <pt x="76" y="527" on="0"/>
        <pt x="76" y="532" on="1"/>
        <pt x="89" y="535" on="0"/>
        <pt x="114" y="554" on="0"/>
        <pt x="139" y="573" on="0"/>
        <pt x="165" y="585" on="0"/>
        <pt x="180" y="582" on="1"/>
        <pt x="178" y="587" on="0"/>
        <pt x="173" y="598" on="0"/>
        <pt x="173" y="604" on="1"/>
        <pt x="173" y="621" on="0"/>
        <pt x="197" y="647" on="0"/>
        <pt x="208" y="657" on="1"/>
        <pt x="217" y="666" on="0"/>
        <pt x="233" y="685" on="0"/>
        <pt x="241" y="693" on="1"/>
        <pt x="235" y="699" on="1"/>
        <pt x="250" y="701" on="0"/>
        <pt x="264" y="717" on="0"/>
        <pt x="276" y="735" on="0"/>
        <pt x="294" y="750" on="0"/>
        <pt x="312" y="750" on="1"/>
        <pt x="320" y="766" on="0"/>
        <pt x="352" y="791" on="0"/>
        <pt x="388" y="815" on="0"/>
        <pt x="421" y="841" on="0"/>
        <pt x="431" y="860" on="1"/>
        <pt x="446" y="866" on="0"/>
        <pt x="467" y="882" on="0"/>
        <pt x="488" y="898" on="0"/>
        <pt x="513" y="909" on="0"/>
        <pt x="531" y="910" on="1"/>
        <pt x="535" y="914" on="0"/>
        <pt x="544" y="925" on="0"/>
        <pt x="554" y="931" on="0"/>
        <pt x="564" y="929" on="0"/>
        <pt x="567" y="921" on="1"/>
        <pt x="573" y="926" on="0"/>
        <pt x="594" y="923" on="0"/>
        <pt x="616" y="913" on="0"/>
        <pt x="637" y="901" on="0"/>
        <pt x="643" y="898" on="1"/>
        <pt x="666" y="836" on="0"/>
        <pt x="649" y="771" on="1"/>
        <pt x="643" y="771" on="0"/>
        <pt x="631" y="770" on="0"/>
        <pt x="625" y="770" on="1"/>
        <pt x="626" y="775" on="0"/>
        <pt x="634" y="784" on="0"/>
        <pt x="637" y="787" on="1"/>
        <pt x="625" y="793" on="0"/>
        <pt x="613" y="813" on="0"/>
        <pt x="603" y="834" on="0"/>
        <pt x="588" y="851" on="0"/>
        <pt x="572" y="853" on="1"/>
        <pt x="550" y="856" on="0"/>
        <pt x="513" y="836" on="0"/>
        <pt x="480" y="810" on="0"/>
        <pt x="452" y="789" on="0"/>
        <pt x="439" y="791" on="1"/>
        <pt x="433" y="779" on="0"/>
        <pt x="418" y="763" on="0"/>
        <pt x="405" y="747" on="0"/>
        <pt x="399" y="727" on="0"/>
        <pt x="402" y="711" on="1"/>
        <pt x="366" y="677" on="0"/>
        <pt x="292" y="614" on="0"/>
        <pt x="260" y="576" on="1"/>
        <pt x="248" y="586" on="1"/>
        <pt x="248" y="579" on="0"/>
        <pt x="240" y="568" on="0"/>
        <pt x="231" y="556" on="0"/>
        <pt x="226" y="542" on="0"/>
        <pt x="229" y="533" on="1"/>
        <pt x="221" y="527" on="0"/>
        <pt x="210" y="514" on="0"/>
        <pt x="205" y="506" on="1"/>
        <pt x="199" y="497" on="0"/>
        <pt x="185" y="483" on="0"/>
        <pt x="177" y="475" on="1"/>
        <pt x="176" y="474" on="1"/>
        <pt x="177" y="464" on="0"/>
        <pt x="177" y="445" on="0"/>
        <pt x="177" y="435" on="1"/>
        <pt x="165" y="418" on="0"/>
        <pt x="133" y="388" on="0"/>
        <pt x="103" y="357" on="0"/>
        <pt x="80" y="322" on="0"/>
        <pt x="78" y="299" on="1"/>
        <pt x="61" y="293" on="0"/>
        <pt x="47" y="265" on="0"/>
        <pt x="40" y="235" on="0"/>
        <pt x="33" y="207" on="0"/>
        <pt x="24" y="200" on="1"/>
        <pt x="33" y="192" on="1"/>
        <pt x="8" y="176" on="0"/>
        <pt x="-17" y="132" on="0"/>
        <pt x="-9" y="102" on="1"/>
        <pt x="-8" y="101" on="1"/>
        <pt x="-8" y="100" on="1"/>
        <pt x="20" y="75" on="0"/>
        <pt x="81" y="71" on="0"/>
        <pt x="116" y="76" on="1"/>
        <pt x="132" y="78" on="0"/>
        <pt x="162" y="79" on="0"/>
        <pt x="178" y="79" on="1"/>
        <pt x="192" y="94" on="0"/>
        <pt x="225" y="100" on="0"/>
        <pt x="258" y="100" on="0"/>
        <pt x="288" y="104" on="0"/>
        <pt x="299" y="117" on="1"/>
        <pt x="303" y="121" on="0"/>
        <pt x="307" y="129" on="0"/>
        <pt x="310" y="133" on="1"/>
        <pt x="312" y="135" on="0"/>
        <pt x="316" y="139" on="0"/>
        <pt x="318" y="141" on="1"/>
        <pt x="340" y="136" on="0"/>
        <pt x="378" y="157" on="0"/>
        <pt x="413" y="187" on="0"/>
        <pt x="447" y="218" on="0"/>
        <pt x="466" y="224" on="1"/>
        <pt x="489" y="247" on="0"/>
        <pt x="504" y="300" on="0"/>
        <pt x="506" y="331" on="1"/>
        <pt x="507" y="347" on="0"/>
        <pt x="510" y="372" on="0"/>
        <pt x="518" y="394" on="0"/>
        <pt x="532" y="415" on="0"/>
        <pt x="544" y="427" on="1"/>
        <pt x="546" y="429" on="1"/>
        <pt x="544" y="437" on="0"/>
        <pt x="540" y="450" on="0"/>
        <pt x="540" y="458" on="1"/>
        <pt x="540" y="477" on="0"/>
        <pt x="554" y="511" on="0"/>
        <pt x="571" y="547" on="0"/>
        <pt x="585" y="587" on="0"/>
        <pt x="585" y="611" on="1"/>
        <pt x="599" y="635" on="0"/>
        <pt x="633" y="685" on="0"/>
        <pt x="673" y="731" on="0"/>
        <pt x="719" y="767" on="0"/>
        <pt x="746" y="777" on="1"/>
        <pt x="760" y="776" on="0"/>
        <pt x="785" y="773" on="0"/>
        <pt x="798" y="771" on="1"/>
        <pt x="792" y="757" on="0"/>
        <pt x="792" y="721" on="0"/>
        <pt x="789" y="686" on="0"/>
        <pt x="775" y="657" on="0"/>
        <pt x="756" y="651" on="1"/>
        <pt x="758" y="647" on="0"/>
        <pt x="759" y="632" on="0"/>
        <pt x="759" y="627" on="1"/>
        <pt x="759" y="597" on="0"/>
        <pt x="734" y="543" on="0"/>
        <pt x="702" y="490" on="0"/>
        <pt x="670" y="437" on="0"/>
        <pt x="663" y="408" on="1"/>
        <pt x="660" y="394" on="0"/>
        <pt x="639" y="372" on="0"/>
        <pt x="618" y="350" on="0"/>
        <pt x="605" y="326" on="0"/>
        <pt x="610" y="311" on="1"/>
        <pt x="602" y="298" on="0"/>
        <pt x="581" y="281" on="0"/>
        <pt x="565" y="264" on="0"/>
        <pt x="559" y="240" on="0"/>
        <pt x="566" y="221" on="1"/>
        <pt x="567" y="221" on="1"/>
        <pt x="567" y="220" on="1"/>
        <pt x="578" y="204" on="0"/>
        <pt x="581" y="162" on="0"/>
        <pt x="585" y="123" on="0"/>
        <pt x="600" y="90" on="0"/>
        <pt x="623" y="83" on="1"/>
        <pt x="625" y="93" on="0"/>
        <pt x="639" y="95" on="0"/>
        <pt x="647" y="94" on="1"/>
        <pt x="652" y="90" on="0"/>
        <pt x="662" y="81" on="0"/>
        <pt x="667" y="76" on="1"/>
        <pt x="675" y="76" on="0"/>
        <pt x="701" y="94" on="0"/>
        <pt x="727" y="119" on="0"/>
        <pt x="750" y="144" on="0"/>
        <pt x="756" y="151" on="1"/>
        <pt x="761" y="157" on="0"/>
        <pt x="764" y="166" on="0"/>
        <pt x="765" y="175" on="0"/>
        <pt x="767" y="184" on="0"/>
        <pt x="773" y="189" on="1"/>
        <pt x="778" y="194" on="0"/>
        <pt x="781" y="205" on="0"/>
        <pt x="782" y="211" on="1"/>
        <pt x="782" y="224" on="0"/>
        <pt x="802" y="234" on="0"/>
        <pt x="809" y="243" on="1"/>
        <pt x="816" y="251" on="0"/>
        <pt x="822" y="272" on="0"/>
        <pt x="827" y="283" on="1"/>
        <pt x="830" y="291" on="0"/>
        <pt x="847" y="302" on="0"/>
        <pt x="866" y="313" on="0"/>
        <pt x="881" y="329" on="0"/>
        <pt x="883" y="341" on="1"/>
        <pt x="884" y="344" on="0"/>
        <pt x="880" y="352" on="0"/>
        <pt x="878" y="354" on="1"/>
        <pt x="875" y="357" on="0"/>
        <pt x="867" y="361" on="0"/>
        <pt x="864" y="363" on="1"/>
        <pt x="854" y="368" on="0"/>
        <pt x="845" y="384" on="0"/>
        <pt x="837" y="390" on="1"/>
        <pt x="829" y="397" on="0"/>
        <pt x="811" y="404" on="0"/>
        <pt x="807" y="415" on="1"/>
        <pt x="805" y="421" on="0"/>
        <pt x="797" y="439" on="0"/>
        <pt x="797" y="444" on="1"/>
        <pt x="797" y="452" on="0"/>
        <pt x="795" y="465" on="0"/>
        <pt x="795" y="472" on="1"/>
        <pt x="794" y="486" on="0"/>
        <pt x="803" y="507" on="0"/>
        <pt x="798" y="521" on="1"/>
        <pt x="801" y="536" on="0"/>
        <pt x="810" y="581" on="0"/>
        <pt x="818" y="593" on="1"/>
        <pt x="825" y="603" on="0"/>
        <pt x="843" y="615" on="0"/>
        <pt x="848" y="626" on="1"/>
        <pt x="853" y="634" on="0"/>
        <pt x="861" y="641" on="1"/>
        <pt x="869" y="647" on="0"/>
        <pt x="876" y="663" on="0"/>
        <pt x="881" y="679" on="0"/>
        <pt x="888" y="693" on="0"/>
        <pt x="896" y="696" on="1"/>
        <pt x="908" y="702" on="0"/>
        <pt x="910" y="721" on="0"/>
        <pt x="919" y="726" on="1"/>
        <pt x="924" y="729" on="0"/>
        <pt x="923" y="732" on="1"/>
        <pt x="929" y="735" on="0"/>
        <pt x="935" y="735" on="1"/>
        <pt x="939" y="735" on="0"/>
        <pt x="961" y="747" on="0"/>
        <pt x="964" y="749" on="1"/>
        <pt x="979" y="760" on="0"/>
        <pt x="989" y="782" on="0"/>
        <pt x="1000" y="789" on="1"/>
        <pt x="1009" y="794" on="0"/>
        <pt x="1027" y="805" on="0"/>
        <pt x="1036" y="812" on="1"/>
        <pt x="1044" y="819" on="0"/>
        <pt x="1055" y="825" on="1"/>
        <pt x="1071" y="835" on="0"/>
        <pt x="1103" y="843" on="0"/>
        <pt x="1120" y="849" on="1"/>
        <pt x="1127" y="852" on="0"/>
        <pt x="1137" y="871" on="0"/>
        <pt x="1151" y="874" on="1"/>
        <pt x="1156" y="875" on="0"/>
        <pt x="1165" y="874" on="0"/>
        <pt x="1170" y="875" on="1"/>
        <pt x="1179" y="875" on="0"/>
        <pt x="1182" y="895" on="0"/>
        <pt x="1190" y="902" on="1"/>
        <pt x="1206" y="906" on="0"/>
        <pt x="1224" y="909" on="0"/>
        <pt x="1238" y="918" on="1"/>
        <pt x="1244" y="921" on="0"/>
        <pt x="1254" y="922" on="0"/>
        <pt x="1263" y="922" on="0"/>
        <pt x="1273" y="925" on="0"/>
        <pt x="1278" y="930" on="1"/>
        <pt x="1283" y="935" on="0"/>
        <pt x="1290" y="937" on="0"/>
        <pt x="1297" y="936" on="1"/>
        <pt x="1307" y="934" on="0"/>
        <pt x="1338" y="940" on="0"/>
        <pt x="1349" y="942" on="1"/>
        <pt x="1357" y="940" on="0"/>
        <pt x="1373" y="940" on="0"/>
        <pt x="1381" y="937" on="1"/>
        <pt x="1394" y="932" on="0"/>
        <pt x="1417" y="929" on="0"/>
        <pt x="1431" y="927" on="1"/>
        <pt x="1437" y="922" on="0"/>
        <pt x="1444" y="919" on="0"/>
        <pt x="1448" y="915" on="0"/>
        <pt x="1453" y="909" on="0"/>
        <pt x="1458" y="902" on="1"/>
        <pt x="1461" y="897" on="0"/>
        <pt x="1472" y="888" on="0"/>
        <pt x="1475" y="882" on="1"/>
        <pt x="1476" y="881" on="0"/>
        <pt x="1477" y="879" on="0"/>
        <pt x="1475" y="880" on="1"/>
        <pt x="1473" y="878" on="0"/>
        <pt x="1473" y="868" on="0"/>
        <pt x="1475" y="856" on="0"/>
        <pt x="1478" y="845" on="0"/>
        <pt x="1478" y="842" on="1"/>
        <pt x="1480" y="830" on="0"/>
        <pt x="1475" y="819" on="1"/>
        <pt x="1469" y="806" on="0"/>
        <pt x="1467" y="781" on="0"/>
        <pt x="1463" y="768" on="1"/>
        <pt x="1460" y="760" on="0"/>
        <pt x="1450" y="748" on="0"/>
        <pt x="1446" y="740" on="1"/>
        <pt x="1442" y="733" on="0"/>
        <pt x="1437" y="713" on="0"/>
        <pt x="1435" y="705" on="1"/>
        <pt x="1434" y="702" on="0"/>
        <pt x="1436" y="695" on="0"/>
        <pt x="1434" y="693" on="1"/>
        <pt x="1428" y="691" on="0"/>
        <pt x="1425" y="688" on="1"/>
        <pt x="1424" y="687" on="0"/>
        <pt x="1424" y="678" on="0"/>
        <pt x="1424" y="667" on="0"/>
        <pt x="1424" y="657" on="0"/>
        <pt x="1423" y="654" on="1"/>
        <pt x="1420" y="646" on="0"/>
        <pt x="1410" y="635" on="0"/>
        <pt x="1401" y="624" on="0"/>
        <pt x="1396" y="611" on="0"/>
        <pt x="1398" y="601" on="1"/>
        <pt x="1400" y="592" on="0"/>
        <pt x="1376" y="585" on="0"/>
        <pt x="1370" y="583" on="1"/>
        <pt x="1361" y="579" on="0"/>
        <pt x="1339" y="551" on="0"/>
        <pt x="1332" y="543" on="1"/>
        <pt x="1325" y="535" on="0"/>
        <pt x="1305" y="531" on="0"/>
        <pt x="1297" y="525" on="1"/>
        <pt x="1265" y="505" on="0"/>
        <pt x="1246" y="536" on="1"/>
        <pt x="1243" y="541" on="0"/>
        <pt x="1242" y="557" on="0"/>
        <pt x="1244" y="574" on="0"/>
        <pt x="1248" y="590" on="0"/>
        <pt x="1250" y="595" on="1"/>
        <pt x="1252" y="606" on="0"/>
        <pt x="1252" y="626" on="0"/>
        <pt x="1252" y="637" on="1"/>
        <pt x="1252" y="645" on="0"/>
        <pt x="1271" y="664" on="0"/>
        <pt x="1274" y="677" on="1"/>
        <pt x="1276" y="683" on="0"/>
        <pt x="1285" y="688" on="0"/>
        <pt x="1297" y="690" on="0"/>
        <pt x="1308" y="693" on="0"/>
        <pt x="1313" y="698" on="1"/>
        <pt x="1321" y="706" on="0"/>
        <pt x="1325" y="727" on="0"/>
        <pt x="1335" y="735" on="1"/>
        <pt x="1343" y="743" on="0"/>
        <pt x="1364" y="748" on="0"/>
        <pt x="1372" y="756" on="1"/>
        <pt x="1383" y="767" on="0"/>
        <pt x="1401" y="790" on="0"/>
        <pt x="1401" y="807" on="1"/>
        <pt x="1401" y="812" on="0"/>
        <pt x="1401" y="823" on="0"/>
        <pt x="1403" y="828" on="1"/>
        <pt x="1403" y="829" on="0"/>
        <pt x="1407" y="839" on="0"/>
        <pt x="1410" y="849" on="0"/>
        <pt x="1410" y="857" on="0"/>
        <pt x="1406" y="857" on="1"/>
        <pt x="1398" y="865" on="0"/>
        <pt x="1379" y="871" on="0"/>
        <pt x="1373" y="879" on="1"/>
        <pt x="1371" y="881" on="0"/>
        <pt x="1368" y="883" on="0"/>
        <pt x="1365" y="884" on="1"/>
        <pt x="1357" y="880" on="0"/>
        <pt x="1356" y="871" on="0"/>
        <pt x="1351" y="866" on="1"/>
        <pt x="1347" y="862" on="0"/>
        <pt x="1341" y="863" on="1"/>
        <pt x="1332" y="865" on="0"/>
        <pt x="1311" y="857" on="0"/>
        <pt x="1303" y="855" on="1"/>
        <pt x="1295" y="853" on="0"/>
        <pt x="1281" y="854" on="0"/>
        <pt x="1269" y="855" on="0"/>
        <pt x="1256" y="853" on="0"/>
        <pt x="1248" y="847" on="1"/>
        <pt x="1243" y="844" on="0"/>
        <pt x="1237" y="837" on="0"/>
        <pt x="1234" y="834" on="1"/>
        <pt x="1228" y="826" on="0"/>
        <pt x="1211" y="817" on="0"/>
        <pt x="1204" y="810" on="1"/>
        <pt x="1199" y="806" on="0"/>
        <pt x="1190" y="805" on="0"/>
        <pt x="1180" y="806" on="0"/>
        <pt x="1170" y="805" on="0"/>
        <pt x="1165" y="800" on="1"/>
        <pt x="1156" y="792" on="0"/>
        <pt x="1123" y="773" on="0"/>
        <pt x="1111" y="768" on="1"/>
        <pt x="1100" y="763" on="0"/>
        <pt x="1088" y="748" on="0"/>
        <pt x="1081" y="745" on="1"/>
        <pt x="1075" y="742" on="0"/>
        <pt x="1072" y="740" on="1"/>
        <pt x="1067" y="738" on="0"/>
        <pt x="1048" y="738" on="0"/>
        <pt x="1040" y="731" on="1"/>
        <pt x="1036" y="729" on="0"/>
        <pt x="1030" y="720" on="0"/>
        <pt x="1028" y="716" on="1"/>
        <pt x="1019" y="696" on="0"/>
        <pt x="993" y="668" on="0"/>
        <pt x="971" y="661" on="1"/>
        <pt x="963" y="658" on="0"/>
        <pt x="954" y="646" on="0"/>
        <pt x="948" y="631" on="0"/>
        <pt x="943" y="617" on="0"/>
        <pt x="937" y="611" on="1"/>
        <pt x="923" y="597" on="1"/>
        <pt x="915" y="589" on="0"/>
        <pt x="908" y="573" on="0"/>
        <pt x="903" y="563" on="1"/>
        <pt x="898" y="553" on="0"/>
        <pt x="887" y="537" on="0"/>
        <pt x="880" y="528" on="1"/>
        <pt x="873" y="519" on="0"/>
        <pt x="870" y="509" on="1"/>
        <pt x="868" y="504" on="0"/>
        <pt x="869" y="494" on="0"/>
        <pt x="869" y="489" on="1"/>
        <pt x="869" y="462" on="0"/>
        <pt x="879" y="433" on="0"/>
        <pt x="908" y="426" on="1"/>
        <pt x="919" y="424" on="0"/>
        <pt x="936" y="408" on="0"/>
        <pt x="948" y="408" on="1"/>
        <pt x="953" y="408" on="0"/>
        <pt x="963" y="405" on="0"/>
        <pt x="968" y="404" on="1"/>
        <pt x="973" y="402" on="0"/>
        <pt x="987" y="409" on="0"/>
        <pt x="1001" y="418" on="0"/>
        <pt x="1014" y="429" on="0"/>
        <pt x="1018" y="432" on="1"/>
        <pt x="1026" y="437" on="0"/>
        <pt x="1046" y="436" on="0"/>
        <pt x="1057" y="442" on="1"/>
        <pt x="1062" y="445" on="0"/>
        <pt x="1068" y="446" on="0"/>
        <pt x="1073" y="447" on="1"/>
        <pt x="1085" y="447" on="0"/>
        <pt x="1114" y="455" on="0"/>
        <pt x="1124" y="453" on="1"/>
        <pt x="1133" y="451" on="0"/>
        <pt x="1138" y="438" on="0"/>
        <pt x="1136" y="421" on="0"/>
        <pt x="1131" y="405" on="0"/>
        <pt x="1131" y="399" on="1"/>
        <pt x="1131" y="395" on="0"/>
        <pt x="1136" y="395" on="1"/>
        <pt x="1137" y="395" on="0"/>
        <pt x="1140" y="393" on="0"/>
        <pt x="1138" y="392" on="1"/>
        <pt x="1138" y="390" on="0"/>
        <pt x="1136" y="389" on="0"/>
        <pt x="1135" y="387" on="1"/>
        <pt x="1128" y="378" on="0"/>
        <pt x="1118" y="370" on="0"/>
        <pt x="1108" y="365" on="0"/>
        <pt x="1097" y="360" on="0"/>
        <pt x="1089" y="354" on="1"/>
        <pt x="1084" y="351" on="0"/>
        <pt x="1074" y="346" on="0"/>
        <pt x="1069" y="344" on="1"/>
        <pt x="1063" y="342" on="0"/>
        <pt x="1051" y="345" on="0"/>
        <pt x="1040" y="349" on="0"/>
        <pt x="1029" y="352" on="0"/>
        <pt x="1024" y="350" on="1"/>
        <pt x="1015" y="347" on="0"/>
        <pt x="1003" y="332" on="0"/>
        <pt x="991" y="332" on="1"/>
        <pt x="986" y="332" on="0"/>
        <pt x="977" y="324" on="0"/>
        <pt x="974" y="320" on="1"/>
        <pt x="971" y="314" on="0"/>
        <pt x="962" y="310" on="0"/>
        <pt x="954" y="307" on="0"/>
        <pt x="945" y="301" on="0"/>
        <pt x="942" y="294" on="1"/>
        <pt x="931" y="264" on="0"/>
        <pt x="904" y="246" on="1"/>
        <pt x="897" y="241" on="0"/>
        <pt x="872" y="229" on="0"/>
        <pt x="867" y="222" on="1"/>
        <pt x="863" y="216" on="0"/>
        <pt x="863" y="205" on="0"/>
        <pt x="862" y="192" on="0"/>
        <pt x="855" y="174" on="0"/>
        <pt x="844" y="162" on="1"/>
        <pt x="839" y="157" on="0"/>
        <pt x="838" y="148" on="0"/>
        <pt x="838" y="139" on="0"/>
        <pt x="837" y="129" on="0"/>
        <pt x="833" y="123" on="1"/>
        <pt x="828" y="115" on="0"/>
        <pt x="839" y="105" on="0"/>
        <pt x="841" y="98" on="1"/>
        <pt x="843" y="93" on="0"/>
        <pt x="843" y="82" on="0"/>
        <pt x="842" y="76" on="1"/>
        <pt x="842" y="70" on="0"/>
        <pt x="850" y="56" on="0"/>
        <pt x="862" y="45" on="0"/>
        <pt x="876" y="38" on="0"/>
        <pt x="882" y="39" on="1"/>
        <pt x="887" y="40" on="0"/>
        <pt x="893" y="34" on="0"/>
        <pt x="896" y="30" on="1"/>
        <pt x="904" y="19" on="0"/>
        <pt x="921" y="20" on="0"/>
        <pt x="932" y="23" on="1"/>
        <pt x="943" y="25" on="0"/>
        <pt x="962" y="14" on="0"/>
        <pt x="973" y="14" on="1"/>
        <pt x="980" y="14" on="0"/>
        <pt x="992" y="15" on="0"/>
        <pt x="999" y="16" on="1"/>
        <pt x="1011" y="18" on="0"/>
        <pt x="1022" y="24" on="0"/>
        <pt x="1030" y="33" on="1"/>
        <pt x="1035" y="37" on="0"/>
        <pt x="1045" y="38" on="0"/>
        <pt x="1055" y="38" on="0"/>
        <pt x="1066" y="39" on="0"/>
        <pt x="1071" y="44" on="1"/>
        <pt x="1076" y="49" on="0"/>
        <pt x="1083" y="49" on="0"/>
        <pt x="1090" y="47" on="1"/>
        <pt x="1096" y="45" on="0"/>
        <pt x="1105" y="50" on="0"/>
        <pt x="1113" y="56" on="0"/>
        <pt x="1123" y="61" on="0"/>
        <pt x="1130" y="60" on="1"/>
        <pt x="1141" y="60" on="0"/>
        <pt x="1149" y="69" on="1"/>
        <pt x="1157" y="78" on="0"/>
        <pt x="1177" y="79" on="0"/>
        <pt x="1186" y="86" on="1"/>
        <pt x="1191" y="89" on="0"/>
        <pt x="1197" y="96" on="0"/>
        <pt x="1200" y="100" on="1"/>
        <pt x="1205" y="105" on="0"/>
        <pt x="1216" y="106" on="0"/>
        <pt x="1228" y="105" on="0"/>
        <pt x="1240" y="105" on="0"/>
        <pt x="1246" y="109" on="1"/>
        <pt x="1255" y="115" on="0"/>
        <pt x="1266" y="130" on="0"/>
        <pt x="1277" y="135" on="1"/>
        <pt x="1291" y="140" on="0"/>
        <pt x="1301" y="145" on="0"/>
        <pt x="1310" y="157" on="1"/>
        <pt x="1314" y="162" on="0"/>
        <pt x="1323" y="164" on="0"/>
        <pt x="1330" y="163" on="1"/>
        <pt x="1340" y="161" on="0"/>
        <pt x="1353" y="177" on="0"/>
        <pt x="1363" y="180" on="1"/>
        <pt x="1380" y="185" on="0"/>
        <pt x="1387" y="199" on="1"/>
        <pt x="1397" y="200" on="0"/>
        <pt x="1412" y="209" on="0"/>
        <pt x="1420" y="209" on="1"/>
        <pt x="1429" y="209" on="0"/>
        <pt x="1451" y="228" on="0"/>
        <pt x="1460" y="230" on="1"/>
        <pt x="1465" y="232" on="0"/>
        <pt x="1473" y="232" on="0"/>
        <pt x="1478" y="234" on="1"/>
        <pt x="1483" y="235" on="0"/>
        <pt x="1490" y="228" on="0"/>
      </contour>
    </TTGlyph>
    <TTGlyph name="Aacute" xMin="-73" yMin="-26" xMax="1005" yMax="1217">
      <component glyphName="A" x="0" y="0" flags="0x204"/>
      <component glyphName="acute" x="420" y="338" flags="0x4"/>
    </TTGlyph>
    <TTGlyph name="Acircumflex" xMin="-73" yMin="-26" xMax="1005" yMax="1235">
      <component glyphName="A" x="0" y="0" flags="0x204"/>
      <component glyphName="circumflex" x="440" y="246" flags="0x4"/>
    </TTGlyph>
    <TTGlyph name="Adieresis" xMin="-73" yMin="-26" xMax="1005" yMax="1173">
      <component glyphName="A" x="0" y="0" flags="0x204"/>
      <component glyphName="dieresis" x="451" y="143" flags="0x4"/>
    </TTGlyph>
    <TTGlyph name="Agrave" xMin="-73" yMin="-26" xMax="1005" yMax="1297">
      <component glyphName="A" x="0" y="0" flags="0x204"/>
      <component glyphName="grave" x="594" y="369" flags="0x4"/>
    </TTGlyph>
    <TTGlyph name="Aring" xMin="-73" yMin="-26" xMax="1005" yMax="1210">
      <contour>
        <pt x="673" y="542" on="1"/>
        <pt x="668" y="553" on="0"/>
        <pt x="644" y="553" on="0"/>
        <pt x="634" y="552" on="1"/>
        <pt x="642" y="544" on="0"/>
        <pt x="655" y="524" on="0"/>
        <pt x="661" y="515" on="1"/>
        <pt x="666" y="520" on="0"/>
        <pt x="677" y="534" on="0"/>
      </contour>
      <contour>
        <pt x="506" y="906" on="1"/>
        <pt x="510" y="907" on="0"/>
        <pt x="516" y="909" on="0"/>
        <pt x="520" y="909" on="1"/>
        <pt x="515" y="911" on="0"/>
        <pt x="509" y="911" on="0"/>
      </contour>
      <contour>
        <pt x="712" y="1113" on="1"/>
        <pt x="709" y="1106" on="0"/>
        <pt x="705" y="1095" on="0"/>
        <pt x="709" y="1087" on="1"/>
        <pt x="705" y="1087" on="1"/>
        <pt x="703" y="1061" on="0"/>
        <pt x="686" y="1016" on="0"/>
        <pt x="680" y="991" on="1"/>
        <pt x="676" y="995" on="1"/>
        <pt x="671" y="986" on="0"/>
        <pt x="667" y="958" on="0"/>
        <pt x="656" y="954" on="1"/>
        <pt x="652" y="957" on="1"/>
        <pt x="643" y="945" on="0"/>
        <pt x="619" y="927" on="0"/>
        <pt x="608" y="916" on="1"/>
        <pt x="619" y="911" on="0"/>
        <pt x="637" y="901" on="0"/>
        <pt x="642" y="898" on="1"/>
        <pt x="667" y="836" on="0"/>
        <pt x="648" y="771" on="1"/>
        <pt x="643" y="771" on="0"/>
        <pt x="631" y="770" on="0"/>
        <pt x="625" y="770" on="1"/>
        <pt x="625" y="774" on="0"/>
        <pt x="635" y="784" on="0"/>
        <pt x="637" y="786" on="1"/>
        <pt x="625" y="792" on="0"/>
        <pt x="613" y="813" on="0"/>
        <pt x="603" y="834" on="0"/>
        <pt x="588" y="851" on="0"/>
        <pt x="572" y="853" on="1"/>
        <pt x="550" y="856" on="0"/>
        <pt x="512" y="835" on="0"/>
        <pt x="480" y="810" on="0"/>
        <pt x="452" y="789" on="0"/>
        <pt x="439" y="791" on="1"/>
        <pt x="433" y="779" on="0"/>
        <pt x="418" y="763" on="0"/>
        <pt x="405" y="747" on="0"/>
        <pt x="398" y="727" on="0"/>
        <pt x="402" y="711" on="1"/>
        <pt x="366" y="677" on="0"/>
        <pt x="291" y="614" on="0"/>
        <pt x="259" y="575" on="1"/>
        <pt x="248" y="586" on="1"/>
        <pt x="248" y="579" on="0"/>
        <pt x="239" y="568" on="0"/>
        <pt x="231" y="556" on="0"/>
        <pt x="226" y="541" on="0"/>
        <pt x="229" y="532" on="1"/>
        <pt x="221" y="527" on="0"/>
        <pt x="210" y="514" on="0"/>
        <pt x="205" y="506" on="1"/>
        <pt x="199" y="497" on="0"/>
        <pt x="186" y="482" on="0"/>
        <pt x="176" y="475" on="1"/>
        <pt x="175" y="474" on="1"/>
        <pt x="176" y="464" on="0"/>
        <pt x="176" y="446" on="0"/>
        <pt x="176" y="435" on="1"/>
        <pt x="165" y="418" on="0"/>
        <pt x="133" y="388" on="0"/>
        <pt x="103" y="357" on="0"/>
        <pt x="80" y="321" on="0"/>
        <pt x="78" y="299" on="1"/>
        <pt x="61" y="293" on="0"/>
        <pt x="47" y="265" on="0"/>
        <pt x="39" y="235" on="0"/>
        <pt x="33" y="207" on="0"/>
        <pt x="24" y="200" on="1"/>
        <pt x="33" y="191" on="1"/>
        <pt x="7" y="176" on="0"/>
        <pt x="-17" y="132" on="0"/>
        <pt x="-9" y="102" on="1"/>
        <pt x="-8" y="101" on="1"/>
        <pt x="-8" y="100" on="1"/>
        <pt x="21" y="75" on="0"/>
        <pt x="81" y="71" on="0"/>
        <pt x="116" y="76" on="1"/>
        <pt x="132" y="78" on="0"/>
        <pt x="161" y="79" on="0"/>
        <pt x="175" y="79" on="1"/>
        <pt x="177" y="79" on="1"/>
        <pt x="191" y="93" on="0"/>
        <pt x="223" y="100" on="0"/>
        <pt x="242" y="100" on="1"/>
        <pt x="258" y="100" on="0"/>
        <pt x="288" y="104" on="0"/>
        <pt x="299" y="117" on="1"/>
        <pt x="303" y="121" on="0"/>
        <pt x="307" y="129" on="0"/>
        <pt x="310" y="133" on="1"/>
        <pt x="312" y="135" on="0"/>
        <pt x="316" y="139" on="0"/>
        <pt x="318" y="141" on="1"/>
        <pt x="340" y="136" on="0"/>
        <pt x="378" y="157" on="0"/>
        <pt x="413" y="187" on="0"/>
        <pt x="448" y="218" on="0"/>
        <pt x="466" y="224" on="1"/>
        <pt x="489" y="247" on="0"/>
        <pt x="504" y="301" on="0"/>
        <pt x="506" y="331" on="1"/>
        <pt x="507" y="346" on="0"/>
        <pt x="510" y="372" on="0"/>
        <pt x="517" y="395" on="0"/>
        <pt x="531" y="416" on="0"/>
        <pt x="544" y="427" on="1"/>
        <pt x="546" y="429" on="1"/>
        <pt x="544" y="437" on="0"/>
        <pt x="540" y="449" on="0"/>
        <pt x="540" y="458" on="1"/>
        <pt x="540" y="477" on="0"/>
        <pt x="554" y="511" on="0"/>
        <pt x="571" y="546" on="0"/>
        <pt x="585" y="586" on="0"/>
        <pt x="585" y="611" on="1"/>
        <pt x="599" y="635" on="0"/>
        <pt x="633" y="685" on="0"/>
        <pt x="673" y="731" on="0"/>
        <pt x="719" y="767" on="0"/>
        <pt x="746" y="777" on="1"/>
        <pt x="759" y="776" on="0"/>
        <pt x="786" y="773" on="0"/>
        <pt x="798" y="771" on="1"/>
        <pt x="792" y="757" on="0"/>
        <pt x="792" y="720" on="0"/>
        <pt x="789" y="685" on="0"/>
        <pt x="775" y="657" on="0"/>
        <pt x="756" y="651" on="1"/>
        <pt x="758" y="648" on="0"/>
        <pt x="759" y="631" on="0"/>
        <pt x="759" y="627" on="1"/>
        <pt x="759" y="597" on="0"/>
        <pt x="733" y="543" on="0"/>
        <pt x="700" y="490" on="0"/>
        <pt x="669" y="436" on="0"/>
        <pt x="663" y="408" on="1"/>
        <pt x="660" y="395" on="0"/>
        <pt x="639" y="373" on="0"/>
        <pt x="618" y="351" on="0"/>
        <pt x="605" y="326" on="0"/>
        <pt x="610" y="311" on="1"/>
        <pt x="602" y="298" on="0"/>
        <pt x="581" y="281" on="0"/>
        <pt x="565" y="264" on="0"/>
        <pt x="559" y="240" on="0"/>
        <pt x="566" y="221" on="1"/>
        <pt x="567" y="221" on="1"/>
        <pt x="567" y="220" on="1"/>
        <pt x="578" y="203" on="0"/>
        <pt x="590" y="167" on="0"/>
        <pt x="605" y="133" on="0"/>
        <pt x="630" y="105" on="0"/>
        <pt x="653" y="98" on="1"/>
        <pt x="655" y="109" on="0"/>
        <pt x="669" y="110" on="0"/>
        <pt x="677" y="110" on="1"/>
        <pt x="682" y="105" on="0"/>
        <pt x="692" y="96" on="0"/>
        <pt x="697" y="91" on="1"/>
        <pt x="741" y="91" on="0"/>
        <pt x="793" y="97" on="0"/>
        <pt x="830" y="113" on="0"/>
        <pt x="866" y="144" on="0"/>
        <pt x="895" y="169" on="1"/>
        <pt x="922" y="192" on="0"/>
        <pt x="976" y="237" on="0"/>
        <pt x="1005" y="257" on="1"/>
        <pt x="1003" y="230" on="0"/>
        <pt x="986" y="203" on="0"/>
        <pt x="967" y="181" on="0"/>
        <pt x="948" y="153" on="0"/>
        <pt x="943" y="125" on="1"/>
        <pt x="910" y="112" on="0"/>
        <pt x="880" y="77" on="0"/>
        <pt x="859" y="47" on="0"/>
        <pt x="830" y="31" on="0"/>
        <pt x="797" y="36" on="1"/>
        <pt x="792" y="42" on="0"/>
        <pt x="781" y="52" on="0"/>
        <pt x="774" y="57" on="1"/>
        <pt x="766" y="36" on="0"/>
        <pt x="741" y="22" on="0"/>
        <pt x="711" y="17" on="0"/>
        <pt x="679" y="9" on="0"/>
        <pt x="664" y="-7" on="1"/>
        <pt x="626" y="-2" on="0"/>
        <pt x="581" y="22" on="0"/>
        <pt x="555" y="51" on="0"/>
        <pt x="540" y="84" on="0"/>
        <pt x="524" y="114" on="0"/>
        <pt x="501" y="139" on="0"/>
        <pt x="479" y="146" on="1"/>
        <pt x="469" y="149" on="0"/>
        <pt x="456" y="145" on="0"/>
        <pt x="446" y="135" on="0"/>
        <pt x="437" y="122" on="0"/>
        <pt x="431" y="117" on="1"/>
        <pt x="420" y="128" on="1"/>
        <pt x="411" y="104" on="0"/>
        <pt x="376" y="77" on="0"/>
        <pt x="331" y="64" on="0"/>
        <pt x="282" y="61" on="0"/>
        <pt x="260" y="61" on="1"/>
        <pt x="249" y="37" on="0"/>
        <pt x="217" y="13" on="0"/>
        <pt x="178" y="1" on="0"/>
        <pt x="136" y="-5" on="0"/>
        <pt x="114" y="-11" on="1"/>
        <pt x="105" y="-9" on="0"/>
        <pt x="84" y="-15" on="0"/>
        <pt x="63" y="-22" on="0"/>
        <pt x="42" y="-26" on="0"/>
        <pt x="35" y="-22" on="1"/>
        <pt x="26" y="-17" on="0"/>
        <pt x="26" y="-3" on="0"/>
        <pt x="21" y="3" on="1"/>
        <pt x="19" y="3" on="1"/>
        <pt x="-2" y="5" on="0"/>
        <pt x="-28" y="28" on="0"/>
        <pt x="-47" y="60" on="0"/>
        <pt x="-61" y="96" on="0"/>
        <pt x="-68" y="111" on="1"/>
        <pt x="-68" y="133" on="0"/>
        <pt x="-73" y="186" on="0"/>
        <pt x="-69" y="239" on="0"/>
        <pt x="-51" y="285" on="0"/>
        <pt x="-30" y="299" on="1"/>
        <pt x="-27" y="301" on="1"/>
        <pt x="-38" y="310" on="1"/>
        <pt x="-25" y="321" on="0"/>
        <pt x="-20" y="342" on="0"/>
        <pt x="-21" y="357" on="1"/>
        <pt x="-14" y="368" on="0"/>
        <pt x="3" y="385" on="0"/>
        <pt x="12" y="393" on="1"/>
        <pt x="37" y="419" on="0"/>
        <pt x="77" y="475" on="0"/>
        <pt x="77" y="513" on="1"/>
        <pt x="77" y="518" on="0"/>
        <pt x="76" y="526" on="0"/>
        <pt x="76" y="531" on="1"/>
        <pt x="90" y="535" on="0"/>
        <pt x="115" y="554" on="0"/>
        <pt x="139" y="573" on="0"/>
        <pt x="165" y="585" on="0"/>
        <pt x="179" y="582" on="1"/>
        <pt x="177" y="588" on="0"/>
        <pt x="173" y="598" on="0"/>
        <pt x="173" y="604" on="1"/>
        <pt x="173" y="621" on="0"/>
        <pt x="198" y="647" on="0"/>
        <pt x="208" y="657" on="1"/>
        <pt x="216" y="665" on="0"/>
        <pt x="236" y="688" on="0"/>
        <pt x="241" y="693" on="1"/>
        <pt x="235" y="699" on="1"/>
        <pt x="250" y="700" on="0"/>
        <pt x="264" y="717" on="0"/>
        <pt x="277" y="735" on="0"/>
        <pt x="293" y="750" on="0"/>
        <pt x="309" y="750" on="1"/>
        <pt x="312" y="750" on="1"/>
        <pt x="320" y="766" on="0"/>
        <pt x="352" y="791" on="0"/>
        <pt x="387" y="815" on="0"/>
        <pt x="421" y="841" on="0"/>
        <pt x="430" y="860" on="1"/>
        <pt x="454" y="869" on="0"/>
        <pt x="483" y="897" on="0"/>
        <pt x="504" y="905" on="1"/>
        <pt x="499" y="910" on="0"/>
        <pt x="488" y="918" on="0"/>
        <pt x="481" y="916" on="1"/>
        <pt x="476" y="924" on="0"/>
        <pt x="458" y="945" on="0"/>
        <pt x="459" y="954" on="1"/>
        <pt x="451" y="960" on="0"/>
        <pt x="450" y="973" on="0"/>
        <pt x="455" y="987" on="0"/>
        <pt x="462" y="1000" on="0"/>
        <pt x="461" y="1007" on="1"/>
        <pt x="468" y="1021" on="0"/>
        <pt x="483" y="1045" on="0"/>
        <pt x="488" y="1059" on="1"/>
        <pt x="491" y="1065" on="0"/>
        <pt x="495" y="1077" on="0"/>
        <pt x="497" y="1083" on="1"/>
        <pt x="499" y="1090" on="0"/>
        <pt x="510" y="1096" on="0"/>
        <pt x="520" y="1101" on="0"/>
        <pt x="526" y="1109" on="0"/>
        <pt x="525" y="1117" on="1"/>
        <pt x="529" y="1128" on="0"/>
        <pt x="548" y="1144" on="0"/>
        <pt x="567" y="1159" on="0"/>
        <pt x="580" y="1176" on="0"/>
        <pt x="580" y="1189" on="1"/>
        <pt x="596" y="1205" on="0"/>
        <pt x="640" y="1210" on="0"/>
        <pt x="663" y="1197" on="1"/>
        <pt x="672" y="1187" on="0"/>
        <pt x="692" y="1168" on="0"/>
        <pt x="709" y="1149" on="0"/>
        <pt x="716" y="1127" on="0"/>
      </contour>
      <contour>
        <pt x="652" y="1116" on="1"/>
        <pt x="647" y="1116" on="0"/>
        <pt x="639" y="1123" on="0"/>
        <pt x="632" y="1131" on="0"/>
        <pt x="625" y="1138" on="0"/>
        <pt x="621" y="1138" on="1"/>
        <pt x="609" y="1127" on="0"/>
        <pt x="595" y="1099" on="0"/>
        <pt x="577" y="1094" on="1"/>
        <pt x="581" y="1089" on="0"/>
        <pt x="579" y="1083" on="0"/>
        <pt x="572" y="1079" on="0"/>
        <pt x="563" y="1074" on="0"/>
        <pt x="562" y="1070" on="1"/>
        <pt x="556" y="1055" on="0"/>
        <pt x="545" y="1042" on="0"/>
        <pt x="533" y="1031" on="1"/>
        <pt x="534" y="1024" on="0"/>
        <pt x="529" y="1013" on="0"/>
        <pt x="524" y="1001" on="0"/>
        <pt x="519" y="989" on="0"/>
        <pt x="520" y="982" on="1"/>
        <pt x="528" y="978" on="0"/>
        <pt x="543" y="971" on="0"/>
        <pt x="550" y="966" on="1"/>
        <pt x="560" y="966" on="0"/>
        <pt x="574" y="974" on="0"/>
        <pt x="588" y="983" on="0"/>
        <pt x="602" y="992" on="0"/>
        <pt x="611" y="993" on="1"/>
        <pt x="610" y="998" on="1"/>
        <pt x="619" y="1000" on="0"/>
        <pt x="624" y="1016" on="0"/>
        <pt x="628" y="1022" on="1"/>
        <pt x="630" y="1025" on="0"/>
        <pt x="630" y="1023" on="0"/>
        <pt x="633" y="1026" on="1"/>
        <pt x="641" y="1033" on="0"/>
        <pt x="646" y="1056" on="0"/>
        <pt x="647" y="1081" on="0"/>
        <pt x="648" y="1106" on="0"/>
      </contour>
    </TTGlyph>
    <TTGlyph name="Atilde" xMin="-73" yMin="-26" xMax="1005" yMax="1206">
      <component glyphName="A" x="0" y="0" flags="0x204"/>
      <component glyphName="tilde" x="410" y="297" flags="0x4"/>
    </TTGlyph>
    <TTGlyph name="B" xMin="-104" yMin="-50" xMax="925" yMax="952">
      <contour>
        <pt x="925" y="260" on="1"/>
        <pt x="921" y="236" on="0"/>
        <pt x="889" y="200" on="0"/>
        <pt x="868" y="189" on="1"/>
        <pt x="867" y="189" on="1"/>
        <pt x="843" y="175" on="0"/>
        <pt x="794" y="147" on="0"/>
        <pt x="768" y="136" on="1"/>
        <pt x="739" y="124" on="0"/>
        <pt x="689" y="96" on="0"/>
        <pt x="663" y="79" on="1"/>
        <pt x="660" y="77" on="1"/>
        <pt x="670" y="69" on="1"/>
        <pt x="664" y="61" on="0"/>
        <pt x="638" y="52" on="0"/>
        <pt x="613" y="41" on="0"/>
        <pt x="598" y="23" on="0"/>
        <pt x="603" y="7" on="1"/>
        <pt x="549" y="-32" on="0"/>
        <pt x="420" y="-50" on="0"/>
        <pt x="355" y="-41" on="1"/>
        <pt x="327" y="-37" on="0"/>
        <pt x="262" y="-21" on="0"/>
        <pt x="196" y="0" on="0"/>
        <pt x="134" y="26" on="0"/>
        <pt x="109" y="40" on="1"/>
        <pt x="104" y="43" on="0"/>
        <pt x="94" y="52" on="0"/>
        <pt x="89" y="55" on="1"/>
        <pt x="32" y="96" on="1"/>
        <pt x="30" y="95" on="1"/>
        <pt x="12" y="86" on="0"/>
        <pt x="-8" y="57" on="0"/>
        <pt x="-21" y="25" on="0"/>
        <pt x="-33" y="-7" on="0"/>
        <pt x="-50" y="-29" on="0"/>
        <pt x="-78" y="-38" on="0"/>
        <pt x="-101" y="-31" on="1"/>
        <pt x="-104" y="-9" on="0"/>
        <pt x="-98" y="36" on="0"/>
        <pt x="-92" y="80" on="0"/>
        <pt x="-88" y="120" on="0"/>
        <pt x="-92" y="137" on="1"/>
        <pt x="-73" y="145" on="0"/>
        <pt x="-66" y="172" on="0"/>
        <pt x="-65" y="200" on="0"/>
        <pt x="-55" y="224" on="0"/>
        <pt x="-33" y="230" on="1"/>
        <pt x="-33" y="252" on="0"/>
        <pt x="-19" y="288" on="0"/>
        <pt x="-3" y="323" on="0"/>
        <pt x="10" y="359" on="0"/>
        <pt x="9" y="382" on="1"/>
        <pt x="41" y="428" on="0"/>
        <pt x="91" y="529" on="0"/>
        <pt x="114" y="580" on="1"/>
        <pt x="138" y="634" on="0"/>
        <pt x="190" y="741" on="0"/>
        <pt x="257" y="834" on="0"/>
        <pt x="344" y="909" on="0"/>
        <pt x="403" y="932" on="1"/>
        <pt x="409" y="934" on="0"/>
        <pt x="430" y="941" on="0"/>
        <pt x="454" y="947" on="0"/>
        <pt x="475" y="952" on="0"/>
        <pt x="480" y="952" on="1"/>
        <pt x="485" y="952" on="0"/>
        <pt x="500" y="949" on="0"/>
        <pt x="505" y="948" on="1"/>
        <pt x="521" y="945" on="0"/>
        <pt x="553" y="940" on="0"/>
        <pt x="582" y="929" on="0"/>
        <pt x="605" y="909" on="0"/>
        <pt x="612" y="892" on="1"/>
        <pt x="612" y="891" on="1"/>
        <pt x="614" y="883" on="0"/>
        <pt x="621" y="864" on="0"/>
        <pt x="624" y="856" on="1"/>
        <pt x="631" y="833" on="0"/>
        <pt x="646" y="771" on="0"/>
        <pt x="646" y="746" on="1"/>
        <pt x="646" y="681" on="0"/>
        <pt x="606" y="557" on="0"/>
        <pt x="577" y="500" on="1"/>
        <pt x="578" y="499" on="1"/>
        <pt x="629" y="424" on="0"/>
        <pt x="696" y="257" on="0"/>
        <pt x="696" y="166" on="1"/>
        <pt x="725" y="171" on="0"/>
        <pt x="777" y="197" on="0"/>
        <pt x="803" y="211" on="1"/>
        <pt x="832" y="226" on="0"/>
        <pt x="893" y="253" on="0"/>
      </contour>
      <contour>
        <pt x="458" y="455" on="1"/>
        <pt x="455" y="463" on="0"/>
        <pt x="442" y="466" on="0"/>
        <pt x="434" y="465" on="1"/>
        <pt x="430" y="464" on="0"/>
        <pt x="425" y="465" on="0"/>
        <pt x="421" y="465" on="1"/>
        <pt x="404" y="466" on="0"/>
        <pt x="380" y="453" on="0"/>
        <pt x="362" y="431" on="0"/>
        <pt x="348" y="404" on="0"/>
        <pt x="341" y="392" on="1"/>
        <pt x="345" y="387" on="1"/>
        <pt x="365" y="391" on="0"/>
        <pt x="401" y="407" on="0"/>
        <pt x="419" y="417" on="1"/>
        <pt x="428" y="422" on="0"/>
        <pt x="448" y="430" on="0"/>
        <pt x="458" y="435" on="1"/>
      </contour>
      <contour>
        <pt x="639" y="170" on="1"/>
        <pt x="632" y="203" on="0"/>
        <pt x="618" y="276" on="0"/>
        <pt x="597" y="346" on="0"/>
        <pt x="564" y="410" on="0"/>
        <pt x="539" y="435" on="1"/>
        <pt x="532" y="420" on="0"/>
        <pt x="504" y="392" on="0"/>
        <pt x="469" y="367" on="0"/>
        <pt x="434" y="346" on="0"/>
        <pt x="420" y="339" on="1"/>
        <pt x="404" y="340" on="0"/>
        <pt x="364" y="329" on="0"/>
        <pt x="324" y="322" on="0"/>
        <pt x="289" y="327" on="0"/>
        <pt x="279" y="345" on="1"/>
        <pt x="279" y="346" on="1"/>
        <pt x="273" y="350" on="0"/>
        <pt x="260" y="354" on="0"/>
        <pt x="256" y="361" on="1"/>
        <pt x="253" y="368" on="0"/>
        <pt x="262" y="386" on="0"/>
        <pt x="273" y="408" on="0"/>
        <pt x="279" y="432" on="0"/>
        <pt x="272" y="445" on="1"/>
        <pt x="278" y="474" on="0"/>
        <pt x="314" y="497" on="0"/>
        <pt x="361" y="506" on="0"/>
        <pt x="410" y="510" on="0"/>
        <pt x="429" y="520" on="1"/>
        <pt x="448" y="512" on="0"/>
        <pt x="498" y="511" on="0"/>
        <pt x="517" y="521" on="1"/>
        <pt x="536" y="563" on="1"/>
        <pt x="551" y="594" on="0"/>
        <pt x="574" y="647" on="0"/>
        <pt x="587" y="699" on="0"/>
        <pt x="590" y="756" on="0"/>
        <pt x="585" y="792" on="1"/>
        <pt x="585" y="794" on="1"/>
        <pt x="584" y="794" on="1"/>
        <pt x="570" y="801" on="0"/>
        <pt x="568" y="825" on="0"/>
        <pt x="568" y="839" on="1"/>
        <pt x="560" y="852" on="0"/>
        <pt x="536" y="882" on="0"/>
        <pt x="522" y="888" on="1"/>
        <pt x="510" y="893" on="0"/>
        <pt x="478" y="897" on="0"/>
        <pt x="445" y="896" on="0"/>
        <pt x="414" y="888" on="0"/>
        <pt x="402" y="881" on="1"/>
        <pt x="400" y="879" on="1"/>
        <pt x="392" y="866" on="0"/>
        <pt x="374" y="853" on="0"/>
        <pt x="361" y="846" on="1"/>
        <pt x="352" y="841" on="0"/>
        <pt x="331" y="830" on="0"/>
        <pt x="314" y="817" on="0"/>
        <pt x="302" y="799" on="0"/>
        <pt x="302" y="786" on="1"/>
        <pt x="302" y="749" on="1"/>
        <pt x="302" y="748" on="0"/>
        <pt x="297" y="736" on="0"/>
        <pt x="290" y="722" on="0"/>
        <pt x="284" y="709" on="0"/>
        <pt x="283" y="707" on="1"/>
        <pt x="269" y="677" on="0"/>
        <pt x="239" y="619" on="0"/>
        <pt x="218" y="593" on="1"/>
        <pt x="218" y="592" on="1"/>
        <pt x="206" y="559" on="0"/>
        <pt x="181" y="493" on="0"/>
        <pt x="170" y="459" on="1"/>
        <pt x="145" y="385" on="0"/>
        <pt x="91" y="239" on="0"/>
        <pt x="47" y="173" on="1"/>
        <pt x="79" y="152" on="0"/>
        <pt x="145" y="107" on="0"/>
        <pt x="181" y="94" on="1"/>
        <pt x="197" y="89" on="0"/>
        <pt x="229" y="79" on="0"/>
        <pt x="243" y="71" on="1"/>
        <pt x="244" y="70" on="1"/>
        <pt x="260" y="70" on="0"/>
        <pt x="296" y="61" on="0"/>
        <pt x="332" y="54" on="0"/>
        <pt x="367" y="53" on="0"/>
        <pt x="381" y="62" on="1"/>
        <pt x="389" y="59" on="0"/>
        <pt x="402" y="65" on="0"/>
        <pt x="414" y="70" on="0"/>
        <pt x="425" y="69" on="0"/>
        <pt x="430" y="60" on="1"/>
        <pt x="448" y="73" on="0"/>
        <pt x="487" y="81" on="0"/>
        <pt x="508" y="85" on="1"/>
        <pt x="519" y="87" on="0"/>
        <pt x="540" y="92" on="0"/>
        <pt x="551" y="94" on="1"/>
        <pt x="552" y="94" on="1"/>
        <pt x="553" y="95" on="1"/>
        <pt x="561" y="106" on="0"/>
        <pt x="579" y="114" on="0"/>
        <pt x="590" y="119" on="1"/>
        <pt x="598" y="122" on="0"/>
        <pt x="615" y="130" on="0"/>
        <pt x="627" y="141" on="0"/>
        <pt x="628" y="156" on="0"/>
        <pt x="621" y="167" on="1"/>
        <pt x="624" y="168" on="1"/>
        <pt x="629" y="173" on="0"/>
        <pt x="634" y="172" on="0"/>
      </contour>
    </TTGlyph>
    <TTGlyph name="C" xMin="-61" yMin="-73" xMax="943" yMax="919">
      <contour>
        <pt x="943" y="359" on="1"/>
        <pt x="943" y="339" on="0"/>
        <pt x="900" y="288" on="0"/>
        <pt x="834" y="233" on="0"/>
        <pt x="753" y="178" on="0"/>
        <pt x="674" y="130" on="0"/>
        <pt x="607" y="93" on="0"/>
        <pt x="588" y="83" on="1"/>
        <pt x="567" y="72" on="0"/>
        <pt x="523" y="54" on="0"/>
        <pt x="503" y="42" on="1"/>
        <pt x="493" y="37" on="0"/>
        <pt x="477" y="24" on="0"/>
        <pt x="469" y="18" on="1"/>
        <pt x="452" y="6" on="0"/>
        <pt x="422" y="0" on="0"/>
        <pt x="399" y="-8" on="0"/>
        <pt x="387" y="-29" on="0"/>
        <pt x="387" y="-54" on="1"/>
        <pt x="361" y="-54" on="0"/>
        <pt x="311" y="-45" on="0"/>
        <pt x="286" y="-45" on="1"/>
        <pt x="270" y="-45" on="0"/>
        <pt x="241" y="-54" on="0"/>
        <pt x="212" y="-64" on="0"/>
        <pt x="183" y="-73" on="0"/>
        <pt x="167" y="-73" on="1"/>
        <pt x="122" y="-73" on="1"/>
        <pt x="115" y="-63" on="0"/>
        <pt x="99" y="-51" on="0"/>
        <pt x="82" y="-42" on="0"/>
        <pt x="65" y="-34" on="0"/>
        <pt x="57" y="-27" on="1"/>
        <pt x="46" y="-16" on="0"/>
        <pt x="22" y="14" on="0"/>
        <pt x="11" y="28" on="1"/>
        <pt x="-9" y="52" on="0"/>
        <pt x="-36" y="112" on="0"/>
        <pt x="-53" y="177" on="0"/>
        <pt x="-61" y="244" on="0"/>
        <pt x="-61" y="274" on="1"/>
        <pt x="-61" y="281" on="0"/>
        <pt x="-50" y="320" on="0"/>
        <pt x="-35" y="364" on="0"/>
        <pt x="-19" y="404" on="0"/>
        <pt x="-15" y="412" on="1"/>
        <pt x="-15" y="415" on="0"/>
        <pt x="0" y="440" on="0"/>
        <pt x="22" y="474" on="0"/>
        <pt x="48" y="515" on="0"/>
        <pt x="72" y="551" on="0"/>
        <pt x="90" y="580" on="0"/>
        <pt x="94" y="586" on="1"/>
        <pt x="100" y="595" on="0"/>
        <pt x="131" y="637" on="0"/>
        <pt x="173" y="689" on="0"/>
        <pt x="221" y="743" on="0"/>
        <pt x="266" y="786" on="0"/>
        <pt x="303" y="809" on="0"/>
        <pt x="313" y="805" on="1"/>
        <pt x="355" y="861" on="0"/>
        <pt x="483" y="914" on="0"/>
        <pt x="551" y="914" on="1"/>
        <pt x="574" y="914" on="0"/>
        <pt x="621" y="919" on="0"/>
        <pt x="643" y="905" on="1"/>
        <pt x="653" y="887" on="0"/>
        <pt x="676" y="827" on="0"/>
        <pt x="695" y="760" on="0"/>
        <pt x="707" y="697" on="0"/>
        <pt x="707" y="677" on="1"/>
        <pt x="707" y="653" on="0"/>
        <pt x="686" y="611" on="0"/>
        <pt x="656" y="571" on="0"/>
        <pt x="625" y="532" on="0"/>
        <pt x="615" y="512" on="1"/>
        <pt x="607" y="496" on="0"/>
        <pt x="584" y="438" on="0"/>
        <pt x="554" y="381" on="0"/>
        <pt x="518" y="339" on="0"/>
        <pt x="497" y="339" on="1"/>
        <pt x="486" y="339" on="0"/>
        <pt x="460" y="365" on="0"/>
        <pt x="460" y="376" on="1"/>
        <pt x="460" y="417" on="0"/>
        <pt x="486" y="491" on="0"/>
        <pt x="524" y="560" on="0"/>
        <pt x="570" y="627" on="0"/>
        <pt x="608" y="695" on="0"/>
        <pt x="634" y="766" on="0"/>
        <pt x="634" y="805" on="1"/>
        <pt x="634" y="819" on="0"/>
        <pt x="629" y="852" on="0"/>
        <pt x="615" y="860" on="1"/>
        <pt x="569" y="860" on="1"/>
        <pt x="543" y="860" on="0"/>
        <pt x="485" y="853" on="0"/>
        <pt x="465" y="833" on="1"/>
        <pt x="457" y="825" on="0"/>
        <pt x="442" y="806" on="0"/>
        <pt x="434" y="798" on="1"/>
        <pt x="432" y="796" on="0"/>
        <pt x="424" y="787" on="0"/>
        <pt x="415" y="777" on="0"/>
        <pt x="406" y="769" on="0"/>
        <pt x="404" y="768" on="1"/>
        <pt x="400" y="766" on="0"/>
        <pt x="391" y="762" on="0"/>
        <pt x="387" y="760" on="1"/>
        <pt x="379" y="756" on="0"/>
        <pt x="363" y="749" on="0"/>
        <pt x="355" y="744" on="1"/>
        <pt x="334" y="730" on="0"/>
        <pt x="301" y="692" on="0"/>
        <pt x="270" y="652" on="0"/>
        <pt x="236" y="616" on="0"/>
        <pt x="213" y="604" on="1"/>
        <pt x="187" y="561" on="0"/>
        <pt x="124" y="466" on="0"/>
        <pt x="68" y="366" on="0"/>
        <pt x="30" y="262" on="0"/>
        <pt x="30" y="211" on="1"/>
        <pt x="30" y="190" on="0"/>
        <pt x="38" y="135" on="0"/>
        <pt x="58" y="83" on="0"/>
        <pt x="89" y="43" on="0"/>
        <pt x="113" y="37" on="1"/>
        <pt x="120" y="35" on="0"/>
        <pt x="135" y="36" on="0"/>
        <pt x="149" y="36" on="0"/>
        <pt x="162" y="34" on="0"/>
        <pt x="167" y="28" on="1"/>
        <pt x="222" y="28" on="1"/>
        <pt x="241" y="28" on="0"/>
        <pt x="273" y="34" on="0"/>
        <pt x="303" y="45" on="0"/>
        <pt x="333" y="58" on="0"/>
        <pt x="350" y="65" on="1"/>
        <pt x="360" y="68" on="0"/>
        <pt x="376" y="74" on="0"/>
        <pt x="385" y="77" on="1"/>
        <pt x="407" y="83" on="0"/>
        <pt x="449" y="91" on="0"/>
        <pt x="469" y="101" on="1"/>
        <pt x="493" y="113" on="0"/>
        <pt x="536" y="143" on="0"/>
        <pt x="560" y="156" on="1"/>
        <pt x="567" y="159" on="0"/>
        <pt x="588" y="161" on="0"/>
        <pt x="610" y="162" on="0"/>
        <pt x="629" y="164" on="0"/>
        <pt x="633" y="168" on="1"/>
        <pt x="642" y="177" on="0"/>
        <pt x="659" y="196" on="0"/>
        <pt x="669" y="205" on="1"/>
        <pt x="686" y="208" on="0"/>
        <pt x="716" y="228" on="0"/>
        <pt x="733" y="231" on="1"/>
        <pt x="738" y="233" on="0"/>
        <pt x="747" y="238" on="0"/>
        <pt x="752" y="241" on="1"/>
        <pt x="766" y="249" on="0"/>
        <pt x="792" y="267" on="0"/>
        <pt x="805" y="275" on="1"/>
        <pt x="869" y="318" on="0"/>
        <pt x="934" y="359" on="1"/>
        <pt x="943" y="359" on="1"/>
      </contour>
    </TTGlyph>
    <TTGlyph name="Ccedilla" xMin="-143" yMin="-473" xMax="943" yMax="919">
      <contour>
        <pt x="113" y="-62" on="1"/>
        <pt x="116" y="-65" on="0"/>
        <pt x="122" y="-73" on="1"/>
        <pt x="167" y="-73" on="1"/>
        <pt x="172" y="-73" on="1"/>
        <pt x="173" y="-69" on="1"/>
        <pt x="163" y="-63" on="1"/>
        <pt x="164" y="-56" on="0"/>
        <pt x="169" y="-47" on="0"/>
        <pt x="173" y="-38" on="0"/>
        <pt x="174" y="-29" on="0"/>
        <pt x="170" y="-21" on="1"/>
        <pt x="167" y="-16" on="0"/>
        <pt x="163" y="-7" on="0"/>
        <pt x="158" y="-2" on="1"/>
        <pt x="149" y="6" on="0"/>
        <pt x="140" y="7" on="0"/>
        <pt x="135" y="-1" on="0"/>
        <pt x="130" y="-17" on="0"/>
        <pt x="126" y="-26" on="1"/>
        <pt x="124" y="-34" on="0"/>
        <pt x="118" y="-52" on="0"/>
      </contour>
      <contour>
        <pt x="46" y="-203" on="1"/>
        <pt x="48" y="-201" on="0"/>
        <pt x="53" y="-198" on="0"/>
        <pt x="55" y="-196" on="1"/>
        <pt x="54" y="-190" on="0"/>
        <pt x="52" y="-175" on="0"/>
        <pt x="52" y="-167" on="1"/>
        <pt x="63" y="-145" on="0"/>
        <pt x="99" y="-90" on="0"/>
        <pt x="113" y="-62" on="1"/>
        <pt x="100" y="-49" on="0"/>
        <pt x="71" y="-39" on="0"/>
        <pt x="57" y="-27" on="1"/>
        <pt x="46" y="-16" on="0"/>
        <pt x="22" y="14" on="0"/>
        <pt x="11" y="28" on="1"/>
        <pt x="-9" y="52" on="0"/>
        <pt x="-36" y="112" on="0"/>
        <pt x="-53" y="177" on="0"/>
        <pt x="-61" y="244" on="0"/>
        <pt x="-61" y="274" on="1"/>
        <pt x="-61" y="281" on="0"/>
        <pt x="-50" y="320" on="0"/>
        <pt x="-35" y="364" on="0"/>
        <pt x="-19" y="404" on="0"/>
        <pt x="-15" y="412" on="1"/>
        <pt x="-15" y="415" on="0"/>
        <pt x="0" y="440" on="0"/>
        <pt x="22" y="474" on="0"/>
        <pt x="48" y="515" on="0"/>
        <pt x="72" y="551" on="0"/>
        <pt x="91" y="580" on="0"/>
        <pt x="94" y="586" on="1"/>
        <pt x="100" y="595" on="0"/>
        <pt x="131" y="637" on="0"/>
        <pt x="173" y="689" on="0"/>
        <pt x="221" y="743" on="0"/>
        <pt x="266" y="786" on="0"/>
        <pt x="303" y="809" on="0"/>
        <pt x="313" y="805" on="1"/>
        <pt x="355" y="861" on="0"/>
        <pt x="483" y="914" on="0"/>
        <pt x="551" y="914" on="1"/>
        <pt x="574" y="914" on="0"/>
        <pt x="621" y="919" on="0"/>
        <pt x="643" y="905" on="1"/>
        <pt x="653" y="887" on="0"/>
        <pt x="676" y="827" on="0"/>
        <pt x="695" y="760" on="0"/>
        <pt x="707" y="697" on="0"/>
        <pt x="707" y="677" on="1"/>
        <pt x="707" y="653" on="0"/>
        <pt x="686" y="611" on="0"/>
        <pt x="656" y="571" on="0"/>
        <pt x="625" y="532" on="0"/>
        <pt x="615" y="512" on="1"/>
        <pt x="607" y="496" on="0"/>
        <pt x="584" y="438" on="0"/>
        <pt x="554" y="381" on="0"/>
        <pt x="518" y="339" on="0"/>
        <pt x="497" y="339" on="1"/>
        <pt x="486" y="339" on="0"/>
        <pt x="460" y="365" on="0"/>
        <pt x="460" y="376" on="1"/>
        <pt x="460" y="417" on="0"/>
        <pt x="486" y="491" on="0"/>
        <pt x="524" y="560" on="0"/>
        <pt x="570" y="627" on="0"/>
        <pt x="608" y="695" on="0"/>
        <pt x="634" y="766" on="0"/>
        <pt x="634" y="805" on="1"/>
        <pt x="634" y="819" on="0"/>
        <pt x="629" y="852" on="0"/>
        <pt x="615" y="860" on="1"/>
        <pt x="569" y="860" on="1"/>
        <pt x="543" y="860" on="0"/>
        <pt x="485" y="853" on="0"/>
        <pt x="465" y="833" on="1"/>
        <pt x="457" y="825" on="0"/>
        <pt x="442" y="806" on="0"/>
        <pt x="434" y="798" on="1"/>
        <pt x="432" y="796" on="0"/>
        <pt x="424" y="787" on="0"/>
        <pt x="415" y="777" on="0"/>
        <pt x="406" y="769" on="0"/>
        <pt x="404" y="768" on="1"/>
        <pt x="400" y="766" on="0"/>
        <pt x="391" y="762" on="0"/>
        <pt x="387" y="760" on="1"/>
        <pt x="379" y="756" on="0"/>
        <pt x="363" y="749" on="0"/>
        <pt x="355" y="744" on="1"/>
        <pt x="334" y="730" on="0"/>
        <pt x="301" y="692" on="0"/>
        <pt x="270" y="652" on="0"/>
        <pt x="236" y="616" on="0"/>
        <pt x="213" y="604" on="1"/>
        <pt x="187" y="561" on="0"/>
        <pt x="124" y="466" on="0"/>
        <pt x="68" y="366" on="0"/>
        <pt x="30" y="262" on="0"/>
        <pt x="30" y="211" on="1"/>
        <pt x="30" y="190" on="0"/>
        <pt x="38" y="135" on="0"/>
        <pt x="58" y="83" on="0"/>
        <pt x="89" y="43" on="0"/>
        <pt x="113" y="37" on="1"/>
        <pt x="120" y="35" on="0"/>
        <pt x="135" y="36" on="0"/>
        <pt x="149" y="36" on="0"/>
        <pt x="162" y="34" on="0"/>
        <pt x="167" y="28" on="1"/>
        <pt x="222" y="28" on="1"/>
        <pt x="241" y="28" on="0"/>
        <pt x="273" y="34" on="0"/>
        <pt x="303" y="45" on="0"/>
        <pt x="333" y="58" on="0"/>
        <pt x="350" y="65" on="1"/>
        <pt x="360" y="68" on="0"/>
        <pt x="376" y="74" on="0"/>
        <pt x="385" y="77" on="1"/>
        <pt x="407" y="83" on="0"/>
        <pt x="449" y="91" on="0"/>
        <pt x="469" y="101" on="1"/>
        <pt x="493" y="113" on="0"/>
        <pt x="536" y="143" on="0"/>
        <pt x="560" y="156" on="1"/>
        <pt x="567" y="159" on="0"/>
        <pt x="588" y="161" on="0"/>
        <pt x="610" y="162" on="0"/>
        <pt x="629" y="164" on="0"/>
        <pt x="633" y="168" on="1"/>
        <pt x="642" y="177" on="0"/>
        <pt x="659" y="196" on="0"/>
        <pt x="669" y="205" on="1"/>
        <pt x="686" y="208" on="0"/>
        <pt x="716" y="228" on="0"/>
        <pt x="733" y="231" on="1"/>
        <pt x="738" y="233" on="0"/>
        <pt x="747" y="238" on="0"/>
        <pt x="752" y="241" on="1"/>
        <pt x="766" y="249" on="0"/>
        <pt x="792" y="267" on="0"/>
        <pt x="805" y="275" on="1"/>
        <pt x="869" y="318" on="0"/>
        <pt x="934" y="359" on="1"/>
        <pt x="943" y="359" on="1"/>
        <pt x="943" y="339" on="0"/>
        <pt x="900" y="288" on="0"/>
        <pt x="834" y="233" on="0"/>
        <pt x="753" y="178" on="0"/>
        <pt x="674" y="130" on="0"/>
        <pt x="607" y="93" on="0"/>
        <pt x="588" y="83" on="1"/>
        <pt x="567" y="72" on="0"/>
        <pt x="523" y="54" on="0"/>
        <pt x="503" y="42" on="1"/>
        <pt x="493" y="37" on="0"/>
        <pt x="477" y="24" on="0"/>
        <pt x="469" y="18" on="1"/>
        <pt x="452" y="6" on="0"/>
        <pt x="422" y="0" on="0"/>
        <pt x="399" y="-8" on="0"/>
        <pt x="387" y="-29" on="0"/>
        <pt x="387" y="-54" on="1"/>
        <pt x="361" y="-54" on="0"/>
        <pt x="311" y="-45" on="0"/>
        <pt x="286" y="-45" on="1"/>
        <pt x="271" y="-45" on="0"/>
        <pt x="242" y="-53" on="0"/>
        <pt x="215" y="-63" on="0"/>
        <pt x="187" y="-72" on="0"/>
        <pt x="172" y="-73" on="1"/>
        <pt x="163" y="-103" on="0"/>
        <pt x="140" y="-162" on="0"/>
        <pt x="130" y="-192" on="1"/>
        <pt x="157" y="-189" on="1"/>
        <pt x="157" y="-201" on="0"/>
        <pt x="167" y="-212" on="0"/>
        <pt x="185" y="-217" on="0"/>
        <pt x="207" y="-222" on="0"/>
        <pt x="218" y="-228" on="1"/>
        <pt x="222" y="-226" on="0"/>
        <pt x="235" y="-235" on="0"/>
        <pt x="248" y="-250" on="0"/>
        <pt x="260" y="-264" on="0"/>
        <pt x="263" y="-266" on="1"/>
        <pt x="276" y="-275" on="0"/>
        <pt x="287" y="-307" on="0"/>
        <pt x="287" y="-343" on="0"/>
        <pt x="277" y="-377" on="0"/>
        <pt x="267" y="-388" on="1"/>
        <pt x="254" y="-403" on="0"/>
        <pt x="206" y="-436" on="0"/>
        <pt x="150" y="-461" on="0"/>
        <pt x="92" y="-473" on="0"/>
        <pt x="70" y="-466" on="1"/>
        <pt x="47" y="-472" on="0"/>
        <pt x="-10" y="-470" on="0"/>
        <pt x="-68" y="-456" on="0"/>
        <pt x="-122" y="-432" on="0"/>
        <pt x="-143" y="-415" on="1"/>
        <pt x="-137" y="-404" on="0"/>
        <pt x="-130" y="-386" on="0"/>
        <pt x="-118" y="-381" on="1"/>
        <pt x="-108" y="-394" on="1"/>
        <pt x="-58" y="-366" on="1"/>
        <pt x="-53" y="-379" on="0"/>
        <pt x="-22" y="-386" on="0"/>
        <pt x="15" y="-385" on="0"/>
        <pt x="53" y="-382" on="0"/>
        <pt x="65" y="-385" on="1"/>
        <pt x="70" y="-377" on="0"/>
        <pt x="91" y="-381" on="0"/>
        <pt x="99" y="-384" on="1"/>
        <pt x="117" y="-391" on="0"/>
        <pt x="143" y="-389" on="0"/>
        <pt x="165" y="-380" on="0"/>
        <pt x="187" y="-367" on="0"/>
        <pt x="203" y="-361" on="1"/>
        <pt x="218" y="-345" on="0"/>
        <pt x="220" y="-319" on="0"/>
        <pt x="207" y="-300" on="0"/>
        <pt x="186" y="-286" on="0"/>
        <pt x="179" y="-281" on="1"/>
        <pt x="162" y="-280" on="0"/>
        <pt x="130" y="-275" on="0"/>
        <pt x="101" y="-263" on="0"/>
        <pt x="76" y="-244" on="0"/>
        <pt x="67" y="-228" on="1"/>
        <pt x="61" y="-222" on="0"/>
        <pt x="50" y="-209" on="0"/>
      </contour>
    </TTGlyph>
    <TTGlyph name="D" xMin="-236" yMin="-66" xMax="858" yMax="941">
      <contour>
        <pt x="858" y="222" on="1"/>
        <pt x="855" y="208" on="0"/>
        <pt x="835" y="192" on="0"/>
        <pt x="810" y="182" on="0"/>
        <pt x="783" y="173" on="0"/>
        <pt x="773" y="166" on="1"/>
        <pt x="755" y="172" on="0"/>
        <pt x="725" y="163" on="0"/>
        <pt x="697" y="154" on="0"/>
        <pt x="667" y="153" on="0"/>
        <pt x="651" y="167" on="1"/>
        <pt x="648" y="162" on="1"/>
        <pt x="639" y="146" on="0"/>
        <pt x="605" y="126" on="0"/>
        <pt x="590" y="118" on="1"/>
        <pt x="579" y="112" on="0"/>
        <pt x="553" y="92" on="0"/>
        <pt x="530" y="68" on="0"/>
        <pt x="515" y="42" on="0"/>
        <pt x="515" y="29" on="1"/>
        <pt x="515" y="25" on="1"/>
        <pt x="486" y="11" on="0"/>
        <pt x="437" y="-32" on="0"/>
        <pt x="409" y="-47" on="1"/>
        <pt x="408" y="-47" on="1"/>
        <pt x="408" y="-48" on="1"/>
        <pt x="400" y="-57" on="0"/>
        <pt x="384" y="-62" on="0"/>
        <pt x="367" y="-62" on="0"/>
        <pt x="350" y="-62" on="0"/>
        <pt x="341" y="-66" on="1"/>
        <pt x="333" y="-54" on="0"/>
        <pt x="312" y="-45" on="0"/>
        <pt x="287" y="-42" on="0"/>
        <pt x="262" y="-42" on="0"/>
        <pt x="250" y="-39" on="1"/>
        <pt x="202" y="-28" on="0"/>
        <pt x="141" y="25" on="0"/>
        <pt x="112" y="63" on="1"/>
        <pt x="118" y="101" on="0"/>
        <pt x="86" y="170" on="0"/>
        <pt x="65" y="199" on="1"/>
        <pt x="48" y="185" on="0"/>
        <pt x="20" y="160" on="0"/>
        <pt x="-6" y="136" on="0"/>
        <pt x="-32" y="110" on="0"/>
        <pt x="-47" y="95" on="1"/>
        <pt x="-49" y="93" on="1"/>
        <pt x="-44" y="78" on="0"/>
        <pt x="-53" y="61" on="0"/>
        <pt x="-72" y="48" on="0"/>
        <pt x="-94" y="37" on="0"/>
        <pt x="-101" y="28" on="1"/>
        <pt x="-106" y="36" on="1"/>
        <pt x="-120" y="25" on="0"/>
        <pt x="-135" y="-5" on="0"/>
        <pt x="-151" y="-35" on="0"/>
        <pt x="-173" y="-58" on="0"/>
        <pt x="-192" y="-61" on="1"/>
        <pt x="-196" y="-55" on="0"/>
        <pt x="-208" y="-50" on="0"/>
        <pt x="-220" y="-48" on="0"/>
        <pt x="-231" y="-46" on="0"/>
        <pt x="-234" y="-43" on="1"/>
        <pt x="-235" y="-41" on="0"/>
        <pt x="-236" y="-35" on="0"/>
        <pt x="-235" y="-33" on="1"/>
        <pt x="-234" y="-6" on="0"/>
        <pt x="-206" y="42" on="0"/>
        <pt x="-190" y="62" on="1"/>
        <pt x="-177" y="80" on="0"/>
        <pt x="-156" y="116" on="0"/>
        <pt x="-149" y="137" on="1"/>
        <pt x="-128" y="152" on="0"/>
        <pt x="-91" y="193" on="0"/>
        <pt x="-52" y="232" on="0"/>
        <pt x="-8" y="261" on="0"/>
        <pt x="19" y="264" on="1"/>
        <pt x="23" y="264" on="1"/>
        <pt x="26" y="276" on="0"/>
        <pt x="47" y="294" on="0"/>
        <pt x="75" y="310" on="0"/>
        <pt x="104" y="328" on="0"/>
        <pt x="124" y="352" on="0"/>
        <pt x="130" y="384" on="0"/>
        <pt x="121" y="407" on="1"/>
        <pt x="120" y="408" on="1"/>
        <pt x="120" y="409" on="1"/>
        <pt x="102" y="436" on="0"/>
        <pt x="90" y="498" on="0"/>
        <pt x="94" y="562" on="0"/>
        <pt x="106" y="626" on="0"/>
        <pt x="112" y="656" on="1"/>
        <pt x="114" y="670" on="0"/>
        <pt x="119" y="696" on="0"/>
        <pt x="122" y="710" on="1"/>
        <pt x="124" y="719" on="0"/>
        <pt x="128" y="736" on="0"/>
        <pt x="129" y="745" on="1"/>
        <pt x="143" y="752" on="0"/>
        <pt x="158" y="774" on="0"/>
        <pt x="168" y="800" on="0"/>
        <pt x="177" y="826" on="0"/>
        <pt x="189" y="847" on="0"/>
        <pt x="210" y="860" on="0"/>
        <pt x="228" y="860" on="1"/>
        <pt x="228" y="861" on="1"/>
        <pt x="266" y="899" on="0"/>
        <pt x="358" y="941" on="0"/>
        <pt x="413" y="935" on="1"/>
        <pt x="414" y="935" on="1"/>
        <pt x="437" y="935" on="0"/>
        <pt x="482" y="909" on="0"/>
        <pt x="502" y="899" on="1"/>
        <pt x="510" y="904" on="1"/>
        <pt x="516" y="895" on="1"/>
        <pt x="526" y="901" on="1"/>
        <pt x="544" y="874" on="0"/>
        <pt x="587" y="820" on="0"/>
        <pt x="626" y="763" on="0"/>
        <pt x="652" y="702" on="0"/>
        <pt x="652" y="668" on="1"/>
        <pt x="652" y="665" on="0"/>
        <pt x="650" y="650" on="0"/>
        <pt x="648" y="636" on="0"/>
        <pt x="646" y="624" on="0"/>
        <pt x="646" y="624" on="1"/>
        <pt x="664" y="597" on="1"/>
        <pt x="665" y="598" on="1"/>
        <pt x="663" y="586" on="0"/>
        <pt x="662" y="559" on="0"/>
        <pt x="662" y="531" on="0"/>
        <pt x="659" y="505" on="0"/>
        <pt x="655" y="496" on="1"/>
        <pt x="654" y="496" on="1"/>
        <pt x="652" y="484" on="1"/>
        <pt x="651" y="479" on="0"/>
        <pt x="651" y="472" on="0"/>
        <pt x="651" y="470" on="1"/>
        <pt x="651" y="453" on="0"/>
        <pt x="657" y="425" on="0"/>
        <pt x="659" y="399" on="0"/>
        <pt x="654" y="372" on="0"/>
        <pt x="642" y="357" on="1"/>
        <pt x="650" y="351" on="0"/>
        <pt x="646" y="339" on="0"/>
        <pt x="638" y="325" on="0"/>
        <pt x="633" y="308" on="0"/>
        <pt x="639" y="298" on="1"/>
        <pt x="631" y="291" on="0"/>
        <pt x="628" y="272" on="0"/>
        <pt x="630" y="250" on="0"/>
        <pt x="634" y="227" on="0"/>
        <pt x="634" y="217" on="1"/>
        <pt x="662" y="210" on="0"/>
        <pt x="718" y="209" on="0"/>
        <pt x="774" y="214" on="0"/>
        <pt x="830" y="221" on="0"/>
      </contour>
      <contour>
        <pt x="606" y="466" on="1"/>
        <pt x="594" y="486" on="0"/>
        <pt x="590" y="521" on="0"/>
        <pt x="592" y="553" on="0"/>
        <pt x="593" y="585" on="0"/>
        <pt x="585" y="603" on="1"/>
        <pt x="591" y="606" on="0"/>
        <pt x="602" y="613" on="0"/>
        <pt x="607" y="617" on="1"/>
        <pt x="592" y="633" on="0"/>
        <pt x="581" y="659" on="0"/>
        <pt x="578" y="680" on="1"/>
        <pt x="576" y="688" on="0"/>
        <pt x="572" y="704" on="0"/>
        <pt x="570" y="713" on="1"/>
        <pt x="569" y="720" on="0"/>
        <pt x="567" y="732" on="0"/>
        <pt x="565" y="738" on="1"/>
        <pt x="554" y="769" on="0"/>
        <pt x="509" y="810" on="0"/>
        <pt x="483" y="827" on="1"/>
        <pt x="467" y="839" on="0"/>
        <pt x="437" y="860" on="0"/>
        <pt x="426" y="877" on="1"/>
        <pt x="425" y="875" on="0"/>
        <pt x="407" y="863" on="0"/>
        <pt x="386" y="849" on="0"/>
        <pt x="368" y="837" on="0"/>
        <pt x="365" y="836" on="1"/>
        <pt x="354" y="841" on="0"/>
        <pt x="334" y="838" on="0"/>
        <pt x="316" y="832" on="0"/>
        <pt x="302" y="827" on="0"/>
        <pt x="299" y="830" on="1"/>
        <pt x="298" y="830" on="1"/>
        <pt x="297" y="831" on="1"/>
        <pt x="285" y="835" on="0"/>
        <pt x="275" y="827" on="0"/>
        <pt x="270" y="813" on="0"/>
        <pt x="265" y="802" on="0"/>
        <pt x="259" y="803" on="1"/>
        <pt x="259" y="802" on="0"/>
        <pt x="258" y="800" on="0"/>
        <pt x="258" y="799" on="1"/>
        <pt x="255" y="778" on="0"/>
        <pt x="248" y="749" on="0"/>
        <pt x="239" y="724" on="0"/>
        <pt x="224" y="699" on="0"/>
        <pt x="213" y="681" on="1"/>
        <pt x="203" y="664" on="0"/>
        <pt x="186" y="636" on="0"/>
        <pt x="174" y="607" on="0"/>
        <pt x="167" y="575" on="0"/>
        <pt x="167" y="555" on="1"/>
        <pt x="181" y="531" on="0"/>
        <pt x="179" y="489" on="0"/>
        <pt x="173" y="463" on="1"/>
        <pt x="173" y="462" on="1"/>
        <pt x="181" y="457" on="1"/>
        <pt x="201" y="476" on="0"/>
        <pt x="232" y="522" on="0"/>
        <pt x="260" y="568" on="0"/>
        <pt x="290" y="611" on="0"/>
        <pt x="308" y="627" on="1"/>
        <pt x="335" y="608" on="0"/>
        <pt x="345" y="568" on="0"/>
        <pt x="327" y="526" on="0"/>
        <pt x="292" y="481" on="0"/>
        <pt x="256" y="433" on="0"/>
        <pt x="229" y="381" on="0"/>
        <pt x="229" y="353" on="1"/>
        <pt x="230" y="352" on="1"/>
        <pt x="268" y="307" on="0"/>
        <pt x="360" y="267" on="0"/>
        <pt x="415" y="253" on="1"/>
        <pt x="435" y="266" on="1"/>
        <pt x="448" y="267" on="0"/>
        <pt x="470" y="246" on="0"/>
        <pt x="480" y="239" on="1"/>
        <pt x="487" y="244" on="0"/>
        <pt x="511" y="250" on="0"/>
        <pt x="536" y="254" on="0"/>
        <pt x="561" y="258" on="0"/>
        <pt x="570" y="260" on="1"/>
        <pt x="562" y="271" on="1"/>
        <pt x="573" y="280" on="1"/>
        <pt x="570" y="282" on="0"/>
        <pt x="563" y="288" on="0"/>
        <pt x="563" y="292" on="1"/>
        <pt x="566" y="298" on="0"/>
        <pt x="574" y="306" on="0"/>
        <pt x="578" y="314" on="0"/>
        <pt x="578" y="323" on="0"/>
        <pt x="574" y="331" on="1"/>
        <pt x="589" y="346" on="0"/>
        <pt x="588" y="381" on="0"/>
        <pt x="583" y="416" on="0"/>
        <pt x="588" y="449" on="0"/>
        <pt x="609" y="461" on="1"/>
      </contour>
      <contour>
        <pt x="506" y="128" on="1"/>
        <pt x="497" y="155" on="0"/>
        <pt x="465" y="172" on="0"/>
        <pt x="425" y="172" on="0"/>
        <pt x="382" y="166" on="0"/>
        <pt x="364" y="171" on="1"/>
        <pt x="357" y="181" on="0"/>
        <pt x="339" y="185" on="0"/>
        <pt x="321" y="183" on="0"/>
        <pt x="305" y="181" on="0"/>
        <pt x="300" y="184" on="1"/>
        <pt x="295" y="188" on="0"/>
        <pt x="296" y="197" on="0"/>
        <pt x="294" y="201" on="1"/>
        <pt x="292" y="203" on="1"/>
        <pt x="287" y="205" on="0"/>
        <pt x="277" y="205" on="0"/>
        <pt x="268" y="206" on="0"/>
        <pt x="263" y="212" on="0"/>
        <pt x="262" y="219" on="1"/>
        <pt x="241" y="212" on="0"/>
        <pt x="210" y="221" on="0"/>
        <pt x="186" y="244" on="0"/>
        <pt x="166" y="275" on="0"/>
        <pt x="157" y="289" on="1"/>
        <pt x="156" y="290" on="1"/>
        <pt x="155" y="289" on="1"/>
        <pt x="146" y="287" on="1"/>
        <pt x="146" y="285" on="1"/>
        <pt x="149" y="261" on="0"/>
        <pt x="158" y="201" on="0"/>
        <pt x="172" y="139" on="0"/>
        <pt x="192" y="83" on="0"/>
        <pt x="206" y="63" on="1"/>
        <pt x="206" y="63" on="0"/>
        <pt x="208" y="61" on="1"/>
        <pt x="215" y="63" on="0"/>
        <pt x="234" y="49" on="0"/>
        <pt x="256" y="35" on="0"/>
        <pt x="281" y="31" on="0"/>
        <pt x="294" y="43" on="1"/>
        <pt x="304" y="33" on="0"/>
        <pt x="316" y="19" on="0"/>
        <pt x="333" y="19" on="1"/>
        <pt x="334" y="19" on="1"/>
        <pt x="361" y="30" on="0"/>
        <pt x="405" y="51" on="0"/>
        <pt x="445" y="75" on="0"/>
        <pt x="483" y="105" on="0"/>
        <pt x="504" y="126" on="1"/>
      </contour>
    </TTGlyph>
    <TTGlyph name="E" xMin="-32" yMin="-56" xMax="711" yMax="942">
      <contour>
        <pt x="710" y="223" on="1"/>
        <pt x="711" y="220" on="0"/>
        <pt x="704" y="208" on="0"/>
        <pt x="693" y="196" on="0"/>
        <pt x="683" y="186" on="0"/>
        <pt x="680" y="185" on="1"/>
        <pt x="675" y="183" on="0"/>
        <pt x="667" y="176" on="0"/>
        <pt x="665" y="171" on="1"/>
        <pt x="654" y="139" on="0"/>
        <pt x="620" y="131" on="1"/>
        <pt x="614" y="130" on="0"/>
        <pt x="608" y="122" on="0"/>
        <pt x="602" y="112" on="0"/>
        <pt x="596" y="103" on="0"/>
        <pt x="591" y="100" on="1"/>
        <pt x="577" y="93" on="0"/>
        <pt x="542" y="92" on="0"/>
        <pt x="530" y="81" on="1"/>
        <pt x="521" y="73" on="0"/>
        <pt x="512" y="50" on="0"/>
        <pt x="502" y="44" on="1"/>
        <pt x="492" y="38" on="0"/>
        <pt x="468" y="42" on="0"/>
        <pt x="458" y="35" on="1"/>
        <pt x="454" y="33" on="0"/>
        <pt x="446" y="23" on="0"/>
        <pt x="444" y="18" on="1"/>
        <pt x="441" y="14" on="0"/>
        <pt x="430" y="9" on="0"/>
        <pt x="425" y="9" on="1"/>
        <pt x="413" y="10" on="0"/>
        <pt x="391" y="0" on="0"/>
        <pt x="380" y="-2" on="1"/>
        <pt x="367" y="-4" on="1"/>
        <pt x="366" y="-6" on="1"/>
        <pt x="350" y="-9" on="0"/>
        <pt x="321" y="-21" on="0"/>
        <pt x="306" y="-24" on="1"/>
        <pt x="293" y="-26" on="0"/>
        <pt x="269" y="-30" on="0"/>
        <pt x="255" y="-34" on="1"/>
        <pt x="244" y="-37" on="0"/>
        <pt x="222" y="-51" on="0"/>
        <pt x="210" y="-52" on="1"/>
        <pt x="199" y="-53" on="0"/>
        <pt x="176" y="-49" on="0"/>
        <pt x="165" y="-45" on="1"/>
        <pt x="160" y="-43" on="0"/>
        <pt x="150" y="-47" on="0"/>
        <pt x="140" y="-52" on="0"/>
        <pt x="129" y="-56" on="0"/>
        <pt x="123" y="-54" on="1"/>
        <pt x="114" y="-51" on="0"/>
        <pt x="103" y="-46" on="1"/>
        <pt x="98" y="-44" on="0"/>
        <pt x="86" y="-40" on="0"/>
        <pt x="81" y="-40" on="1"/>
        <pt x="77" y="-40" on="0"/>
        <pt x="60" y="-34" on="0"/>
        <pt x="42" y="-25" on="0"/>
        <pt x="27" y="-15" on="0"/>
        <pt x="25" y="-11" on="1"/>
        <pt x="19" y="-2" on="0"/>
        <pt x="4" y="11" on="0"/>
        <pt x="-1" y="22" on="1"/>
        <pt x="-2" y="24" on="0"/>
        <pt x="-9" y="32" on="0"/>
        <pt x="-11" y="32" on="1"/>
        <pt x="-13" y="32" on="0"/>
        <pt x="-15" y="40" on="0"/>
        <pt x="-17" y="51" on="0"/>
        <pt x="-18" y="60" on="0"/>
        <pt x="-18" y="60" on="1"/>
        <pt x="-20" y="68" on="0"/>
        <pt x="-23" y="87" on="0"/>
        <pt x="-23" y="95" on="1"/>
        <pt x="-23" y="107" on="0"/>
        <pt x="-23" y="123" on="0"/>
        <pt x="-29" y="133" on="1"/>
        <pt x="-32" y="137" on="0"/>
        <pt x="-28" y="147" on="0"/>
        <pt x="-25" y="151" on="1"/>
        <pt x="-20" y="156" on="0"/>
        <pt x="-17" y="166" on="0"/>
        <pt x="-16" y="176" on="0"/>
        <pt x="-14" y="185" on="0"/>
        <pt x="-8" y="189" on="1"/>
        <pt x="-3" y="193" on="0"/>
        <pt x="1" y="206" on="0"/>
        <pt x="0" y="211" on="1"/>
        <pt x="0" y="222" on="0"/>
        <pt x="22" y="235" on="0"/>
        <pt x="28" y="243" on="1"/>
        <pt x="34" y="251" on="0"/>
        <pt x="41" y="273" on="0"/>
        <pt x="45" y="283" on="1"/>
        <pt x="48" y="290" on="0"/>
        <pt x="65" y="301" on="0"/>
        <pt x="83" y="312" on="0"/>
        <pt x="99" y="328" on="0"/>
        <pt x="102" y="341" on="1"/>
        <pt x="103" y="343" on="0"/>
        <pt x="99" y="352" on="0"/>
        <pt x="96" y="354" on="1"/>
        <pt x="93" y="356" on="0"/>
        <pt x="85" y="361" on="0"/>
        <pt x="82" y="362" on="1"/>
        <pt x="73" y="367" on="0"/>
        <pt x="64" y="384" on="0"/>
        <pt x="56" y="390" on="1"/>
        <pt x="48" y="396" on="0"/>
        <pt x="28" y="404" on="0"/>
        <pt x="26" y="415" on="1"/>
        <pt x="24" y="422" on="0"/>
        <pt x="16" y="439" on="0"/>
        <pt x="16" y="444" on="1"/>
        <pt x="16" y="452" on="0"/>
        <pt x="14" y="465" on="0"/>
        <pt x="14" y="472" on="1"/>
        <pt x="12" y="485" on="0"/>
        <pt x="22" y="507" on="0"/>
        <pt x="17" y="521" on="1"/>
        <pt x="20" y="536" on="0"/>
        <pt x="29" y="580" on="0"/>
        <pt x="37" y="593" on="1"/>
        <pt x="39" y="597" on="0"/>
        <pt x="48" y="607" on="0"/>
        <pt x="52" y="609" on="1"/>
        <pt x="62" y="615" on="0"/>
        <pt x="67" y="626" on="1"/>
        <pt x="72" y="635" on="0"/>
        <pt x="80" y="641" on="1"/>
        <pt x="88" y="646" on="0"/>
        <pt x="99" y="671" on="0"/>
        <pt x="101" y="680" on="1"/>
        <pt x="104" y="692" on="0"/>
        <pt x="115" y="696" on="1"/>
        <pt x="121" y="698" on="0"/>
        <pt x="126" y="708" on="0"/>
        <pt x="130" y="717" on="0"/>
        <pt x="134" y="725" on="0"/>
        <pt x="137" y="726" on="1"/>
        <pt x="143" y="728" on="0"/>
        <pt x="142" y="732" on="1"/>
        <pt x="146" y="735" on="0"/>
        <pt x="154" y="735" on="1"/>
        <pt x="158" y="735" on="0"/>
        <pt x="178" y="746" on="0"/>
        <pt x="183" y="749" on="1"/>
        <pt x="191" y="755" on="1"/>
        <pt x="200" y="762" on="0"/>
        <pt x="208" y="782" on="0"/>
        <pt x="218" y="788" on="1"/>
        <pt x="228" y="794" on="0"/>
        <pt x="246" y="805" on="0"/>
        <pt x="254" y="812" on="1"/>
        <pt x="259" y="816" on="0"/>
        <pt x="269" y="822" on="0"/>
        <pt x="274" y="825" on="1"/>
        <pt x="289" y="835" on="0"/>
        <pt x="321" y="844" on="0"/>
        <pt x="338" y="849" on="1"/>
        <pt x="345" y="851" on="0"/>
        <pt x="356" y="871" on="0"/>
        <pt x="370" y="873" on="1"/>
        <pt x="375" y="874" on="0"/>
        <pt x="383" y="874" on="0"/>
        <pt x="388" y="874" on="1"/>
        <pt x="392" y="874" on="0"/>
        <pt x="398" y="881" on="0"/>
        <pt x="401" y="890" on="0"/>
        <pt x="404" y="899" on="0"/>
        <pt x="406" y="900" on="1"/>
        <pt x="407" y="901" on="0"/>
        <pt x="408" y="901" on="0"/>
        <pt x="409" y="902" on="1"/>
        <pt x="424" y="905" on="0"/>
        <pt x="443" y="908" on="0"/>
        <pt x="457" y="918" on="1"/>
        <pt x="467" y="924" on="0"/>
        <pt x="487" y="920" on="0"/>
        <pt x="497" y="930" on="1"/>
        <pt x="506" y="939" on="0"/>
        <pt x="515" y="936" on="1"/>
        <pt x="523" y="934" on="0"/>
        <pt x="559" y="940" on="0"/>
        <pt x="568" y="942" on="1"/>
        <pt x="576" y="940" on="0"/>
        <pt x="591" y="940" on="0"/>
        <pt x="599" y="937" on="1"/>
        <pt x="616" y="930" on="0"/>
        <pt x="628" y="929" on="1"/>
        <pt x="633" y="928" on="0"/>
        <pt x="644" y="928" on="0"/>
        <pt x="649" y="927" on="1"/>
        <pt x="655" y="922" on="0"/>
        <pt x="662" y="919" on="0"/>
        <pt x="667" y="915" on="0"/>
        <pt x="672" y="909" on="0"/>
        <pt x="676" y="902" on="1"/>
        <pt x="677" y="900" on="0"/>
        <pt x="684" y="893" on="0"/>
        <pt x="692" y="886" on="0"/>
        <pt x="696" y="880" on="0"/>
        <pt x="693" y="880" on="1"/>
        <pt x="691" y="879" on="0"/>
        <pt x="692" y="868" on="0"/>
        <pt x="694" y="855" on="0"/>
        <pt x="697" y="844" on="0"/>
        <pt x="697" y="842" on="1"/>
        <pt x="698" y="837" on="0"/>
        <pt x="695" y="823" on="0"/>
        <pt x="693" y="819" on="1"/>
        <pt x="687" y="807" on="0"/>
        <pt x="686" y="781" on="0"/>
        <pt x="681" y="768" on="1"/>
        <pt x="679" y="761" on="0"/>
        <pt x="668" y="747" on="0"/>
        <pt x="665" y="740" on="1"/>
        <pt x="660" y="732" on="0"/>
        <pt x="657" y="714" on="0"/>
        <pt x="654" y="705" on="1"/>
        <pt x="653" y="702" on="0"/>
        <pt x="655" y="693" on="0"/>
        <pt x="653" y="693" on="1"/>
        <pt x="650" y="691" on="0"/>
        <pt x="645" y="690" on="0"/>
        <pt x="643" y="688" on="1"/>
        <pt x="641" y="686" on="0"/>
        <pt x="643" y="661" on="0"/>
        <pt x="641" y="654" on="1"/>
        <pt x="638" y="647" on="0"/>
        <pt x="628" y="635" on="0"/>
        <pt x="619" y="623" on="0"/>
        <pt x="614" y="609" on="0"/>
        <pt x="617" y="601" on="1"/>
        <pt x="618" y="597" on="0"/>
        <pt x="612" y="591" on="0"/>
        <pt x="602" y="587" on="0"/>
        <pt x="592" y="584" on="0"/>
        <pt x="589" y="583" on="1"/>
        <pt x="585" y="581" on="0"/>
        <pt x="574" y="571" on="0"/>
        <pt x="563" y="558" on="0"/>
        <pt x="553" y="546" on="0"/>
        <pt x="550" y="543" on="1"/>
        <pt x="544" y="535" on="0"/>
        <pt x="523" y="531" on="0"/>
        <pt x="515" y="525" on="1"/>
        <pt x="507" y="519" on="0"/>
        <pt x="497" y="517" on="1"/>
        <pt x="492" y="516" on="0"/>
        <pt x="481" y="520" on="0"/>
        <pt x="476" y="523" on="1"/>
        <pt x="468" y="529" on="0"/>
        <pt x="464" y="536" on="1"/>
        <pt x="461" y="540" on="0"/>
        <pt x="460" y="556" on="0"/>
        <pt x="463" y="574" on="0"/>
        <pt x="466" y="590" on="0"/>
        <pt x="468" y="595" on="1"/>
        <pt x="470" y="603" on="0"/>
        <pt x="470" y="629" on="0"/>
        <pt x="470" y="637" on="1"/>
        <pt x="470" y="642" on="0"/>
        <pt x="476" y="650" on="0"/>
        <pt x="484" y="659" on="0"/>
        <pt x="492" y="669" on="0"/>
        <pt x="493" y="677" on="1"/>
        <pt x="494" y="682" on="0"/>
        <pt x="504" y="688" on="0"/>
        <pt x="509" y="689" on="1"/>
        <pt x="515" y="690" on="0"/>
        <pt x="527" y="693" on="0"/>
        <pt x="532" y="698" on="1"/>
        <pt x="540" y="706" on="0"/>
        <pt x="544" y="727" on="0"/>
        <pt x="553" y="735" on="1"/>
        <pt x="561" y="743" on="0"/>
        <pt x="582" y="748" on="0"/>
        <pt x="590" y="756" on="1"/>
        <pt x="601" y="767" on="0"/>
        <pt x="621" y="790" on="0"/>
        <pt x="620" y="807" on="1"/>
        <pt x="620" y="812" on="0"/>
        <pt x="620" y="822" on="0"/>
        <pt x="622" y="827" on="1"/>
        <pt x="622" y="828" on="0"/>
        <pt x="626" y="838" on="0"/>
        <pt x="629" y="849" on="0"/>
        <pt x="628" y="857" on="0"/>
        <pt x="625" y="857" on="1"/>
        <pt x="617" y="865" on="0"/>
        <pt x="596" y="872" on="0"/>
        <pt x="591" y="879" on="1"/>
        <pt x="589" y="882" on="0"/>
        <pt x="584" y="884" on="1"/>
        <pt x="576" y="880" on="0"/>
        <pt x="575" y="871" on="0"/>
        <pt x="570" y="866" on="1"/>
        <pt x="565" y="861" on="0"/>
        <pt x="559" y="863" on="1"/>
        <pt x="554" y="865" on="0"/>
        <pt x="529" y="857" on="0"/>
        <pt x="521" y="855" on="1"/>
        <pt x="513" y="853" on="0"/>
        <pt x="501" y="854" on="0"/>
        <pt x="488" y="855" on="0"/>
        <pt x="474" y="853" on="0"/>
        <pt x="466" y="847" on="1"/>
        <pt x="459" y="841" on="0"/>
        <pt x="453" y="834" on="1"/>
        <pt x="447" y="826" on="0"/>
        <pt x="429" y="817" on="0"/>
        <pt x="422" y="810" on="1"/>
        <pt x="418" y="806" on="0"/>
        <pt x="408" y="805" on="0"/>
        <pt x="398" y="806" on="0"/>
        <pt x="387" y="805" on="0"/>
        <pt x="383" y="800" on="1"/>
        <pt x="380" y="797" on="0"/>
        <pt x="366" y="787" on="0"/>
        <pt x="350" y="778" on="0"/>
        <pt x="334" y="769" on="0"/>
        <pt x="330" y="768" on="1"/>
        <pt x="319" y="764" on="0"/>
        <pt x="305" y="746" on="0"/>
        <pt x="299" y="744" on="1"/>
        <pt x="293" y="742" on="0"/>
        <pt x="291" y="740" on="1"/>
        <pt x="288" y="738" on="0"/>
        <pt x="266" y="737" on="0"/>
        <pt x="258" y="731" on="1"/>
        <pt x="255" y="729" on="0"/>
        <pt x="249" y="719" on="0"/>
        <pt x="247" y="716" on="1"/>
        <pt x="239" y="697" on="0"/>
        <pt x="210" y="666" on="0"/>
        <pt x="190" y="660" on="1"/>
        <pt x="182" y="658" on="0"/>
        <pt x="173" y="647" on="0"/>
        <pt x="167" y="632" on="0"/>
        <pt x="161" y="617" on="0"/>
        <pt x="156" y="611" on="1"/>
        <pt x="142" y="597" on="1"/>
        <pt x="134" y="589" on="0"/>
        <pt x="127" y="573" on="0"/>
        <pt x="122" y="563" on="1"/>
        <pt x="117" y="553" on="0"/>
        <pt x="106" y="537" on="0"/>
        <pt x="99" y="528" on="1"/>
        <pt x="95" y="524" on="0"/>
        <pt x="90" y="514" on="0"/>
        <pt x="88" y="509" on="1"/>
        <pt x="86" y="504" on="0"/>
        <pt x="87" y="494" on="0"/>
        <pt x="87" y="488" on="1"/>
        <pt x="87" y="463" on="0"/>
        <pt x="97" y="431" on="0"/>
        <pt x="126" y="426" on="1"/>
        <pt x="137" y="424" on="0"/>
        <pt x="154" y="408" on="0"/>
        <pt x="166" y="408" on="1"/>
        <pt x="177" y="408" on="0"/>
        <pt x="187" y="403" on="1"/>
        <pt x="191" y="402" on="0"/>
        <pt x="203" y="405" on="0"/>
        <pt x="206" y="409" on="1"/>
        <pt x="213" y="416" on="0"/>
        <pt x="229" y="426" on="0"/>
        <pt x="237" y="432" on="1"/>
        <pt x="244" y="437" on="0"/>
        <pt x="266" y="435" on="0"/>
        <pt x="276" y="442" on="1"/>
        <pt x="284" y="448" on="0"/>
        <pt x="292" y="446" on="1"/>
        <pt x="306" y="446" on="0"/>
        <pt x="333" y="454" on="0"/>
        <pt x="342" y="453" on="1"/>
        <pt x="351" y="451" on="0"/>
        <pt x="356" y="438" on="0"/>
        <pt x="356" y="422" on="0"/>
        <pt x="351" y="405" on="0"/>
        <pt x="349" y="399" on="1"/>
        <pt x="348" y="397" on="0"/>
        <pt x="353" y="395" on="0"/>
        <pt x="355" y="395" on="1"/>
        <pt x="356" y="395" on="0"/>
        <pt x="359" y="393" on="0"/>
        <pt x="357" y="392" on="1"/>
        <pt x="357" y="390" on="0"/>
        <pt x="355" y="389" on="0"/>
        <pt x="354" y="387" on="1"/>
        <pt x="346" y="377" on="0"/>
        <pt x="336" y="369" on="0"/>
        <pt x="326" y="364" on="0"/>
        <pt x="315" y="360" on="0"/>
        <pt x="307" y="354" on="1"/>
        <pt x="302" y="351" on="0"/>
        <pt x="293" y="346" on="0"/>
        <pt x="288" y="344" on="1"/>
        <pt x="282" y="342" on="0"/>
        <pt x="271" y="345" on="0"/>
        <pt x="259" y="349" on="0"/>
        <pt x="248" y="352" on="0"/>
        <pt x="243" y="350" on="1"/>
        <pt x="240" y="349" on="0"/>
        <pt x="230" y="341" on="0"/>
        <pt x="228" y="339" on="1"/>
        <pt x="217" y="332" on="0"/>
        <pt x="209" y="332" on="1"/>
        <pt x="204" y="332" on="0"/>
        <pt x="195" y="324" on="0"/>
        <pt x="193" y="319" on="1"/>
        <pt x="190" y="314" on="0"/>
        <pt x="181" y="310" on="0"/>
        <pt x="172" y="307" on="0"/>
        <pt x="164" y="301" on="0"/>
        <pt x="161" y="294" on="1"/>
        <pt x="156" y="280" on="0"/>
        <pt x="135" y="254" on="0"/>
        <pt x="123" y="246" on="1"/>
        <pt x="115" y="241" on="0"/>
        <pt x="90" y="229" on="0"/>
        <pt x="85" y="222" on="1"/>
        <pt x="80" y="214" on="0"/>
        <pt x="82" y="190" on="0"/>
        <pt x="76" y="179" on="1"/>
        <pt x="72" y="171" on="0"/>
        <pt x="63" y="162" on="1"/>
        <pt x="58" y="157" on="0"/>
        <pt x="57" y="148" on="0"/>
        <pt x="57" y="138" on="0"/>
        <pt x="56" y="128" on="0"/>
        <pt x="51" y="123" on="1"/>
        <pt x="46" y="117" on="0"/>
        <pt x="57" y="105" on="0"/>
        <pt x="60" y="98" on="1"/>
        <pt x="63" y="88" on="0"/>
        <pt x="61" y="76" on="1"/>
        <pt x="60" y="71" on="0"/>
        <pt x="68" y="57" on="0"/>
        <pt x="81" y="45" on="0"/>
        <pt x="95" y="37" on="0"/>
        <pt x="101" y="39" on="1"/>
        <pt x="106" y="41" on="0"/>
        <pt x="113" y="33" on="0"/>
        <pt x="115" y="30" on="1"/>
        <pt x="121" y="19" on="0"/>
        <pt x="140" y="20" on="0"/>
        <pt x="151" y="23" on="1"/>
        <pt x="161" y="25" on="0"/>
        <pt x="181" y="14" on="0"/>
        <pt x="192" y="14" on="1"/>
        <pt x="196" y="14" on="0"/>
        <pt x="204" y="15" on="0"/>
        <pt x="208" y="15" on="1"/>
        <pt x="214" y="15" on="0"/>
        <pt x="217" y="16" on="1"/>
        <pt x="228" y="16" on="0"/>
        <pt x="243" y="26" on="0"/>
        <pt x="249" y="33" on="1"/>
        <pt x="253" y="37" on="0"/>
        <pt x="264" y="38" on="0"/>
        <pt x="275" y="38" on="0"/>
        <pt x="286" y="39" on="0"/>
        <pt x="290" y="44" on="1"/>
        <pt x="294" y="49" on="0"/>
        <pt x="303" y="49" on="0"/>
        <pt x="308" y="47" on="1"/>
        <pt x="314" y="45" on="0"/>
        <pt x="324" y="50" on="0"/>
        <pt x="332" y="56" on="0"/>
        <pt x="342" y="61" on="0"/>
        <pt x="348" y="60" on="1"/>
        <pt x="361" y="58" on="0"/>
        <pt x="368" y="69" on="1"/>
        <pt x="374" y="78" on="0"/>
        <pt x="396" y="79" on="0"/>
        <pt x="405" y="86" on="1"/>
        <pt x="413" y="92" on="0"/>
        <pt x="419" y="100" on="1"/>
        <pt x="423" y="105" on="0"/>
        <pt x="435" y="107" on="0"/>
        <pt x="441" y="105" on="1"/>
        <pt x="446" y="104" on="0"/>
        <pt x="460" y="105" on="0"/>
        <pt x="464" y="109" on="1"/>
        <pt x="472" y="116" on="0"/>
        <pt x="485" y="131" on="0"/>
        <pt x="496" y="135" on="1"/>
        <pt x="507" y="140" on="0"/>
        <pt x="521" y="146" on="0"/>
        <pt x="529" y="157" on="1"/>
        <pt x="535" y="167" on="0"/>
        <pt x="548" y="163" on="1"/>
        <pt x="553" y="161" on="0"/>
        <pt x="562" y="166" on="0"/>
        <pt x="569" y="172" on="0"/>
        <pt x="577" y="179" on="0"/>
        <pt x="582" y="180" on="1"/>
        <pt x="598" y="184" on="0"/>
        <pt x="605" y="199" on="1"/>
        <pt x="618" y="200" on="0"/>
        <pt x="630" y="209" on="0"/>
        <pt x="638" y="209" on="1"/>
        <pt x="641" y="209" on="0"/>
        <pt x="653" y="215" on="0"/>
        <pt x="665" y="223" on="0"/>
        <pt x="676" y="230" on="0"/>
        <pt x="678" y="230" on="1"/>
        <pt x="683" y="231" on="0"/>
        <pt x="692" y="231" on="0"/>
        <pt x="697" y="233" on="1"/>
        <pt x="702" y="235" on="0"/>
        <pt x="708" y="227" on="0"/>
      </contour>
    </TTGlyph>
    <TTGlyph name="Eacute" xMin="-32" yMin="-56" xMax="711" yMax="1207">
      <component glyphName="E" x="0" y="0" flags="0x204"/>
      <component glyphName="acute" x="307" y="328" flags="0x4"/>
    </TTGlyph>
    <TTGlyph name="Ecircumflex" xMin="-32" yMin="-56" xMax="711" yMax="1235">
      <component glyphName="E" x="0" y="0" flags="0x204"/>
      <component glyphName="circumflex" x="338" y="246" flags="0x4"/>
    </TTGlyph>
    <TTGlyph name="Edieresis" xMin="-32" yMin="-56" xMax="711" yMax="1173">
      <component glyphName="E" x="0" y="0" flags="0x204"/>
      <component glyphName="dieresis" x="328" y="143" flags="0x4"/>
    </TTGlyph>
    <TTGlyph name="Egrave" xMin="-32" yMin="-56" xMax="711" yMax="1327">
      <component glyphName="E" x="0" y="0" flags="0x204"/>
      <component glyphName="grave" x="389" y="399" flags="0x4"/>
    </TTGlyph>
    <TTGlyph name="Eth" xMin="-236" yMin="-66" xMax="858" yMax="941">
      <contour>
        <pt x="506" y="128" on="1"/>
        <pt x="497" y="155" on="0"/>
        <pt x="465" y="172" on="0"/>
        <pt x="425" y="172" on="0"/>
        <pt x="382" y="166" on="0"/>
        <pt x="364" y="171" on="1"/>
        <pt x="357" y="181" on="0"/>
        <pt x="339" y="185" on="0"/>
        <pt x="321" y="183" on="0"/>
        <pt x="305" y="181" on="0"/>
        <pt x="300" y="184" on="1"/>
        <pt x="295" y="188" on="0"/>
        <pt x="296" y="197" on="0"/>
        <pt x="294" y="201" on="1"/>
        <pt x="292" y="203" on="1"/>
        <pt x="287" y="205" on="0"/>
        <pt x="277" y="205" on="0"/>
        <pt x="268" y="206" on="0"/>
        <pt x="263" y="212" on="0"/>
        <pt x="262" y="219" on="1"/>
        <pt x="241" y="212" on="0"/>
        <pt x="210" y="221" on="0"/>
        <pt x="186" y="244" on="0"/>
        <pt x="166" y="275" on="0"/>
        <pt x="157" y="289" on="1"/>
        <pt x="156" y="290" on="1"/>
        <pt x="155" y="289" on="1"/>
        <pt x="146" y="287" on="1"/>
        <pt x="146" y="285" on="1"/>
        <pt x="149" y="261" on="0"/>
        <pt x="158" y="201" on="0"/>
        <pt x="172" y="139" on="0"/>
        <pt x="192" y="83" on="0"/>
        <pt x="206" y="63" on="1"/>
        <pt x="206" y="63" on="0"/>
        <pt x="208" y="61" on="1"/>
        <pt x="215" y="63" on="0"/>
        <pt x="234" y="49" on="0"/>
        <pt x="256" y="35" on="0"/>
        <pt x="281" y="31" on="0"/>
        <pt x="294" y="43" on="1"/>
        <pt x="304" y="33" on="0"/>
        <pt x="316" y="19" on="0"/>
        <pt x="333" y="19" on="1"/>
        <pt x="334" y="19" on="1"/>
        <pt x="361" y="30" on="0"/>
        <pt x="405" y="51" on="0"/>
        <pt x="445" y="75" on="0"/>
        <pt x="483" y="105" on="0"/>
        <pt x="504" y="126" on="1"/>
      </contour>
      <contour>
        <pt x="92" y="489" on="1"/>
        <pt x="88" y="531" on="0"/>
        <pt x="104" y="617" on="0"/>
        <pt x="112" y="656" on="1"/>
        <pt x="114" y="670" on="0"/>
        <pt x="119" y="696" on="0"/>
        <pt x="122" y="710" on="1"/>
        <pt x="124" y="719" on="0"/>
        <pt x="128" y="736" on="0"/>
        <pt x="129" y="745" on="1"/>
        <pt x="143" y="752" on="0"/>
        <pt x="158" y="774" on="0"/>
        <pt x="168" y="800" on="0"/>
        <pt x="177" y="826" on="0"/>
        <pt x="189" y="847" on="0"/>
        <pt x="210" y="860" on="0"/>
        <pt x="228" y="860" on="1"/>
        <pt x="228" y="861" on="1"/>
        <pt x="266" y="899" on="0"/>
        <pt x="358" y="941" on="0"/>
        <pt x="413" y="935" on="1"/>
        <pt x="414" y="935" on="1"/>
        <pt x="437" y="935" on="0"/>
        <pt x="482" y="909" on="0"/>
        <pt x="502" y="899" on="1"/>
        <pt x="510" y="904" on="1"/>
        <pt x="516" y="895" on="1"/>
        <pt x="526" y="901" on="1"/>
        <pt x="544" y="874" on="0"/>
        <pt x="587" y="820" on="0"/>
        <pt x="626" y="763" on="0"/>
        <pt x="652" y="702" on="0"/>
        <pt x="652" y="668" on="1"/>
        <pt x="652" y="665" on="0"/>
        <pt x="650" y="650" on="0"/>
        <pt x="648" y="636" on="0"/>
        <pt x="646" y="624" on="0"/>
        <pt x="646" y="624" on="1"/>
        <pt x="664" y="597" on="1"/>
        <pt x="665" y="598" on="1"/>
        <pt x="663" y="586" on="0"/>
        <pt x="662" y="559" on="0"/>
        <pt x="662" y="531" on="0"/>
        <pt x="659" y="505" on="0"/>
        <pt x="655" y="496" on="1"/>
        <pt x="654" y="496" on="1"/>
        <pt x="652" y="484" on="1"/>
        <pt x="651" y="479" on="0"/>
        <pt x="651" y="472" on="0"/>
        <pt x="651" y="470" on="1"/>
        <pt x="651" y="453" on="0"/>
        <pt x="657" y="425" on="0"/>
        <pt x="659" y="399" on="0"/>
        <pt x="654" y="372" on="0"/>
        <pt x="642" y="357" on="1"/>
        <pt x="650" y="351" on="0"/>
        <pt x="646" y="339" on="0"/>
        <pt x="638" y="325" on="0"/>
        <pt x="633" y="308" on="0"/>
        <pt x="639" y="298" on="1"/>
        <pt x="631" y="291" on="0"/>
        <pt x="628" y="272" on="0"/>
        <pt x="630" y="250" on="0"/>
        <pt x="634" y="227" on="0"/>
        <pt x="634" y="217" on="1"/>
        <pt x="662" y="210" on="0"/>
        <pt x="718" y="209" on="0"/>
        <pt x="774" y="214" on="0"/>
        <pt x="830" y="221" on="0"/>
        <pt x="858" y="222" on="1"/>
        <pt x="855" y="208" on="0"/>
        <pt x="835" y="192" on="0"/>
        <pt x="810" y="182" on="0"/>
        <pt x="783" y="173" on="0"/>
        <pt x="773" y="166" on="1"/>
        <pt x="755" y="172" on="0"/>
        <pt x="725" y="163" on="0"/>
        <pt x="697" y="154" on="0"/>
        <pt x="667" y="153" on="0"/>
        <pt x="651" y="167" on="1"/>
        <pt x="648" y="162" on="1"/>
        <pt x="639" y="146" on="0"/>
        <pt x="605" y="126" on="0"/>
        <pt x="590" y="118" on="1"/>
        <pt x="579" y="112" on="0"/>
        <pt x="553" y="92" on="0"/>
        <pt x="530" y="68" on="0"/>
        <pt x="515" y="42" on="0"/>
        <pt x="515" y="29" on="1"/>
        <pt x="515" y="25" on="1"/>
        <pt x="486" y="11" on="0"/>
        <pt x="437" y="-32" on="0"/>
        <pt x="409" y="-47" on="1"/>
        <pt x="408" y="-47" on="1"/>
        <pt x="408" y="-48" on="1"/>
        <pt x="400" y="-57" on="0"/>
        <pt x="384" y="-62" on="0"/>
        <pt x="367" y="-62" on="0"/>
        <pt x="350" y="-62" on="0"/>
        <pt x="341" y="-66" on="1"/>
        <pt x="333" y="-54" on="0"/>
        <pt x="312" y="-45" on="0"/>
        <pt x="287" y="-42" on="0"/>
        <pt x="262" y="-42" on="0"/>
        <pt x="250" y="-39" on="1"/>
        <pt x="202" y="-28" on="0"/>
        <pt x="141" y="25" on="0"/>
        <pt x="112" y="63" on="1"/>
        <pt x="118" y="101" on="0"/>
        <pt x="86" y="170" on="0"/>
        <pt x="65" y="199" on="1"/>
        <pt x="48" y="185" on="0"/>
        <pt x="20" y="160" on="0"/>
        <pt x="-6" y="136" on="0"/>
        <pt x="-32" y="110" on="0"/>
        <pt x="-47" y="95" on="1"/>
        <pt x="-49" y="93" on="1"/>
        <pt x="-44" y="78" on="0"/>
        <pt x="-53" y="61" on="0"/>
        <pt x="-72" y="48" on="0"/>
        <pt x="-94" y="37" on="0"/>
        <pt x="-101" y="28" on="1"/>
        <pt x="-106" y="36" on="1"/>
        <pt x="-120" y="25" on="0"/>
        <pt x="-135" y="-5" on="0"/>
        <pt x="-151" y="-35" on="0"/>
        <pt x="-173" y="-58" on="0"/>
        <pt x="-192" y="-61" on="1"/>
        <pt x="-196" y="-55" on="0"/>
        <pt x="-208" y="-50" on="0"/>
        <pt x="-220" y="-48" on="0"/>
        <pt x="-231" y="-46" on="0"/>
        <pt x="-234" y="-43" on="1"/>
        <pt x="-235" y="-41" on="0"/>
        <pt x="-236" y="-35" on="0"/>
        <pt x="-235" y="-33" on="1"/>
        <pt x="-234" y="-6" on="0"/>
        <pt x="-206" y="42" on="0"/>
        <pt x="-190" y="62" on="1"/>
        <pt x="-177" y="80" on="0"/>
        <pt x="-156" y="116" on="0"/>
        <pt x="-149" y="137" on="1"/>
        <pt x="-128" y="152" on="0"/>
        <pt x="-91" y="193" on="0"/>
        <pt x="-52" y="232" on="0"/>
        <pt x="-8" y="261" on="0"/>
        <pt x="19" y="264" on="1"/>
        <pt x="23" y="264" on="1"/>
        <pt x="26" y="276" on="0"/>
        <pt x="47" y="294" on="0"/>
        <pt x="75" y="310" on="0"/>
        <pt x="104" y="328" on="0"/>
        <pt x="124" y="352" on="0"/>
        <pt x="130" y="384" on="0"/>
        <pt x="121" y="407" on="1"/>
        <pt x="120" y="408" on="1"/>
        <pt x="120" y="409" on="1"/>
        <pt x="118" y="412" on="0"/>
        <pt x="114" y="418" on="0"/>
        <pt x="112" y="421" on="1"/>
        <pt x="91" y="422" on="0"/>
        <pt x="60" y="410" on="0"/>
        <pt x="38" y="409" on="1"/>
        <pt x="27" y="415" on="0"/>
        <pt x="4" y="409" on="0"/>
        <pt x="-16" y="403" on="0"/>
        <pt x="-34" y="407" on="0"/>
        <pt x="-40" y="422" on="1"/>
        <pt x="-44" y="415" on="0"/>
        <pt x="-59" y="415" on="0"/>
        <pt x="-67" y="416" on="1"/>
        <pt x="-68" y="432" on="0"/>
        <pt x="-56" y="460" on="0"/>
        <pt x="-37" y="463" on="1"/>
        <pt x="-26" y="465" on="0"/>
        <pt x="-5" y="468" on="0"/>
        <pt x="6" y="470" on="1"/>
        <pt x="26" y="475" on="0"/>
        <pt x="70" y="485" on="0"/>
      </contour>
      <contour>
        <pt x="313" y="479" on="1"/>
        <pt x="308" y="470" on="0"/>
        <pt x="303" y="454" on="0"/>
        <pt x="294" y="447" on="1"/>
        <pt x="286" y="457" on="1"/>
        <pt x="259" y="436" on="1"/>
        <pt x="246" y="416" on="0"/>
        <pt x="229" y="376" on="0"/>
        <pt x="229" y="353" on="1"/>
        <pt x="230" y="352" on="1"/>
        <pt x="268" y="307" on="0"/>
        <pt x="360" y="267" on="0"/>
        <pt x="415" y="253" on="1"/>
        <pt x="435" y="266" on="1"/>
        <pt x="448" y="267" on="0"/>
        <pt x="470" y="246" on="0"/>
        <pt x="480" y="239" on="1"/>
        <pt x="487" y="244" on="0"/>
        <pt x="511" y="250" on="0"/>
        <pt x="536" y="254" on="0"/>
        <pt x="561" y="258" on="0"/>
        <pt x="570" y="260" on="1"/>
        <pt x="562" y="271" on="1"/>
        <pt x="573" y="280" on="1"/>
        <pt x="570" y="282" on="0"/>
        <pt x="563" y="288" on="0"/>
        <pt x="563" y="292" on="1"/>
        <pt x="566" y="298" on="0"/>
        <pt x="574" y="306" on="0"/>
        <pt x="578" y="314" on="0"/>
        <pt x="578" y="323" on="0"/>
        <pt x="574" y="331" on="1"/>
        <pt x="589" y="346" on="0"/>
        <pt x="588" y="381" on="0"/>
        <pt x="583" y="416" on="0"/>
        <pt x="588" y="449" on="0"/>
        <pt x="609" y="461" on="1"/>
        <pt x="606" y="466" on="1"/>
        <pt x="594" y="486" on="0"/>
        <pt x="590" y="521" on="0"/>
        <pt x="592" y="553" on="0"/>
        <pt x="593" y="585" on="0"/>
        <pt x="585" y="603" on="1"/>
        <pt x="591" y="606" on="0"/>
        <pt x="602" y="613" on="0"/>
        <pt x="607" y="617" on="1"/>
        <pt x="592" y="633" on="0"/>
        <pt x="581" y="659" on="0"/>
        <pt x="578" y="680" on="1"/>
        <pt x="576" y="688" on="0"/>
        <pt x="572" y="704" on="0"/>
        <pt x="570" y="713" on="1"/>
        <pt x="569" y="720" on="0"/>
        <pt x="567" y="732" on="0"/>
        <pt x="565" y="738" on="1"/>
        <pt x="554" y="769" on="0"/>
        <pt x="509" y="810" on="0"/>
        <pt x="483" y="827" on="1"/>
        <pt x="467" y="839" on="0"/>
        <pt x="437" y="860" on="0"/>
        <pt x="426" y="877" on="1"/>
        <pt x="425" y="875" on="0"/>
        <pt x="407" y="863" on="0"/>
        <pt x="386" y="849" on="0"/>
        <pt x="368" y="837" on="0"/>
        <pt x="365" y="836" on="1"/>
        <pt x="354" y="841" on="0"/>
        <pt x="334" y="838" on="0"/>
        <pt x="316" y="832" on="0"/>
        <pt x="302" y="827" on="0"/>
        <pt x="299" y="830" on="1"/>
        <pt x="298" y="830" on="1"/>
        <pt x="297" y="831" on="1"/>
        <pt x="285" y="835" on="0"/>
        <pt x="275" y="827" on="0"/>
        <pt x="270" y="813" on="0"/>
        <pt x="265" y="802" on="0"/>
        <pt x="259" y="803" on="1"/>
        <pt x="259" y="802" on="0"/>
        <pt x="258" y="800" on="0"/>
        <pt x="258" y="799" on="1"/>
        <pt x="255" y="778" on="0"/>
        <pt x="248" y="749" on="0"/>
        <pt x="239" y="724" on="0"/>
        <pt x="224" y="699" on="0"/>
        <pt x="213" y="681" on="1"/>
        <pt x="203" y="664" on="0"/>
        <pt x="186" y="636" on="0"/>
        <pt x="174" y="607" on="0"/>
        <pt x="167" y="575" on="0"/>
        <pt x="167" y="555" on="1"/>
        <pt x="175" y="541" on="0"/>
        <pt x="181" y="515" on="0"/>
        <pt x="180" y="501" on="1"/>
        <pt x="190" y="503" on="0"/>
        <pt x="209" y="505" on="0"/>
        <pt x="220" y="505" on="1"/>
        <pt x="243" y="537" on="0"/>
        <pt x="282" y="604" on="0"/>
        <pt x="308" y="627" on="1"/>
        <pt x="331" y="611" on="0"/>
        <pt x="344" y="578" on="0"/>
        <pt x="337" y="544" on="0"/>
        <pt x="313" y="507" on="0"/>
        <pt x="298" y="488" on="1"/>
        <pt x="302" y="486" on="0"/>
        <pt x="310" y="481" on="0"/>
      </contour>
    </TTGlyph>
    <TTGlyph name="Euro" xMin="-31" yMin="141" xMax="497" yMax="740">
      <contour>
        <pt x="497" y="317" on="1"/>
        <pt x="497" y="311" on="0"/>
        <pt x="477" y="290" on="0"/>
        <pt x="451" y="268" on="0"/>
        <pt x="426" y="249" on="0"/>
        <pt x="421" y="246" on="1"/>
        <pt x="404" y="234" on="0"/>
        <pt x="374" y="208" on="0"/>
        <pt x="357" y="196" on="1"/>
        <pt x="350" y="191" on="0"/>
        <pt x="338" y="188" on="0"/>
        <pt x="328" y="190" on="0"/>
        <pt x="321" y="192" on="0"/>
        <pt x="318" y="191" on="1"/>
        <pt x="316" y="188" on="0"/>
        <pt x="316" y="174" on="0"/>
        <pt x="316" y="170" on="1"/>
        <pt x="300" y="170" on="0"/>
        <pt x="273" y="157" on="0"/>
        <pt x="257" y="157" on="1"/>
        <pt x="241" y="157" on="0"/>
        <pt x="212" y="141" on="0"/>
        <pt x="194" y="141" on="1"/>
        <pt x="167" y="141" on="1"/>
        <pt x="159" y="154" on="0"/>
        <pt x="142" y="160" on="0"/>
        <pt x="132" y="170" on="1"/>
        <pt x="122" y="181" on="0"/>
        <pt x="115" y="193" on="1"/>
        <pt x="89" y="229" on="0"/>
        <pt x="70" y="299" on="0"/>
        <pt x="68" y="342" on="1"/>
        <pt x="24" y="339" on="0"/>
        <pt x="-19" y="351" on="1"/>
        <pt x="-31" y="363" on="1"/>
        <pt x="-24" y="372" on="0"/>
        <pt x="-7" y="380" on="0"/>
        <pt x="11" y="385" on="0"/>
        <pt x="29" y="389" on="0"/>
        <pt x="39" y="392" on="1"/>
        <pt x="41" y="389" on="0"/>
        <pt x="43" y="383" on="0"/>
        <pt x="45" y="381" on="1"/>
        <pt x="53" y="383" on="0"/>
        <pt x="67" y="393" on="0"/>
        <pt x="78" y="394" on="1"/>
        <pt x="85" y="414" on="0"/>
        <pt x="98" y="449" on="0"/>
        <pt x="109" y="467" on="1"/>
        <pt x="99" y="465" on="1"/>
        <pt x="86" y="465" on="0"/>
        <pt x="63" y="456" on="0"/>
        <pt x="41" y="449" on="0"/>
        <pt x="17" y="447" on="0"/>
        <pt x="4" y="455" on="1"/>
        <pt x="4" y="461" on="1"/>
        <pt x="-1" y="466" on="0"/>
        <pt x="-7" y="474" on="0"/>
        <pt x="-2" y="482" on="1"/>
        <pt x="7" y="487" on="0"/>
        <pt x="21" y="492" on="0"/>
        <pt x="32" y="491" on="1"/>
        <pt x="28" y="495" on="0"/>
        <pt x="26" y="502" on="1"/>
        <pt x="54" y="505" on="0"/>
        <pt x="109" y="512" on="0"/>
        <pt x="137" y="515" on="1"/>
        <pt x="144" y="527" on="0"/>
        <pt x="179" y="581" on="0"/>
        <pt x="219" y="635" on="0"/>
        <pt x="258" y="675" on="0"/>
        <pt x="269" y="673" on="1"/>
        <pt x="291" y="704" on="0"/>
        <pt x="359" y="737" on="0"/>
        <pt x="397" y="737" on="1"/>
        <pt x="411" y="737" on="0"/>
        <pt x="437" y="740" on="0"/>
        <pt x="450" y="730" on="1"/>
        <pt x="456" y="719" on="0"/>
        <pt x="468" y="682" on="0"/>
        <pt x="479" y="641" on="0"/>
        <pt x="485" y="603" on="0"/>
        <pt x="485" y="591" on="1"/>
        <pt x="485" y="576" on="0"/>
        <pt x="474" y="550" on="0"/>
        <pt x="458" y="526" on="0"/>
        <pt x="442" y="503" on="0"/>
        <pt x="436" y="491" on="1"/>
        <pt x="434" y="486" on="0"/>
        <pt x="432" y="478" on="0"/>
        <pt x="430" y="474" on="1"/>
        <pt x="427" y="465" on="0"/>
        <pt x="415" y="435" on="0"/>
        <pt x="399" y="406" on="0"/>
        <pt x="380" y="385" on="0"/>
        <pt x="368" y="385" on="1"/>
        <pt x="359" y="385" on="0"/>
        <pt x="343" y="404" on="0"/>
        <pt x="343" y="412" on="1"/>
        <pt x="343" y="450" on="0"/>
        <pt x="372" y="514" on="0"/>
        <pt x="390" y="546" on="1"/>
        <pt x="407" y="574" on="0"/>
        <pt x="435" y="633" on="0"/>
        <pt x="435" y="666" on="1"/>
        <pt x="435" y="672" on="0"/>
        <pt x="434" y="688" on="0"/>
        <pt x="429" y="693" on="1"/>
        <pt x="412" y="693" on="0"/>
        <pt x="369" y="693" on="0"/>
        <pt x="356" y="679" on="1"/>
        <pt x="348" y="671" on="0"/>
        <pt x="331" y="645" on="0"/>
        <pt x="323" y="639" on="1"/>
        <pt x="317" y="635" on="0"/>
        <pt x="303" y="630" on="0"/>
        <pt x="297" y="626" on="1"/>
        <pt x="287" y="618" on="0"/>
        <pt x="272" y="598" on="0"/>
        <pt x="265" y="588" on="1"/>
        <pt x="256" y="575" on="0"/>
        <pt x="237" y="551" on="0"/>
        <pt x="223" y="543" on="1"/>
        <pt x="211" y="522" on="1"/>
        <pt x="232" y="524" on="0"/>
        <pt x="277" y="525" on="0"/>
        <pt x="298" y="521" on="1"/>
        <pt x="303" y="516" on="0"/>
        <pt x="312" y="507" on="0"/>
        <pt x="317" y="502" on="1"/>
        <pt x="321" y="494" on="0"/>
        <pt x="303" y="483" on="0"/>
        <pt x="298" y="478" on="1"/>
        <pt x="273" y="481" on="0"/>
        <pt x="211" y="477" on="0"/>
        <pt x="185" y="475" on="1"/>
        <pt x="174" y="458" on="0"/>
        <pt x="156" y="422" on="0"/>
        <pt x="148" y="403" on="1"/>
        <pt x="164" y="404" on="0"/>
        <pt x="180" y="403" on="1"/>
        <pt x="213" y="423" on="0"/>
        <pt x="249" y="409" on="1"/>
        <pt x="249" y="400" on="1"/>
        <pt x="258" y="405" on="0"/>
        <pt x="269" y="403" on="0"/>
        <pt x="277" y="396" on="1"/>
        <pt x="269" y="382" on="1"/>
        <pt x="263" y="383" on="0"/>
        <pt x="250" y="375" on="0"/>
        <pt x="239" y="364" on="0"/>
        <pt x="229" y="351" on="0"/>
        <pt x="225" y="347" on="1"/>
        <pt x="214" y="342" on="0"/>
        <pt x="196" y="351" on="0"/>
        <pt x="189" y="359" on="1"/>
        <pt x="175" y="358" on="0"/>
        <pt x="146" y="354" on="0"/>
        <pt x="132" y="352" on="1"/>
        <pt x="129" y="339" on="0"/>
        <pt x="128" y="298" on="0"/>
        <pt x="136" y="256" on="0"/>
        <pt x="153" y="222" on="0"/>
        <pt x="168" y="218" on="1"/>
        <pt x="176" y="215" on="0"/>
        <pt x="189" y="220" on="0"/>
        <pt x="197" y="212" on="1"/>
        <pt x="212" y="212" on="0"/>
        <pt x="231" y="212" on="0"/>
        <pt x="246" y="214" on="0"/>
        <pt x="262" y="221" on="0"/>
        <pt x="275" y="227" on="1"/>
        <pt x="283" y="231" on="0"/>
        <pt x="299" y="239" on="0"/>
        <pt x="308" y="241" on="1"/>
        <pt x="319" y="245" on="0"/>
        <pt x="340" y="250" on="0"/>
        <pt x="351" y="255" on="1"/>
        <pt x="364" y="262" on="0"/>
        <pt x="386" y="280" on="0"/>
        <pt x="399" y="287" on="1"/>
        <pt x="406" y="292" on="0"/>
        <pt x="432" y="291" on="0"/>
        <pt x="435" y="293" on="1"/>
        <pt x="441" y="298" on="0"/>
        <pt x="451" y="311" on="0"/>
        <pt x="456" y="317" on="1"/>
        <pt x="464" y="318" on="0"/>
        <pt x="480" y="328" on="0"/>
        <pt x="487" y="328" on="1"/>
        <pt x="497" y="328" on="0"/>
      </contour>
    </TTGlyph>
    <TTGlyph name="F" xMin="-205" yMin="-92" xMax="671" yMax="981">
      <contour>
        <pt x="671" y="938" on="1"/>
        <pt x="664" y="932" on="0"/>
        <pt x="662" y="911" on="0"/>
        <pt x="662" y="903" on="1"/>
        <pt x="667" y="898" on="0"/>
        <pt x="669" y="895" on="1"/>
        <pt x="645" y="863" on="0"/>
        <pt x="600" y="799" on="0"/>
        <pt x="580" y="765" on="1"/>
        <pt x="574" y="756" on="0"/>
        <pt x="562" y="737" on="0"/>
        <pt x="558" y="727" on="1"/>
        <pt x="559" y="725" on="0"/>
        <pt x="562" y="722" on="0"/>
        <pt x="562" y="720" on="1"/>
        <pt x="562" y="715" on="0"/>
        <pt x="553" y="700" on="0"/>
        <pt x="546" y="683" on="0"/>
        <pt x="546" y="666" on="0"/>
        <pt x="554" y="658" on="1"/>
        <pt x="514" y="611" on="0"/>
        <pt x="448" y="508" on="0"/>
        <pt x="416" y="456" on="1"/>
        <pt x="419" y="453" on="1"/>
        <pt x="434" y="434" on="0"/>
        <pt x="461" y="427" on="0"/>
        <pt x="484" y="426" on="1"/>
        <pt x="502" y="425" on="0"/>
        <pt x="534" y="419" on="0"/>
        <pt x="543" y="400" on="1"/>
        <pt x="536" y="383" on="0"/>
        <pt x="516" y="374" on="0"/>
        <pt x="499" y="370" on="1"/>
        <pt x="491" y="368" on="0"/>
        <pt x="476" y="363" on="0"/>
        <pt x="468" y="361" on="1"/>
        <pt x="459" y="359" on="0"/>
        <pt x="438" y="363" on="0"/>
        <pt x="416" y="366" on="0"/>
        <pt x="395" y="363" on="0"/>
        <pt x="385" y="354" on="1"/>
        <pt x="384" y="353" on="0"/>
        <pt x="370" y="326" on="0"/>
        <pt x="349" y="284" on="0"/>
        <pt x="324" y="234" on="0"/>
        <pt x="301" y="190" on="0"/>
        <pt x="285" y="158" on="0"/>
        <pt x="283" y="154" on="1"/>
        <pt x="285" y="151" on="0"/>
        <pt x="291" y="144" on="0"/>
        <pt x="293" y="142" on="1"/>
        <pt x="287" y="122" on="0"/>
        <pt x="281" y="80" on="0"/>
        <pt x="279" y="58" on="1"/>
        <pt x="277" y="39" on="0"/>
        <pt x="276" y="-2" on="0"/>
        <pt x="270" y="-41" on="0"/>
        <pt x="256" y="-77" on="0"/>
        <pt x="241" y="-92" on="1"/>
        <pt x="230" y="-91" on="0"/>
        <pt x="214" y="-76" on="0"/>
        <pt x="202" y="-56" on="0"/>
        <pt x="191" y="-35" on="0"/>
        <pt x="185" y="-28" on="1"/>
        <pt x="199" y="-8" on="0"/>
        <pt x="201" y="33" on="0"/>
        <pt x="199" y="73" on="0"/>
        <pt x="205" y="111" on="0"/>
        <pt x="223" y="128" on="1"/>
        <pt x="216" y="147" on="0"/>
        <pt x="206" y="177" on="0"/>
        <pt x="223" y="194" on="1"/>
        <pt x="222" y="194" on="1"/>
        <pt x="227" y="196" on="0"/>
        <pt x="245" y="213" on="0"/>
        <pt x="250" y="218" on="1"/>
        <pt x="235" y="227" on="0"/>
        <pt x="237" y="238" on="0"/>
        <pt x="251" y="249" on="0"/>
        <pt x="268" y="265" on="0"/>
        <pt x="268" y="280" on="1"/>
        <pt x="262" y="287" on="1"/>
        <pt x="265" y="290" on="1"/>
        <pt x="276" y="295" on="0"/>
        <pt x="281" y="306" on="0"/>
        <pt x="281" y="317" on="1"/>
        <pt x="280" y="317" on="1"/>
        <pt x="280" y="318" on="1"/>
        <pt x="274" y="333" on="0"/>
        <pt x="254" y="347" on="0"/>
        <pt x="231" y="355" on="0"/>
        <pt x="206" y="361" on="0"/>
        <pt x="195" y="368" on="1"/>
        <pt x="190" y="363" on="0"/>
        <pt x="180" y="354" on="0"/>
        <pt x="178" y="349" on="1"/>
        <pt x="167" y="352" on="0"/>
        <pt x="146" y="363" on="0"/>
        <pt x="125" y="370" on="0"/>
        <pt x="104" y="368" on="0"/>
        <pt x="92" y="359" on="1"/>
        <pt x="90" y="357" on="1"/>
        <pt x="80" y="344" on="0"/>
        <pt x="53" y="348" on="0"/>
        <pt x="24" y="355" on="0"/>
        <pt x="-6" y="353" on="0"/>
        <pt x="-18" y="335" on="1"/>
        <pt x="-42" y="326" on="0"/>
        <pt x="-89" y="330" on="0"/>
        <pt x="-135" y="342" on="0"/>
        <pt x="-181" y="355" on="0"/>
        <pt x="-205" y="356" on="1"/>
        <pt x="-192" y="371" on="0"/>
        <pt x="-177" y="399" on="0"/>
        <pt x="-160" y="416" on="0"/>
        <pt x="-133" y="417" on="0"/>
        <pt x="-109" y="404" on="1"/>
        <pt x="-99" y="413" on="1"/>
        <pt x="-87" y="403" on="0"/>
        <pt x="-70" y="410" on="0"/>
        <pt x="-57" y="422" on="0"/>
        <pt x="-44" y="427" on="0"/>
        <pt x="-35" y="415" on="1"/>
        <pt x="-35" y="414" on="0"/>
        <pt x="-34" y="414" on="0"/>
        <pt x="-34" y="413" on="1"/>
        <pt x="-33" y="413" on="0"/>
        <pt x="-32" y="412" on="0"/>
        <pt x="-31" y="412" on="1"/>
        <pt x="-25" y="411" on="0"/>
        <pt x="-2" y="414" on="0"/>
        <pt x="4" y="416" on="1"/>
        <pt x="29" y="421" on="0"/>
        <pt x="52" y="415" on="0"/>
        <pt x="68" y="393" on="1"/>
        <pt x="72" y="397" on="0"/>
        <pt x="84" y="409" on="0"/>
        <pt x="86" y="414" on="1"/>
        <pt x="100" y="412" on="0"/>
        <pt x="123" y="419" on="0"/>
        <pt x="144" y="425" on="0"/>
        <pt x="166" y="421" on="0"/>
        <pt x="180" y="408" on="1"/>
        <pt x="189" y="425" on="0"/>
        <pt x="214" y="432" on="0"/>
        <pt x="241" y="427" on="0"/>
        <pt x="269" y="417" on="0"/>
        <pt x="293" y="416" on="0"/>
        <pt x="312" y="433" on="0"/>
        <pt x="316" y="458" on="1"/>
        <pt x="347" y="474" on="0"/>
        <pt x="371" y="516" on="0"/>
        <pt x="377" y="548" on="1"/>
        <pt x="380" y="565" on="0"/>
        <pt x="386" y="588" on="0"/>
        <pt x="398" y="604" on="0"/>
        <pt x="416" y="619" on="0"/>
        <pt x="431" y="629" on="1"/>
        <pt x="432" y="630" on="0"/>
        <pt x="434" y="631" on="0"/>
        <pt x="435" y="632" on="1"/>
        <pt x="435" y="635" on="0"/>
        <pt x="434" y="640" on="0"/>
        <pt x="434" y="643" on="1"/>
        <pt x="433" y="653" on="0"/>
        <pt x="444" y="674" on="0"/>
        <pt x="458" y="696" on="0"/>
        <pt x="470" y="718" on="0"/>
        <pt x="470" y="730" on="1"/>
        <pt x="470" y="744" on="0"/>
        <pt x="454" y="764" on="0"/>
        <pt x="445" y="772" on="1"/>
        <pt x="442" y="771" on="1"/>
        <pt x="415" y="762" on="0"/>
        <pt x="361" y="749" on="0"/>
        <pt x="335" y="737" on="1"/>
        <pt x="297" y="720" on="0"/>
        <pt x="204" y="702" on="0"/>
        <pt x="162" y="713" on="1"/>
        <pt x="162" y="719" on="0"/>
        <pt x="151" y="733" on="0"/>
        <pt x="146" y="737" on="1"/>
        <pt x="140" y="734" on="1"/>
        <pt x="128" y="727" on="0"/>
        <pt x="110" y="726" on="0"/>
        <pt x="95" y="733" on="0"/>
        <pt x="78" y="743" on="0"/>
        <pt x="67" y="746" on="1"/>
        <pt x="72" y="758" on="0"/>
        <pt x="86" y="768" on="0"/>
        <pt x="97" y="772" on="1"/>
        <pt x="117" y="759" on="0"/>
        <pt x="153" y="753" on="0"/>
        <pt x="188" y="759" on="0"/>
        <pt x="222" y="775" on="0"/>
        <pt x="241" y="785" on="1"/>
        <pt x="251" y="791" on="0"/>
        <pt x="279" y="803" on="0"/>
        <pt x="309" y="812" on="0"/>
        <pt x="339" y="815" on="0"/>
        <pt x="351" y="812" on="1"/>
        <pt x="355" y="811" on="1"/>
        <pt x="367" y="823" on="0"/>
        <pt x="406" y="840" on="0"/>
        <pt x="449" y="856" on="0"/>
        <pt x="493" y="875" on="0"/>
        <pt x="510" y="890" on="1"/>
        <pt x="516" y="882" on="1"/>
        <pt x="519" y="882" on="1"/>
        <pt x="544" y="882" on="0"/>
        <pt x="566" y="899" on="0"/>
        <pt x="581" y="918" on="1"/>
        <pt x="585" y="924" on="0"/>
        <pt x="602" y="945" on="0"/>
        <pt x="621" y="966" on="0"/>
        <pt x="641" y="981" on="0"/>
        <pt x="649" y="980" on="1"/>
        <pt x="653" y="980" on="0"/>
        <pt x="659" y="969" on="0"/>
        <pt x="665" y="955" on="0"/>
        <pt x="669" y="941" on="0"/>
      </contour>
    </TTGlyph>
    <TTGlyph name="G" xMin="-258" yMin="-145" xMax="871" yMax="995">
      <contour>
        <pt x="871" y="307" on="1"/>
        <pt x="854" y="277" on="0"/>
        <pt x="815" y="231" on="0"/>
        <pt x="768" y="197" on="0"/>
        <pt x="710" y="176" on="0"/>
        <pt x="673" y="171" on="1"/>
        <pt x="670" y="171" on="1"/>
        <pt x="661" y="155" on="0"/>
        <pt x="641" y="135" on="0"/>
        <pt x="617" y="123" on="0"/>
        <pt x="587" y="119" on="0"/>
        <pt x="568" y="119" on="1"/>
        <pt x="550" y="119" on="0"/>
        <pt x="522" y="111" on="0"/>
        <pt x="494" y="102" on="0"/>
        <pt x="463" y="96" on="0"/>
        <pt x="442" y="99" on="1"/>
        <pt x="442" y="92" on="1"/>
        <pt x="442" y="77" on="0"/>
        <pt x="419" y="65" on="0"/>
        <pt x="391" y="53" on="0"/>
        <pt x="368" y="35" on="0"/>
        <pt x="368" y="14" on="1"/>
        <pt x="357" y="10" on="0"/>
        <pt x="323" y="24" on="0"/>
        <pt x="310" y="26" on="1"/>
        <pt x="304" y="6" on="0"/>
        <pt x="281" y="-7" on="0"/>
        <pt x="251" y="-7" on="0"/>
        <pt x="218" y="-1" on="0"/>
        <pt x="202" y="-2" on="1"/>
        <pt x="188" y="18" on="0"/>
        <pt x="151" y="32" on="0"/>
        <pt x="112" y="39" on="0"/>
        <pt x="74" y="49" on="0"/>
        <pt x="58" y="65" on="1"/>
        <pt x="36" y="53" on="1"/>
        <pt x="35" y="56" on="1"/>
        <pt x="34" y="67" on="0"/>
        <pt x="27" y="80" on="0"/>
        <pt x="15" y="82" on="1"/>
        <pt x="12" y="75" on="1"/>
        <pt x="15" y="74" on="1"/>
        <pt x="10" y="69" on="0"/>
        <pt x="1" y="58" on="0"/>
        <pt x="-4" y="53" on="1"/>
        <pt x="-19" y="47" on="0"/>
        <pt x="-38" y="37" on="0"/>
        <pt x="-54" y="25" on="0"/>
        <pt x="-68" y="8" on="0"/>
        <pt x="-77" y="-5" on="1"/>
        <pt x="-93" y="-29" on="0"/>
        <pt x="-127" y="-72" on="0"/>
        <pt x="-155" y="-83" on="1"/>
        <pt x="-162" y="-86" on="0"/>
        <pt x="-169" y="-98" on="0"/>
        <pt x="-173" y="-111" on="0"/>
        <pt x="-176" y="-122" on="0"/>
        <pt x="-180" y="-124" on="1"/>
        <pt x="-183" y="-126" on="0"/>
        <pt x="-199" y="-117" on="0"/>
        <pt x="-202" y="-115" on="1"/>
        <pt x="-210" y="-123" on="0"/>
        <pt x="-224" y="-138" on="0"/>
        <pt x="-232" y="-145" on="1"/>
        <pt x="-250" y="-133" on="0"/>
        <pt x="-258" y="-106" on="0"/>
        <pt x="-253" y="-85" on="1"/>
        <pt x="-235" y="-70" on="0"/>
        <pt x="-195" y="-43" on="0"/>
        <pt x="-175" y="-31" on="1"/>
        <pt x="-160" y="-21" on="0"/>
        <pt x="-138" y="-5" on="0"/>
        <pt x="-136" y="13" on="1"/>
        <pt x="-135" y="17" on="0"/>
        <pt x="-134" y="27" on="0"/>
        <pt x="-132" y="31" on="1"/>
        <pt x="-126" y="44" on="0"/>
        <pt x="-92" y="63" on="0"/>
        <pt x="-60" y="83" on="0"/>
        <pt x="-41" y="109" on="0"/>
        <pt x="-50" y="130" on="1"/>
        <pt x="-61" y="133" on="0"/>
        <pt x="-78" y="147" on="0"/>
        <pt x="-89" y="151" on="1"/>
        <pt x="-86" y="160" on="0"/>
        <pt x="-92" y="184" on="0"/>
        <pt x="-100" y="209" on="0"/>
        <pt x="-105" y="230" on="0"/>
        <pt x="-101" y="236" on="1"/>
        <pt x="-98" y="241" on="0"/>
        <pt x="-85" y="244" on="0"/>
        <pt x="-80" y="245" on="1"/>
        <pt x="-65" y="236" on="1"/>
        <pt x="-14" y="203" on="0"/>
        <pt x="48" y="224" on="0"/>
        <pt x="71" y="281" on="1"/>
        <pt x="78" y="298" on="0"/>
        <pt x="91" y="322" on="0"/>
        <pt x="105" y="336" on="1"/>
        <pt x="107" y="338" on="1"/>
        <pt x="107" y="361" on="0"/>
        <pt x="126" y="403" on="0"/>
        <pt x="150" y="443" on="0"/>
        <pt x="169" y="485" on="0"/>
        <pt x="169" y="509" on="1"/>
        <pt x="169" y="532" on="0"/>
        <pt x="147" y="562" on="0"/>
        <pt x="132" y="578" on="1"/>
        <pt x="124" y="586" on="0"/>
        <pt x="109" y="613" on="0"/>
        <pt x="97" y="643" on="0"/>
        <pt x="92" y="674" on="0"/>
        <pt x="94" y="686" on="1"/>
        <pt x="104" y="698" on="1"/>
        <pt x="89" y="717" on="0"/>
        <pt x="90" y="758" on="0"/>
        <pt x="102" y="798" on="0"/>
        <pt x="114" y="837" on="0"/>
        <pt x="110" y="855" on="1"/>
        <pt x="124" y="868" on="0"/>
        <pt x="144" y="910" on="0"/>
        <pt x="165" y="951" on="0"/>
        <pt x="189" y="985" on="0"/>
        <pt x="207" y="991" on="1"/>
        <pt x="221" y="995" on="0"/>
        <pt x="264" y="985" on="0"/>
        <pt x="277" y="976" on="1"/>
        <pt x="279" y="974" on="0"/>
        <pt x="286" y="965" on="0"/>
        <pt x="288" y="963" on="1"/>
        <pt x="304" y="940" on="0"/>
        <pt x="315" y="887" on="0"/>
        <pt x="313" y="859" on="1"/>
        <pt x="312" y="833" on="0"/>
        <pt x="311" y="781" on="0"/>
        <pt x="313" y="755" on="1"/>
        <pt x="292" y="731" on="0"/>
        <pt x="277" y="682" on="0"/>
        <pt x="270" y="634" on="0"/>
        <pt x="260" y="587" on="0"/>
        <pt x="244" y="566" on="1"/>
        <pt x="256" y="549" on="0"/>
        <pt x="290" y="535" on="0"/>
        <pt x="328" y="534" on="0"/>
        <pt x="366" y="545" on="0"/>
        <pt x="382" y="554" on="1"/>
        <pt x="383" y="554" on="1"/>
        <pt x="383" y="555" on="1"/>
        <pt x="413" y="577" on="0"/>
        <pt x="484" y="614" on="0"/>
        <pt x="548" y="658" on="0"/>
        <pt x="596" y="716" on="0"/>
        <pt x="602" y="758" on="1"/>
        <pt x="610" y="772" on="0"/>
        <pt x="634" y="795" on="0"/>
        <pt x="653" y="820" on="0"/>
        <pt x="660" y="850" on="0"/>
        <pt x="652" y="871" on="1"/>
        <pt x="658" y="877" on="0"/>
        <pt x="668" y="897" on="0"/>
        <pt x="679" y="916" on="0"/>
        <pt x="690" y="931" on="0"/>
        <pt x="697" y="934" on="1"/>
        <pt x="703" y="925" on="0"/>
        <pt x="714" y="921" on="0"/>
        <pt x="726" y="922" on="0"/>
        <pt x="738" y="926" on="0"/>
        <pt x="746" y="924" on="1"/>
        <pt x="741" y="913" on="0"/>
        <pt x="731" y="894" on="0"/>
        <pt x="726" y="885" on="1"/>
        <pt x="733" y="880" on="0"/>
        <pt x="744" y="874" on="1"/>
        <pt x="739" y="870" on="0"/>
        <pt x="735" y="860" on="0"/>
        <pt x="734" y="849" on="0"/>
        <pt x="733" y="838" on="0"/>
        <pt x="730" y="833" on="1"/>
        <pt x="739" y="827" on="1"/>
        <pt x="711" y="800" on="0"/>
        <pt x="686" y="737" on="0"/>
        <pt x="677" y="699" on="1"/>
        <pt x="672" y="679" on="0"/>
        <pt x="663" y="646" on="0"/>
        <pt x="649" y="617" on="0"/>
        <pt x="628" y="591" on="0"/>
        <pt x="610" y="578" on="1"/>
        <pt x="609" y="577" on="0"/>
        <pt x="608" y="575" on="1"/>
        <pt x="608" y="572" on="1"/>
        <pt x="604" y="543" on="0"/>
        <pt x="585" y="478" on="0"/>
        <pt x="561" y="410" on="0"/>
        <pt x="534" y="345" on="0"/>
        <pt x="523" y="318" on="1"/>
        <pt x="510" y="286" on="0"/>
        <pt x="485" y="219" on="0"/>
        <pt x="472" y="186" on="1"/>
        <pt x="487" y="184" on="0"/>
        <pt x="509" y="181" on="0"/>
        <pt x="530" y="181" on="0"/>
        <pt x="552" y="185" on="0"/>
        <pt x="565" y="190" on="1"/>
        <pt x="578" y="195" on="0"/>
        <pt x="617" y="199" on="0"/>
        <pt x="630" y="203" on="1"/>
        <pt x="633" y="215" on="0"/>
        <pt x="653" y="222" on="0"/>
        <pt x="679" y="222" on="0"/>
        <pt x="707" y="218" on="0"/>
        <pt x="733" y="220" on="0"/>
        <pt x="751" y="234" on="0"/>
        <pt x="754" y="252" on="1"/>
        <pt x="772" y="258" on="0"/>
        <pt x="799" y="274" on="0"/>
        <pt x="826" y="291" on="0"/>
        <pt x="853" y="304" on="0"/>
      </contour>
      <contour>
        <pt x="247" y="869" on="1"/>
        <pt x="243" y="871" on="0"/>
        <pt x="245" y="878" on="0"/>
        <pt x="246" y="882" on="1"/>
        <pt x="251" y="898" on="0"/>
        <pt x="244" y="909" on="0"/>
        <pt x="227" y="914" on="1"/>
        <pt x="227" y="891" on="0"/>
        <pt x="213" y="861" on="0"/>
        <pt x="193" y="836" on="0"/>
        <pt x="174" y="809" on="0"/>
        <pt x="169" y="788" on="1"/>
        <pt x="171" y="786" on="1"/>
        <pt x="185" y="768" on="0"/>
        <pt x="180" y="733" on="0"/>
        <pt x="172" y="698" on="0"/>
        <pt x="177" y="663" on="0"/>
        <pt x="201" y="646" on="1"/>
        <pt x="215" y="650" on="0"/>
        <pt x="223" y="669" on="0"/>
        <pt x="225" y="690" on="0"/>
        <pt x="228" y="710" on="0"/>
        <pt x="237" y="715" on="1"/>
        <pt x="242" y="718" on="1"/>
        <pt x="233" y="738" on="0"/>
        <pt x="239" y="777" on="0"/>
        <pt x="251" y="814" on="0"/>
        <pt x="258" y="849" on="0"/>
        <pt x="251" y="867" on="1"/>
      </contour>
      <contour>
        <pt x="540" y="551" on="1"/>
        <pt x="519" y="557" on="0"/>
        <pt x="486" y="548" on="0"/>
        <pt x="461" y="525" on="0"/>
        <pt x="445" y="492" on="0"/>
        <pt x="442" y="473" on="1"/>
        <pt x="434" y="472" on="0"/>
        <pt x="423" y="473" on="0"/>
        <pt x="418" y="481" on="1"/>
        <pt x="416" y="480" on="0"/>
        <pt x="415" y="478" on="0"/>
        <pt x="413" y="477" on="1"/>
        <pt x="397" y="466" on="0"/>
        <pt x="352" y="457" on="0"/>
        <pt x="305" y="458" on="0"/>
        <pt x="259" y="466" on="0"/>
        <pt x="241" y="472" on="1"/>
        <pt x="230" y="450" on="0"/>
        <pt x="211" y="408" on="0"/>
        <pt x="200" y="386" on="1"/>
        <pt x="182" y="351" on="0"/>
        <pt x="149" y="281" on="0"/>
        <pt x="135" y="243" on="1"/>
        <pt x="127" y="248" on="1"/>
        <pt x="103" y="224" on="0"/>
        <pt x="82" y="163" on="0"/>
        <pt x="72" y="132" on="1"/>
        <pt x="74" y="131" on="0"/>
        <pt x="79" y="131" on="0"/>
        <pt x="81" y="130" on="1"/>
        <pt x="98" y="127" on="0"/>
        <pt x="127" y="122" on="0"/>
        <pt x="142" y="117" on="1"/>
        <pt x="173" y="108" on="0"/>
        <pt x="232" y="97" on="0"/>
        <pt x="264" y="103" on="1"/>
        <pt x="263" y="103" on="1"/>
        <pt x="271" y="103" on="0"/>
        <pt x="280" y="111" on="0"/>
        <pt x="286" y="116" on="0"/>
        <pt x="294" y="114" on="0"/>
        <pt x="301" y="105" on="1"/>
        <pt x="303" y="108" on="0"/>
        <pt x="307" y="112" on="1"/>
        <pt x="313" y="117" on="0"/>
        <pt x="335" y="121" on="0"/>
        <pt x="355" y="127" on="0"/>
        <pt x="367" y="139" on="0"/>
        <pt x="363" y="152" on="1"/>
        <pt x="386" y="181" on="0"/>
        <pt x="422" y="247" on="0"/>
        <pt x="437" y="282" on="1"/>
        <pt x="439" y="286" on="0"/>
        <pt x="449" y="309" on="0"/>
        <pt x="461" y="334" on="0"/>
        <pt x="472" y="354" on="0"/>
        <pt x="474" y="356" on="1"/>
        <pt x="466" y="377" on="0"/>
        <pt x="482" y="426" on="0"/>
        <pt x="509" y="476" on="0"/>
        <pt x="536" y="524" on="0"/>
        <pt x="539" y="544" on="1"/>
      </contour>
    </TTGlyph>
    <TTGlyph name="H" xMin="-72" yMin="-37" xMax="963" yMax="1006">
      <contour>
        <pt x="963" y="371" on="1"/>
        <pt x="912" y="348" on="0"/>
        <pt x="805" y="319" on="0"/>
        <pt x="751" y="306" on="1"/>
        <pt x="749" y="306" on="0"/>
        <pt x="732" y="302" on="0"/>
        <pt x="714" y="297" on="0"/>
        <pt x="699" y="294" on="0"/>
        <pt x="699" y="294" on="1"/>
        <pt x="687" y="298" on="0"/>
        <pt x="664" y="291" on="0"/>
        <pt x="641" y="281" on="0"/>
        <pt x="615" y="276" on="0"/>
        <pt x="599" y="283" on="1"/>
        <pt x="596" y="284" on="0"/>
        <pt x="580" y="279" on="0"/>
        <pt x="564" y="271" on="0"/>
        <pt x="552" y="260" on="0"/>
        <pt x="551" y="256" on="1"/>
        <pt x="557" y="250" on="1"/>
        <pt x="558" y="247" on="0"/>
        <pt x="550" y="230" on="0"/>
        <pt x="540" y="211" on="0"/>
        <pt x="529" y="195" on="0"/>
        <pt x="526" y="193" on="1"/>
        <pt x="527" y="184" on="0"/>
        <pt x="516" y="159" on="0"/>
        <pt x="503" y="131" on="0"/>
        <pt x="492" y="101" on="0"/>
        <pt x="492" y="88" on="1"/>
        <pt x="492" y="84" on="0"/>
        <pt x="494" y="76" on="0"/>
        <pt x="493" y="73" on="1"/>
        <pt x="492" y="71" on="1"/>
        <pt x="482" y="63" on="0"/>
        <pt x="473" y="38" on="0"/>
        <pt x="468" y="11" on="0"/>
        <pt x="461" y="-15" on="0"/>
        <pt x="453" y="-25" on="1"/>
        <pt x="453" y="-26" on="1"/>
        <pt x="452" y="-27" on="1"/>
        <pt x="439" y="-33" on="0"/>
        <pt x="422" y="-25" on="0"/>
        <pt x="409" y="-9" on="0"/>
        <pt x="398" y="12" on="0"/>
        <pt x="391" y="20" on="1"/>
        <pt x="387" y="33" on="0"/>
        <pt x="389" y="52" on="0"/>
        <pt x="397" y="62" on="1"/>
        <pt x="399" y="63" on="1"/>
        <pt x="393" y="71" on="0"/>
        <pt x="398" y="84" on="0"/>
        <pt x="405" y="96" on="0"/>
        <pt x="408" y="109" on="0"/>
        <pt x="400" y="118" on="1"/>
        <pt x="402" y="120" on="1"/>
        <pt x="415" y="133" on="0"/>
        <pt x="417" y="166" on="0"/>
        <pt x="412" y="200" on="0"/>
        <pt x="411" y="234" on="0"/>
        <pt x="421" y="248" on="1"/>
        <pt x="422" y="249" on="1"/>
        <pt x="423" y="255" on="0"/>
        <pt x="405" y="275" on="0"/>
        <pt x="400" y="280" on="1"/>
        <pt x="394" y="265" on="0"/>
        <pt x="375" y="264" on="0"/>
        <pt x="352" y="270" on="0"/>
        <pt x="330" y="274" on="0"/>
        <pt x="321" y="265" on="1"/>
        <pt x="316" y="261" on="1"/>
        <pt x="314" y="265" on="1"/>
        <pt x="310" y="274" on="0"/>
        <pt x="297" y="275" on="0"/>
        <pt x="289" y="274" on="1"/>
        <pt x="277" y="273" on="0"/>
        <pt x="256" y="272" on="0"/>
        <pt x="245" y="272" on="1"/>
        <pt x="239" y="277" on="0"/>
        <pt x="224" y="275" on="0"/>
        <pt x="209" y="273" on="0"/>
        <pt x="194" y="274" on="0"/>
        <pt x="187" y="282" on="1"/>
        <pt x="180" y="279" on="0"/>
        <pt x="150" y="238" on="0"/>
        <pt x="117" y="188" on="0"/>
        <pt x="88" y="141" on="0"/>
        <pt x="83" y="132" on="1"/>
        <pt x="79" y="126" on="0"/>
        <pt x="68" y="108" on="0"/>
        <pt x="56" y="89" on="0"/>
        <pt x="46" y="72" on="0"/>
        <pt x="43" y="66" on="1"/>
        <pt x="44" y="63" on="1"/>
        <pt x="44" y="53" on="0"/>
        <pt x="38" y="42" on="0"/>
        <pt x="29" y="35" on="0"/>
        <pt x="21" y="30" on="0"/>
        <pt x="18" y="27" on="1"/>
        <pt x="10" y="27" on="0"/>
        <pt x="2" y="19" on="0"/>
        <pt x="-4" y="9" on="0"/>
        <pt x="-13" y="1" on="0"/>
        <pt x="-23" y="1" on="1"/>
        <pt x="-27" y="-4" on="0"/>
        <pt x="-29" y="-8" on="0"/>
        <pt x="-31" y="-14" on="1"/>
        <pt x="-33" y="-21" on="0"/>
        <pt x="-36" y="-27" on="0"/>
        <pt x="-39" y="-30" on="0"/>
        <pt x="-43" y="-33" on="0"/>
        <pt x="-45" y="-36" on="1"/>
        <pt x="-51" y="-37" on="0"/>
        <pt x="-57" y="-31" on="0"/>
        <pt x="-63" y="-22" on="0"/>
        <pt x="-68" y="-13" on="0"/>
        <pt x="-72" y="-11" on="1"/>
        <pt x="-71" y="-8" on="1"/>
        <pt x="-51" y="51" on="0"/>
        <pt x="5" y="158" on="0"/>
        <pt x="37" y="211" on="1"/>
        <pt x="39" y="215" on="0"/>
        <pt x="41" y="223" on="0"/>
        <pt x="43" y="227" on="1"/>
        <pt x="48" y="240" on="0"/>
        <pt x="59" y="264" on="0"/>
        <pt x="67" y="275" on="1"/>
        <pt x="74" y="286" on="0"/>
        <pt x="85" y="306" on="0"/>
        <pt x="90" y="317" on="1"/>
        <pt x="88" y="319" on="1"/>
        <pt x="56" y="345" on="0"/>
        <pt x="9" y="400" on="0"/>
        <pt x="-12" y="435" on="1"/>
        <pt x="-17" y="444" on="0"/>
        <pt x="-27" y="463" on="0"/>
        <pt x="-32" y="471" on="1"/>
        <pt x="-33" y="472" on="1"/>
        <pt x="-33" y="492" on="0"/>
        <pt x="-27" y="532" on="0"/>
        <pt x="-12" y="547" on="1"/>
        <pt x="-11" y="548" on="1"/>
        <pt x="-11" y="549" on="1"/>
        <pt x="-6" y="559" on="0"/>
        <pt x="6" y="569" on="0"/>
        <pt x="19" y="575" on="0"/>
        <pt x="33" y="580" on="0"/>
        <pt x="40" y="586" on="1"/>
        <pt x="40" y="587" on="1"/>
        <pt x="63" y="597" on="0"/>
        <pt x="107" y="611" on="0"/>
        <pt x="132" y="598" on="1"/>
        <pt x="134" y="599" on="1"/>
        <pt x="143" y="604" on="0"/>
        <pt x="169" y="605" on="0"/>
        <pt x="179" y="605" on="1"/>
        <pt x="185" y="602" on="0"/>
        <pt x="198" y="593" on="0"/>
        <pt x="211" y="585" on="0"/>
        <pt x="225" y="581" on="0"/>
        <pt x="231" y="584" on="1"/>
        <pt x="232" y="584" on="1"/>
        <pt x="232" y="585" on="1"/>
        <pt x="242" y="595" on="0"/>
        <pt x="254" y="632" on="0"/>
        <pt x="267" y="674" on="0"/>
        <pt x="283" y="715" on="0"/>
        <pt x="297" y="730" on="1"/>
        <pt x="297" y="733" on="0"/>
        <pt x="305" y="754" on="0"/>
        <pt x="314" y="781" on="0"/>
        <pt x="319" y="808" on="0"/>
        <pt x="316" y="817" on="1"/>
        <pt x="325" y="816" on="1"/>
        <pt x="329" y="820" on="0"/>
        <pt x="330" y="823" on="1"/>
        <pt x="329" y="826" on="1"/>
        <pt x="325" y="830" on="0"/>
        <pt x="327" y="842" on="0"/>
        <pt x="329" y="847" on="1"/>
        <pt x="328" y="847" on="1"/>
        <pt x="327" y="851" on="1"/>
        <pt x="330" y="852" on="0"/>
        <pt x="347" y="858" on="0"/>
        <pt x="365" y="866" on="0"/>
        <pt x="380" y="872" on="0"/>
        <pt x="381" y="872" on="1"/>
        <pt x="395" y="864" on="0"/>
        <pt x="398" y="844" on="0"/>
        <pt x="395" y="830" on="1"/>
        <pt x="394" y="823" on="0"/>
        <pt x="395" y="814" on="0"/>
        <pt x="395" y="808" on="1"/>
        <pt x="395" y="798" on="0"/>
        <pt x="385" y="769" on="0"/>
        <pt x="372" y="737" on="0"/>
        <pt x="356" y="709" on="0"/>
        <pt x="350" y="700" on="1"/>
        <pt x="350" y="694" on="1"/>
        <pt x="350" y="673" on="0"/>
        <pt x="338" y="628" on="0"/>
        <pt x="320" y="584" on="0"/>
        <pt x="299" y="542" on="0"/>
        <pt x="289" y="523" on="1"/>
        <pt x="282" y="511" on="0"/>
        <pt x="266" y="480" on="0"/>
        <pt x="251" y="448" on="0"/>
        <pt x="240" y="415" on="0"/>
        <pt x="238" y="402" on="1"/>
        <pt x="238" y="401" on="1"/>
        <pt x="213" y="354" on="1"/>
        <pt x="217" y="349" on="0"/>
        <pt x="234" y="342" on="0"/>
        <pt x="253" y="336" on="0"/>
        <pt x="272" y="333" on="0"/>
        <pt x="279" y="333" on="1"/>
        <pt x="290" y="333" on="0"/>
        <pt x="305" y="330" on="0"/>
        <pt x="313" y="321" on="1"/>
        <pt x="315" y="319" on="1"/>
        <pt x="317" y="319" on="1"/>
        <pt x="325" y="321" on="0"/>
        <pt x="337" y="321" on="0"/>
        <pt x="345" y="321" on="1"/>
        <pt x="353" y="319" on="0"/>
        <pt x="368" y="321" on="0"/>
        <pt x="376" y="322" on="1"/>
        <pt x="375" y="315" on="1"/>
        <pt x="380" y="310" on="0"/>
        <pt x="383" y="308" on="1"/>
        <pt x="388" y="316" on="0"/>
        <pt x="395" y="324" on="1"/>
        <pt x="399" y="318" on="0"/>
        <pt x="402" y="315" on="1"/>
        <pt x="405" y="317" on="0"/>
        <pt x="414" y="329" on="0"/>
        <pt x="416" y="329" on="1"/>
        <pt x="417" y="330" on="1"/>
        <pt x="418" y="329" on="1"/>
        <pt x="436" y="323" on="0"/>
        <pt x="466" y="327" on="0"/>
        <pt x="484" y="327" on="1"/>
        <pt x="487" y="334" on="0"/>
        <pt x="498" y="342" on="0"/>
        <pt x="507" y="351" on="0"/>
        <pt x="509" y="361" on="0"/>
        <pt x="503" y="370" on="1"/>
        <pt x="502" y="372" on="1"/>
        <pt x="502" y="372" on="0"/>
        <pt x="509" y="384" on="0"/>
        <pt x="517" y="399" on="0"/>
        <pt x="524" y="411" on="0"/>
        <pt x="525" y="413" on="1"/>
        <pt x="545" y="446" on="0"/>
        <pt x="575" y="515" on="0"/>
        <pt x="575" y="554" on="1"/>
        <pt x="575" y="561" on="1"/>
        <pt x="577" y="562" on="0"/>
        <pt x="579" y="562" on="1"/>
        <pt x="594" y="568" on="0"/>
        <pt x="596" y="589" on="0"/>
        <pt x="592" y="613" on="0"/>
        <pt x="597" y="637" on="0"/>
        <pt x="615" y="646" on="1"/>
        <pt x="617" y="647" on="1"/>
        <pt x="618" y="649" on="1"/>
        <pt x="624" y="664" on="0"/>
        <pt x="633" y="695" on="0"/>
        <pt x="639" y="710" on="1"/>
        <pt x="658" y="755" on="0"/>
        <pt x="667" y="807" on="1"/>
        <pt x="669" y="819" on="0"/>
        <pt x="684" y="838" on="0"/>
        <pt x="700" y="857" on="0"/>
        <pt x="713" y="878" on="0"/>
        <pt x="713" y="891" on="1"/>
        <pt x="713" y="899" on="0"/>
        <pt x="711" y="902" on="1"/>
        <pt x="711" y="905" on="1"/>
        <pt x="713" y="906" on="1"/>
        <pt x="733" y="916" on="0"/>
        <pt x="755" y="946" on="0"/>
        <pt x="755" y="969" on="1"/>
        <pt x="755" y="972" on="0"/>
        <pt x="754" y="988" on="0"/>
        <pt x="752" y="990" on="1"/>
        <pt x="761" y="996" on="0"/>
        <pt x="771" y="1006" on="1"/>
        <pt x="773" y="1005" on="1"/>
        <pt x="792" y="991" on="0"/>
        <pt x="801" y="962" on="0"/>
        <pt x="796" y="932" on="0"/>
        <pt x="786" y="900" on="0"/>
        <pt x="786" y="883" on="1"/>
        <pt x="785" y="882" on="1"/>
        <pt x="770" y="856" on="0"/>
        <pt x="752" y="790" on="0"/>
        <pt x="752" y="759" on="1"/>
        <pt x="741" y="759" on="0"/>
        <pt x="736" y="749" on="0"/>
        <pt x="733" y="734" on="0"/>
        <pt x="728" y="718" on="0"/>
        <pt x="718" y="712" on="1"/>
        <pt x="720" y="709" on="1"/>
        <pt x="720" y="707" on="0"/>
        <pt x="721" y="705" on="0"/>
        <pt x="721" y="703" on="1"/>
        <pt x="721" y="697" on="0"/>
        <pt x="715" y="688" on="0"/>
        <pt x="709" y="679" on="0"/>
        <pt x="708" y="669" on="0"/>
        <pt x="713" y="663" on="1"/>
        <pt x="717" y="657" on="0"/>
        <pt x="718" y="656" on="1"/>
        <pt x="707" y="656" on="1"/>
        <pt x="691" y="625" on="0"/>
        <pt x="665" y="561" on="0"/>
        <pt x="654" y="528" on="1"/>
        <pt x="645" y="500" on="0"/>
        <pt x="625" y="446" on="0"/>
        <pt x="611" y="420" on="1"/>
        <pt x="611" y="417" on="1"/>
        <pt x="620" y="400" on="0"/>
        <pt x="605" y="380" on="0"/>
        <pt x="588" y="365" on="0"/>
        <pt x="582" y="351" on="0"/>
        <pt x="599" y="340" on="1"/>
        <pt x="612" y="353" on="0"/>
        <pt x="634" y="345" on="0"/>
        <pt x="650" y="341" on="1"/>
        <pt x="653" y="344" on="0"/>
        <pt x="658" y="349" on="0"/>
        <pt x="664" y="347" on="1"/>
        <pt x="665" y="346" on="0"/>
        <pt x="667" y="345" on="0"/>
        <pt x="668" y="344" on="1"/>
        <pt x="674" y="353" on="0"/>
        <pt x="684" y="355" on="0"/>
        <pt x="694" y="351" on="0"/>
        <pt x="704" y="347" on="0"/>
        <pt x="709" y="350" on="1"/>
        <pt x="712" y="352" on="0"/>
        <pt x="714" y="361" on="0"/>
        <pt x="716" y="365" on="1"/>
        <pt x="731" y="350" on="0"/>
        <pt x="752" y="351" on="0"/>
        <pt x="771" y="362" on="0"/>
        <pt x="790" y="372" on="0"/>
        <pt x="803" y="366" on="1"/>
        <pt x="814" y="366" on="0"/>
        <pt x="837" y="371" on="0"/>
        <pt x="848" y="373" on="1"/>
        <pt x="877" y="378" on="0"/>
        <pt x="933" y="384" on="0"/>
        <pt x="962" y="379" on="1"/>
      </contour>
      <contour>
        <pt x="194" y="563" on="1"/>
        <pt x="185" y="563" on="0"/>
        <pt x="170" y="561" on="0"/>
        <pt x="164" y="555" on="1"/>
        <pt x="163" y="556" on="0"/>
        <pt x="162" y="556" on="1"/>
        <pt x="123" y="567" on="0"/>
        <pt x="51" y="537" on="0"/>
        <pt x="25" y="509" on="1"/>
        <pt x="23" y="501" on="1"/>
        <pt x="22" y="498" on="0"/>
        <pt x="22" y="491" on="0"/>
        <pt x="22" y="489" on="1"/>
        <pt x="22" y="470" on="0"/>
        <pt x="31" y="454" on="1"/>
        <pt x="37" y="442" on="0"/>
        <pt x="54" y="426" on="0"/>
        <pt x="75" y="412" on="0"/>
        <pt x="96" y="398" on="0"/>
        <pt x="105" y="388" on="1"/>
        <pt x="125" y="388" on="0"/>
        <pt x="140" y="409" on="0"/>
        <pt x="147" y="438" on="0"/>
        <pt x="155" y="468" on="0"/>
        <pt x="168" y="477" on="1"/>
        <pt x="169" y="477" on="0"/>
        <pt x="169" y="478" on="0"/>
        <pt x="170" y="478" on="1"/>
        <pt x="166" y="488" on="0"/>
        <pt x="175" y="508" on="0"/>
        <pt x="188" y="528" on="0"/>
        <pt x="197" y="550" on="0"/>
      </contour>
    </TTGlyph>
    <TTGlyph name="I" xMin="-93" yMin="-158" xMax="1199" yMax="905">
      <contour>
        <pt x="1199" y="466" on="1"/>
        <pt x="1194" y="448" on="0"/>
        <pt x="1171" y="427" on="0"/>
        <pt x="1142" y="412" on="0"/>
        <pt x="1112" y="397" on="0"/>
        <pt x="1101" y="385" on="1"/>
        <pt x="1095" y="392" on="1"/>
        <pt x="1093" y="391" on="1"/>
        <pt x="1079" y="386" on="0"/>
        <pt x="1065" y="376" on="0"/>
        <pt x="1057" y="362" on="1"/>
        <pt x="1049" y="348" on="0"/>
        <pt x="1036" y="343" on="0"/>
        <pt x="1019" y="344" on="1"/>
        <pt x="1008" y="344" on="0"/>
        <pt x="992" y="337" on="0"/>
        <pt x="978" y="326" on="0"/>
        <pt x="965" y="313" on="0"/>
        <pt x="956" y="309" on="1"/>
        <pt x="948" y="312" on="0"/>
        <pt x="929" y="313" on="0"/>
        <pt x="921" y="315" on="1"/>
        <pt x="916" y="310" on="0"/>
        <pt x="903" y="301" on="0"/>
        <pt x="898" y="296" on="1"/>
        <pt x="894" y="300" on="0"/>
        <pt x="885" y="298" on="0"/>
        <pt x="880" y="296" on="1"/>
        <pt x="876" y="294" on="0"/>
        <pt x="871" y="295" on="0"/>
        <pt x="866" y="294" on="1"/>
        <pt x="854" y="291" on="0"/>
        <pt x="847" y="278" on="0"/>
        <pt x="846" y="261" on="0"/>
        <pt x="846" y="245" on="0"/>
        <pt x="840" y="241" on="1"/>
        <pt x="839" y="241" on="1"/>
        <pt x="839" y="240" on="1"/>
        <pt x="832" y="220" on="0"/>
        <pt x="800" y="185" on="0"/>
        <pt x="774" y="148" on="0"/>
        <pt x="768" y="109" on="0"/>
        <pt x="787" y="85" on="1"/>
        <pt x="787" y="84" on="1"/>
        <pt x="788" y="84" on="1"/>
        <pt x="805" y="72" on="0"/>
        <pt x="816" y="33" on="0"/>
        <pt x="821" y="14" on="1"/>
        <pt x="822" y="13" on="1"/>
        <pt x="840" y="-1" on="0"/>
        <pt x="870" y="-31" on="0"/>
        <pt x="885" y="-48" on="1"/>
        <pt x="907" y="-74" on="0"/>
        <pt x="951" y="-113" on="0"/>
        <pt x="984" y="-124" on="1"/>
        <pt x="982" y="-132" on="0"/>
        <pt x="983" y="-148" on="0"/>
        <pt x="982" y="-156" on="1"/>
        <pt x="970" y="-158" on="0"/>
        <pt x="949" y="-153" on="0"/>
        <pt x="929" y="-146" on="0"/>
        <pt x="909" y="-138" on="0"/>
        <pt x="897" y="-137" on="1"/>
        <pt x="876" y="-111" on="0"/>
        <pt x="827" y="-73" on="0"/>
        <pt x="802" y="-50" on="1"/>
        <pt x="799" y="-31" on="0"/>
        <pt x="783" y="-5" on="0"/>
        <pt x="771" y="10" on="1"/>
        <pt x="766" y="16" on="0"/>
        <pt x="757" y="32" on="0"/>
        <pt x="751" y="38" on="1"/>
        <pt x="745" y="43" on="0"/>
        <pt x="728" y="63" on="0"/>
        <pt x="728" y="71" on="1"/>
        <pt x="728" y="80" on="0"/>
        <pt x="732" y="97" on="0"/>
        <pt x="732" y="106" on="1"/>
        <pt x="732" y="119" on="0"/>
        <pt x="720" y="134" on="0"/>
        <pt x="709" y="139" on="1"/>
        <pt x="707" y="140" on="1"/>
        <pt x="706" y="139" on="1"/>
        <pt x="692" y="129" on="0"/>
        <pt x="680" y="107" on="0"/>
        <pt x="673" y="91" on="1"/>
        <pt x="667" y="77" on="0"/>
        <pt x="655" y="55" on="0"/>
        <pt x="638" y="41" on="0"/>
        <pt x="614" y="39" on="0"/>
        <pt x="597" y="45" on="1"/>
        <pt x="595" y="45" on="1"/>
        <pt x="590" y="40" on="0"/>
        <pt x="579" y="30" on="0"/>
        <pt x="573" y="25" on="1"/>
        <pt x="565" y="34" on="0"/>
        <pt x="541" y="28" on="0"/>
        <pt x="531" y="24" on="1"/>
        <pt x="531" y="23" on="1"/>
        <pt x="525" y="11" on="0"/>
        <pt x="499" y="9" on="0"/>
        <pt x="466" y="12" on="0"/>
        <pt x="432" y="14" on="0"/>
        <pt x="418" y="7" on="1"/>
        <pt x="410" y="14" on="0"/>
        <pt x="395" y="15" on="0"/>
        <pt x="380" y="10" on="0"/>
        <pt x="364" y="2" on="0"/>
        <pt x="356" y="1" on="1"/>
        <pt x="345" y="7" on="0"/>
        <pt x="306" y="21" on="0"/>
        <pt x="264" y="36" on="0"/>
        <pt x="228" y="52" on="0"/>
        <pt x="221" y="60" on="1"/>
        <pt x="220" y="60" on="1"/>
        <pt x="198" y="60" on="0"/>
        <pt x="169" y="73" on="0"/>
        <pt x="151" y="86" on="1"/>
        <pt x="138" y="94" on="0"/>
        <pt x="116" y="107" on="0"/>
        <pt x="100" y="112" on="1"/>
        <pt x="98" y="113" on="1"/>
        <pt x="93" y="103" on="0"/>
        <pt x="83" y="111" on="0"/>
        <pt x="76" y="117" on="1"/>
        <pt x="81" y="122" on="0"/>
        <pt x="82" y="135" on="0"/>
        <pt x="82" y="141" on="1"/>
        <pt x="70" y="152" on="0"/>
        <pt x="51" y="158" on="0"/>
        <pt x="34" y="163" on="0"/>
        <pt x="20" y="171" on="0"/>
        <pt x="13" y="184" on="1"/>
        <pt x="12" y="184" on="1"/>
        <pt x="-3" y="188" on="0"/>
        <pt x="-12" y="215" on="0"/>
        <pt x="-18" y="243" on="0"/>
        <pt x="-32" y="268" on="0"/>
        <pt x="-52" y="271" on="1"/>
        <pt x="-60" y="287" on="0"/>
        <pt x="-81" y="320" on="0"/>
        <pt x="-93" y="353" on="0"/>
        <pt x="-91" y="387" on="0"/>
        <pt x="-77" y="404" on="1"/>
        <pt x="-62" y="412" on="0"/>
        <pt x="-32" y="395" on="0"/>
        <pt x="-4" y="364" on="0"/>
        <pt x="20" y="330" on="0"/>
        <pt x="31" y="323" on="1"/>
        <pt x="32" y="323" on="1"/>
        <pt x="58" y="315" on="0"/>
        <pt x="111" y="289" on="0"/>
        <pt x="133" y="274" on="1"/>
        <pt x="140" y="269" on="0"/>
        <pt x="152" y="261" on="0"/>
        <pt x="158" y="256" on="1"/>
        <pt x="159" y="256" on="0"/>
        <pt x="160" y="255" on="1"/>
        <pt x="162" y="256" on="1"/>
        <pt x="177" y="263" on="0"/>
        <pt x="201" y="260" on="0"/>
        <pt x="221" y="251" on="0"/>
        <pt x="240" y="242" on="0"/>
        <pt x="251" y="244" on="1"/>
        <pt x="262" y="234" on="0"/>
        <pt x="286" y="235" on="0"/>
        <pt x="309" y="241" on="0"/>
        <pt x="331" y="242" on="0"/>
        <pt x="341" y="233" on="1"/>
        <pt x="341" y="232" on="1"/>
        <pt x="367" y="229" on="0"/>
        <pt x="401" y="231" on="0"/>
        <pt x="420" y="251" on="1"/>
        <pt x="427" y="243" on="1"/>
        <pt x="438" y="250" on="0"/>
        <pt x="464" y="254" on="0"/>
        <pt x="491" y="256" on="0"/>
        <pt x="517" y="264" on="0"/>
        <pt x="528" y="276" on="1"/>
        <pt x="533" y="271" on="0"/>
        <pt x="547" y="269" on="0"/>
        <pt x="553" y="269" on="1"/>
        <pt x="555" y="271" on="0"/>
        <pt x="558" y="272" on="0"/>
        <pt x="559" y="274" on="1"/>
        <pt x="563" y="268" on="0"/>
        <pt x="573" y="268" on="0"/>
        <pt x="584" y="273" on="0"/>
        <pt x="594" y="280" on="0"/>
        <pt x="597" y="282" on="1"/>
        <pt x="603" y="275" on="0"/>
        <pt x="614" y="274" on="0"/>
        <pt x="625" y="279" on="0"/>
        <pt x="637" y="284" on="0"/>
        <pt x="643" y="282" on="1"/>
        <pt x="644" y="281" on="1"/>
        <pt x="682" y="287" on="1"/>
        <pt x="676" y="303" on="0"/>
        <pt x="676" y="345" on="0"/>
        <pt x="690" y="358" on="1"/>
        <pt x="690" y="359" on="0"/>
        <pt x="685" y="370" on="0"/>
        <pt x="680" y="381" on="0"/>
        <pt x="676" y="390" on="0"/>
        <pt x="676" y="391" on="1"/>
        <pt x="678" y="399" on="0"/>
        <pt x="680" y="417" on="0"/>
        <pt x="682" y="425" on="1"/>
        <pt x="685" y="443" on="0"/>
        <pt x="688" y="480" on="0"/>
        <pt x="689" y="499" on="1"/>
        <pt x="691" y="528" on="0"/>
        <pt x="690" y="583" on="0"/>
        <pt x="692" y="612" on="1"/>
        <pt x="693" y="628" on="0"/>
        <pt x="710" y="664" on="0"/>
        <pt x="729" y="703" on="0"/>
        <pt x="745" y="746" on="0"/>
        <pt x="745" y="769" on="1"/>
        <pt x="751" y="775" on="0"/>
        <pt x="765" y="785" on="0"/>
        <pt x="776" y="796" on="0"/>
        <pt x="781" y="811" on="0"/>
        <pt x="778" y="821" on="1"/>
        <pt x="804" y="837" on="0"/>
        <pt x="839" y="872" on="0"/>
        <pt x="849" y="901" on="1"/>
        <pt x="867" y="899" on="0"/>
        <pt x="891" y="904" on="0"/>
        <pt x="906" y="905" on="1"/>
        <pt x="921" y="877" on="0"/>
        <pt x="957" y="817" on="0"/>
        <pt x="961" y="786" on="1"/>
        <pt x="953" y="782" on="0"/>
        <pt x="952" y="764" on="0"/>
        <pt x="952" y="756" on="1"/>
        <pt x="951" y="754" on="1"/>
        <pt x="967" y="738" on="0"/>
        <pt x="979" y="723" on="1"/>
        <pt x="955" y="707" on="0"/>
        <pt x="943" y="661" on="0"/>
        <pt x="962" y="638" on="1"/>
        <pt x="960" y="619" on="0"/>
        <pt x="948" y="582" on="0"/>
        <pt x="943" y="563" on="1"/>
        <pt x="906" y="418" on="1"/>
        <pt x="911" y="414" on="0"/>
        <pt x="905" y="393" on="0"/>
        <pt x="893" y="369" on="0"/>
        <pt x="879" y="348" on="0"/>
        <pt x="876" y="344" on="1"/>
        <pt x="880" y="339" on="1"/>
        <pt x="900" y="350" on="0"/>
        <pt x="943" y="373" on="0"/>
        <pt x="964" y="383" on="1"/>
        <pt x="990" y="395" on="0"/>
        <pt x="1042" y="421" on="0"/>
        <pt x="1065" y="438" on="1"/>
        <pt x="1077" y="429" on="0"/>
        <pt x="1089" y="438" on="0"/>
        <pt x="1100" y="452" on="0"/>
        <pt x="1115" y="461" on="0"/>
        <pt x="1129" y="451" on="1"/>
        <pt x="1130" y="452" on="0"/>
        <pt x="1130" y="454" on="1"/>
        <pt x="1141" y="475" on="0"/>
        <pt x="1182" y="473" on="0"/>
      </contour>
      <contour>
        <pt x="890" y="751" on="1"/>
        <pt x="883" y="757" on="0"/>
        <pt x="882" y="779" on="0"/>
        <pt x="879" y="800" on="0"/>
        <pt x="867" y="816" on="0"/>
        <pt x="848" y="816" on="1"/>
        <pt x="847" y="814" on="1"/>
        <pt x="839" y="799" on="0"/>
        <pt x="816" y="751" on="0"/>
        <pt x="794" y="700" on="0"/>
        <pt x="778" y="653" on="0"/>
        <pt x="778" y="638" on="1"/>
        <pt x="785" y="621" on="0"/>
        <pt x="771" y="586" on="0"/>
        <pt x="753" y="549" on="0"/>
        <pt x="744" y="509" on="0"/>
        <pt x="756" y="487" on="1"/>
        <pt x="739" y="465" on="0"/>
        <pt x="738" y="425" on="0"/>
        <pt x="750" y="384" on="0"/>
        <pt x="765" y="343" on="0"/>
        <pt x="765" y="321" on="1"/>
        <pt x="787" y="326" on="0"/>
        <pt x="808" y="346" on="0"/>
        <pt x="817" y="371" on="0"/>
        <pt x="819" y="399" on="0"/>
        <pt x="825" y="424" on="0"/>
        <pt x="839" y="445" on="0"/>
        <pt x="855" y="450" on="1"/>
        <pt x="849" y="463" on="0"/>
        <pt x="859" y="512" on="0"/>
        <pt x="873" y="568" on="0"/>
        <pt x="883" y="623" on="0"/>
        <pt x="878" y="642" on="1"/>
        <pt x="886" y="661" on="0"/>
        <pt x="888" y="691" on="0"/>
        <pt x="888" y="711" on="1"/>
        <pt x="888" y="719" on="0"/>
        <pt x="891" y="745" on="0"/>
      </contour>
      <contour>
        <pt x="679" y="217" on="1"/>
        <pt x="670" y="212" on="0"/>
        <pt x="648" y="202" on="0"/>
        <pt x="624" y="195" on="0"/>
        <pt x="600" y="195" on="0"/>
        <pt x="591" y="201" on="1"/>
        <pt x="591" y="174" on="0"/>
        <pt x="572" y="168" on="0"/>
        <pt x="543" y="176" on="0"/>
        <pt x="511" y="181" on="0"/>
        <pt x="499" y="164" on="1"/>
        <pt x="484" y="165" on="0"/>
        <pt x="451" y="155" on="0"/>
        <pt x="418" y="150" on="0"/>
        <pt x="389" y="156" on="0"/>
        <pt x="378" y="172" on="1"/>
        <pt x="375" y="167" on="1"/>
        <pt x="365" y="151" on="0"/>
        <pt x="338" y="146" on="0"/>
        <pt x="308" y="149" on="0"/>
        <pt x="279" y="151" on="0"/>
        <pt x="268" y="142" on="1"/>
        <pt x="254" y="140" on="0"/>
        <pt x="232" y="153" on="0"/>
        <pt x="219" y="160" on="1"/>
        <pt x="214" y="156" on="1"/>
        <pt x="213" y="156" on="1"/>
        <pt x="214" y="158" on="0"/>
        <pt x="216" y="160" on="1"/>
        <pt x="213" y="161" on="0"/>
        <pt x="200" y="165" on="0"/>
        <pt x="196" y="167" on="1"/>
        <pt x="188" y="170" on="0"/>
        <pt x="173" y="176" on="0"/>
        <pt x="165" y="176" on="1"/>
        <pt x="154" y="176" on="0"/>
        <pt x="128" y="192" on="0"/>
        <pt x="119" y="199" on="1"/>
        <pt x="113" y="204" on="0"/>
        <pt x="98" y="212" on="0"/>
        <pt x="90" y="214" on="1"/>
        <pt x="86" y="209" on="1"/>
        <pt x="92" y="197" on="0"/>
        <pt x="107" y="183" on="0"/>
        <pt x="123" y="171" on="0"/>
        <pt x="141" y="160" on="0"/>
        <pt x="149" y="152" on="1"/>
        <pt x="154" y="135" on="0"/>
        <pt x="188" y="120" on="0"/>
        <pt x="231" y="111" on="0"/>
        <pt x="275" y="102" on="0"/>
        <pt x="290" y="91" on="1"/>
        <pt x="299" y="85" on="0"/>
        <pt x="323" y="81" on="0"/>
        <pt x="347" y="78" on="0"/>
        <pt x="367" y="72" on="0"/>
        <pt x="372" y="62" on="1"/>
        <pt x="391" y="61" on="1"/>
        <pt x="392" y="62" on="0"/>
        <pt x="392" y="63" on="1"/>
        <pt x="403" y="78" on="0"/>
        <pt x="431" y="75" on="0"/>
        <pt x="460" y="66" on="0"/>
        <pt x="489" y="67" on="0"/>
        <pt x="500" y="87" on="1"/>
        <pt x="512" y="83" on="0"/>
        <pt x="542" y="94" on="0"/>
        <pt x="571" y="108" on="0"/>
        <pt x="594" y="118" on="0"/>
        <pt x="600" y="114" on="1"/>
        <pt x="602" y="118" on="0"/>
        <pt x="623" y="135" on="0"/>
        <pt x="626" y="138" on="1"/>
        <pt x="641" y="150" on="0"/>
        <pt x="655" y="165" on="0"/>
        <pt x="664" y="180" on="0"/>
        <pt x="671" y="200" on="0"/>
      </contour>
    </TTGlyph>
    <TTGlyph name="Iacute" xMin="-93" yMin="-158" xMax="1199" yMax="1207">
      <component glyphName="I" x="0" y="0" flags="0x204"/>
      <component glyphName="acute" x="809" y="328" flags="0x4"/>
    </TTGlyph>
    <TTGlyph name="Icircumflex" xMin="-93" yMin="-158" xMax="1199" yMax="1204">
      <component glyphName="I" x="0" y="0" flags="0x204"/>
      <component glyphName="circumflex" x="748" y="215" flags="0x4"/>
    </TTGlyph>
    <TTGlyph name="Idieresis" xMin="-93" yMin="-158" xMax="1199" yMax="1143">
      <component glyphName="I" x="0" y="0" flags="0x204"/>
      <component glyphName="dieresis" x="748" y="113" flags="0x4"/>
    </TTGlyph>
    <TTGlyph name="Igrave" xMin="-93" yMin="-158" xMax="1199" yMax="1307">
      <component glyphName="I" x="0" y="0" flags="0x204"/>
      <component glyphName="grave" x="799" y="379" flags="0x4"/>
    </TTGlyph>
    <TTGlyph name="J" xMin="-143" yMin="-473" xMax="508" yMax="983">
      <contour>
        <pt x="508" y="214" on="1"/>
        <pt x="498" y="190" on="0"/>
        <pt x="468" y="179" on="0"/>
        <pt x="452" y="179" on="1"/>
        <pt x="438" y="180" on="0"/>
        <pt x="407" y="185" on="0"/>
        <pt x="393" y="183" on="1"/>
        <pt x="364" y="163" on="0"/>
        <pt x="336" y="106" on="0"/>
        <pt x="318" y="41" on="0"/>
        <pt x="303" y="-24" on="0"/>
        <pt x="287" y="-52" on="1"/>
        <pt x="276" y="-72" on="0"/>
        <pt x="262" y="-117" on="0"/>
        <pt x="247" y="-162" on="0"/>
        <pt x="226" y="-203" on="0"/>
        <pt x="207" y="-218" on="1"/>
        <pt x="212" y="-226" on="0"/>
        <pt x="206" y="-240" on="0"/>
        <pt x="201" y="-245" on="1"/>
        <pt x="197" y="-250" on="1"/>
        <pt x="191" y="-256" on="1"/>
        <pt x="194" y="-278" on="0"/>
        <pt x="169" y="-315" on="0"/>
        <pt x="157" y="-332" on="1"/>
        <pt x="152" y="-337" on="0"/>
        <pt x="145" y="-349" on="0"/>
        <pt x="141" y="-357" on="1"/>
        <pt x="119" y="-350" on="0"/>
        <pt x="109" y="-360" on="1"/>
        <pt x="102" y="-392" on="1"/>
        <pt x="95" y="-381" on="1"/>
        <pt x="87" y="-400" on="0"/>
        <pt x="60" y="-420" on="0"/>
        <pt x="29" y="-430" on="0"/>
        <pt x="-6" y="-437" on="0"/>
        <pt x="-22" y="-443" on="1"/>
        <pt x="-32" y="-448" on="0"/>
        <pt x="-47" y="-461" on="0"/>
        <pt x="-55" y="-472" on="1"/>
        <pt x="-89" y="-473" on="0"/>
        <pt x="-129" y="-435" on="0"/>
        <pt x="-143" y="-410" on="1"/>
        <pt x="-136" y="-385" on="0"/>
        <pt x="-129" y="-333" on="0"/>
        <pt x="-120" y="-282" on="0"/>
        <pt x="-105" y="-233" on="0"/>
        <pt x="-91" y="-210" on="1"/>
        <pt x="-94" y="-200" on="0"/>
        <pt x="-91" y="-182" on="0"/>
        <pt x="-83" y="-166" on="0"/>
        <pt x="-72" y="-151" on="0"/>
        <pt x="-69" y="-143" on="1"/>
        <pt x="-64" y="-134" on="0"/>
        <pt x="-67" y="-123" on="1"/>
        <pt x="-51" y="-99" on="0"/>
        <pt x="-23" y="-54" on="0"/>
        <pt x="7" y="-10" on="0"/>
        <pt x="42" y="31" on="0"/>
        <pt x="65" y="49" on="1"/>
        <pt x="68" y="65" on="1"/>
        <pt x="90" y="79" on="0"/>
        <pt x="125" y="117" on="0"/>
        <pt x="145" y="134" on="1"/>
        <pt x="182" y="165" on="0"/>
        <pt x="254" y="208" on="0"/>
        <pt x="302" y="216" on="1"/>
        <pt x="311" y="221" on="0"/>
        <pt x="310" y="238" on="0"/>
        <pt x="308" y="257" on="0"/>
        <pt x="312" y="275" on="0"/>
        <pt x="326" y="280" on="1"/>
        <pt x="327" y="286" on="0"/>
        <pt x="333" y="306" on="0"/>
        <pt x="336" y="326" on="0"/>
        <pt x="333" y="342" on="0"/>
        <pt x="324" y="343" on="1"/>
        <pt x="316" y="344" on="0"/>
        <pt x="304" y="346" on="0"/>
        <pt x="301" y="354" on="1"/>
        <pt x="272" y="358" on="0"/>
        <pt x="212" y="375" on="0"/>
        <pt x="180" y="378" on="1"/>
        <pt x="176" y="391" on="0"/>
        <pt x="155" y="406" on="0"/>
        <pt x="129" y="417" on="0"/>
        <pt x="103" y="427" on="0"/>
        <pt x="94" y="436" on="1"/>
        <pt x="79" y="450" on="0"/>
        <pt x="49" y="482" on="0"/>
        <pt x="25" y="518" on="0"/>
        <pt x="9" y="559" on="0"/>
        <pt x="8" y="582" on="1"/>
        <pt x="-10" y="609" on="1"/>
        <pt x="-3" y="613" on="1"/>
        <pt x="-8" y="620" on="0"/>
        <pt x="-12" y="631" on="0"/>
        <pt x="-9" y="639" on="1"/>
        <pt x="-3" y="642" on="1"/>
        <pt x="-6" y="652" on="0"/>
        <pt x="-1" y="668" on="0"/>
        <pt x="6" y="684" on="0"/>
        <pt x="9" y="699" on="0"/>
        <pt x="4" y="708" on="1"/>
        <pt x="6" y="725" on="0"/>
        <pt x="22" y="752" on="0"/>
        <pt x="31" y="768" on="1"/>
        <pt x="39" y="781" on="0"/>
        <pt x="49" y="806" on="0"/>
        <pt x="47" y="821" on="1"/>
        <pt x="72" y="846" on="0"/>
        <pt x="131" y="915" on="0"/>
        <pt x="197" y="966" on="0"/>
        <pt x="272" y="983" on="0"/>
        <pt x="315" y="957" on="1"/>
        <pt x="328" y="967" on="0"/>
        <pt x="337" y="953" on="0"/>
        <pt x="339" y="944" on="1"/>
        <pt x="340" y="940" on="0"/>
        <pt x="343" y="936" on="0"/>
        <pt x="348" y="937" on="1"/>
        <pt x="371" y="922" on="0"/>
        <pt x="390" y="885" on="0"/>
        <pt x="401" y="846" on="0"/>
        <pt x="413" y="808" on="0"/>
        <pt x="429" y="793" on="1"/>
        <pt x="431" y="745" on="0"/>
        <pt x="433" y="653" on="0"/>
        <pt x="442" y="606" on="1"/>
        <pt x="433" y="549" on="0"/>
        <pt x="417" y="439" on="0"/>
        <pt x="413" y="382" on="1"/>
        <pt x="423" y="370" on="0"/>
        <pt x="435" y="334" on="0"/>
        <pt x="435" y="317" on="1"/>
        <pt x="426" y="301" on="1"/>
        <pt x="428" y="294" on="0"/>
        <pt x="415" y="290" on="0"/>
        <pt x="414" y="299" on="1"/>
        <pt x="413" y="301" on="1"/>
        <pt x="413" y="305" on="0"/>
        <pt x="408" y="305" on="1"/>
        <pt x="400" y="304" on="0"/>
        <pt x="392" y="294" on="0"/>
        <pt x="388" y="279" on="0"/>
        <pt x="385" y="264" on="0"/>
        <pt x="383" y="259" on="1"/>
        <pt x="378" y="248" on="0"/>
        <pt x="384" y="234" on="0"/>
        <pt x="387" y="223" on="1"/>
        <pt x="407" y="225" on="0"/>
        <pt x="452" y="217" on="0"/>
        <pt x="469" y="207" on="1"/>
        <pt x="489" y="226" on="1"/>
        <pt x="490" y="224" on="0"/>
        <pt x="495" y="217" on="0"/>
        <pt x="497" y="215" on="1"/>
        <pt x="498" y="213" on="0"/>
        <pt x="501" y="213" on="0"/>
      </contour>
      <contour>
        <pt x="371" y="682" on="1"/>
        <pt x="366" y="709" on="0"/>
        <pt x="352" y="764" on="0"/>
        <pt x="350" y="795" on="1"/>
        <pt x="297" y="899" on="1"/>
        <pt x="280" y="894" on="0"/>
        <pt x="245" y="899" on="0"/>
        <pt x="231" y="894" on="1"/>
        <pt x="225" y="888" on="0"/>
        <pt x="213" y="889" on="0"/>
        <pt x="200" y="890" on="0"/>
        <pt x="187" y="884" on="0"/>
        <pt x="181" y="870" on="1"/>
        <pt x="176" y="860" on="0"/>
        <pt x="171" y="839" on="0"/>
        <pt x="164" y="829" on="1"/>
        <pt x="150" y="822" on="0"/>
        <pt x="134" y="804" on="0"/>
        <pt x="127" y="782" on="0"/>
        <pt x="126" y="754" on="0"/>
        <pt x="126" y="737" on="1"/>
        <pt x="114" y="740" on="0"/>
        <pt x="107" y="736" on="0"/>
        <pt x="102" y="726" on="1"/>
        <pt x="99" y="719" on="0"/>
        <pt x="88" y="707" on="0"/>
        <pt x="77" y="711" on="1"/>
        <pt x="72" y="700" on="0"/>
        <pt x="62" y="677" on="0"/>
        <pt x="60" y="666" on="1"/>
        <pt x="58" y="653" on="0"/>
        <pt x="66" y="632" on="0"/>
        <pt x="83" y="622" on="1"/>
        <pt x="76" y="611" on="0"/>
        <pt x="77" y="599" on="0"/>
        <pt x="79" y="588" on="1"/>
        <pt x="80" y="581" on="0"/>
        <pt x="79" y="565" on="0"/>
        <pt x="71" y="558" on="1"/>
        <pt x="75" y="554" on="0"/>
        <pt x="87" y="553" on="1"/>
        <pt x="102" y="514" on="0"/>
        <pt x="159" y="471" on="0"/>
        <pt x="227" y="442" on="0"/>
        <pt x="300" y="419" on="0"/>
        <pt x="331" y="401" on="1"/>
        <pt x="335" y="409" on="0"/>
        <pt x="344" y="423" on="0"/>
        <pt x="351" y="437" on="0"/>
        <pt x="351" y="453" on="0"/>
        <pt x="346" y="463" on="1"/>
        <pt x="358" y="471" on="0"/>
        <pt x="367" y="488" on="0"/>
        <pt x="367" y="508" on="0"/>
        <pt x="361" y="529" on="0"/>
        <pt x="360" y="540" on="1"/>
        <pt x="357" y="554" on="0"/>
        <pt x="362" y="571" on="1"/>
        <pt x="375" y="602" on="0"/>
        <pt x="376" y="656" on="0"/>
      </contour>
      <contour>
        <pt x="272" y="142" on="1"/>
        <pt x="259" y="145" on="0"/>
        <pt x="234" y="136" on="0"/>
        <pt x="225" y="126" on="1"/>
        <pt x="227" y="124" on="0"/>
        <pt x="233" y="118" on="0"/>
        <pt x="238" y="110" on="1"/>
        <pt x="228" y="109" on="0"/>
        <pt x="206" y="108" on="0"/>
        <pt x="197" y="104" on="1"/>
        <pt x="189" y="101" on="0"/>
        <pt x="180" y="91" on="0"/>
        <pt x="178" y="78" on="1"/>
        <pt x="159" y="77" on="0"/>
        <pt x="139" y="57" on="0"/>
        <pt x="125" y="33" on="0"/>
        <pt x="110" y="12" on="0"/>
        <pt x="95" y="10" on="1"/>
        <pt x="89" y="-10" on="0"/>
        <pt x="65" y="-41" on="0"/>
        <pt x="39" y="-70" on="0"/>
        <pt x="20" y="-103" on="0"/>
        <pt x="20" y="-126" on="1"/>
        <pt x="18" y="-128" on="0"/>
        <pt x="23" y="-129" on="1"/>
        <pt x="32" y="-133" on="0"/>
        <pt x="32" y="-143" on="1"/>
        <pt x="21" y="-150" on="0"/>
        <pt x="5" y="-161" on="0"/>
        <pt x="-3" y="-166" on="1"/>
        <pt x="-9" y="-170" on="0"/>
        <pt x="-9" y="-175" on="0"/>
        <pt x="-6" y="-180" on="1"/>
        <pt x="-4" y="-182" on="0"/>
        <pt x="3" y="-193" on="1"/>
        <pt x="-22" y="-209" on="1"/>
        <pt x="-2" y="-249" on="1"/>
        <pt x="-6" y="-251" on="0"/>
        <pt x="-12" y="-256" on="0"/>
        <pt x="-16" y="-258" on="1"/>
        <pt x="-18" y="-260" on="0"/>
        <pt x="-25" y="-262" on="1"/>
        <pt x="-23" y="-289" on="0"/>
        <pt x="-38" y="-341" on="0"/>
        <pt x="-35" y="-368" on="1"/>
        <pt x="3" y="-366" on="0"/>
        <pt x="64" y="-320" on="0"/>
        <pt x="90" y="-292" on="1"/>
        <pt x="91" y="-281" on="0"/>
        <pt x="100" y="-264" on="0"/>
        <pt x="111" y="-259" on="1"/>
        <pt x="117" y="-232" on="0"/>
        <pt x="147" y="-181" on="0"/>
        <pt x="174" y="-168" on="1"/>
        <pt x="171" y="-162" on="0"/>
        <pt x="175" y="-150" on="0"/>
        <pt x="179" y="-144" on="1"/>
        <pt x="182" y="-138" on="0"/>
        <pt x="183" y="-130" on="0"/>
        <pt x="177" y="-123" on="1"/>
        <pt x="181" y="-115" on="0"/>
        <pt x="189" y="-108" on="0"/>
        <pt x="195" y="-100" on="1"/>
        <pt x="198" y="-96" on="0"/>
        <pt x="198" y="-89" on="0"/>
        <pt x="190" y="-82" on="1"/>
        <pt x="201" y="-75" on="0"/>
        <pt x="204" y="-63" on="0"/>
        <pt x="206" y="-51" on="1"/>
        <pt x="208" y="-43" on="0"/>
        <pt x="215" y="-26" on="0"/>
        <pt x="226" y="-23" on="1"/>
        <pt x="228" y="-13" on="0"/>
        <pt x="230" y="10" on="0"/>
        <pt x="235" y="31" on="0"/>
        <pt x="245" y="49" on="0"/>
        <pt x="255" y="55" on="1"/>
        <pt x="256" y="61" on="0"/>
        <pt x="258" y="67" on="0"/>
        <pt x="258" y="72" on="0"/>
        <pt x="253" y="77" on="0"/>
        <pt x="246" y="81" on="1"/>
        <pt x="268" y="89" on="0"/>
        <pt x="272" y="108" on="0"/>
        <pt x="271" y="128" on="1"/>
        <pt x="271" y="131" on="0"/>
        <pt x="271" y="138" on="0"/>
      </contour>
    </TTGlyph>
    <TTGlyph name="K" xMin="-107" yMin="-86" xMax="703" yMax="1022">
      <contour>
        <pt x="702" y="947" on="1"/>
        <pt x="687" y="940" on="0"/>
        <pt x="682" y="919" on="0"/>
        <pt x="684" y="898" on="0"/>
        <pt x="682" y="882" on="0"/>
        <pt x="672" y="879" on="1"/>
        <pt x="664" y="877" on="1"/>
        <pt x="666" y="851" on="0"/>
        <pt x="661" y="813" on="0"/>
        <pt x="657" y="787" on="1"/>
        <pt x="636" y="779" on="0"/>
        <pt x="620" y="744" on="0"/>
        <pt x="609" y="708" on="0"/>
        <pt x="591" y="682" on="0"/>
        <pt x="569" y="684" on="1"/>
        <pt x="552" y="685" on="1"/>
        <pt x="561" y="671" on="1"/>
        <pt x="572" y="654" on="0"/>
        <pt x="563" y="637" on="0"/>
        <pt x="540" y="622" on="0"/>
        <pt x="515" y="604" on="0"/>
        <pt x="509" y="587" on="1"/>
        <pt x="490" y="587" on="0"/>
        <pt x="464" y="571" on="0"/>
        <pt x="445" y="547" on="0"/>
        <pt x="430" y="519" on="0"/>
        <pt x="411" y="498" on="0"/>
        <pt x="386" y="488" on="0"/>
        <pt x="368" y="493" on="1"/>
        <pt x="357" y="496" on="1"/>
        <pt x="356" y="491" on="0"/>
        <pt x="355" y="483" on="0"/>
        <pt x="355" y="478" on="1"/>
        <pt x="354" y="470" on="0"/>
        <pt x="365" y="445" on="0"/>
        <pt x="379" y="415" on="0"/>
        <pt x="391" y="382" on="0"/>
        <pt x="391" y="364" on="1"/>
        <pt x="404" y="337" on="0"/>
        <pt x="421" y="274" on="0"/>
        <pt x="431" y="209" on="0"/>
        <pt x="438" y="143" on="0"/>
        <pt x="443" y="113" on="1"/>
        <pt x="427" y="103" on="0"/>
        <pt x="418" y="68" on="0"/>
        <pt x="417" y="32" on="0"/>
        <pt x="416" y="0" on="0"/>
        <pt x="407" y="-7" on="1"/>
        <pt x="400" y="-12" on="0"/>
        <pt x="374" y="-8" on="0"/>
        <pt x="367" y="-6" on="1"/>
        <pt x="347" y="0" on="0"/>
        <pt x="340" y="28" on="0"/>
        <pt x="346" y="61" on="0"/>
        <pt x="357" y="96" on="0"/>
        <pt x="356" y="110" on="1"/>
        <pt x="355" y="119" on="0"/>
        <pt x="347" y="137" on="0"/>
        <pt x="340" y="155" on="0"/>
        <pt x="340" y="173" on="0"/>
        <pt x="346" y="182" on="1"/>
        <pt x="348" y="185" on="1"/>
        <pt x="319" y="369" on="1"/>
        <pt x="309" y="366" on="1"/>
        <pt x="299" y="363" on="0"/>
        <pt x="293" y="373" on="0"/>
        <pt x="285" y="388" on="0"/>
        <pt x="271" y="401" on="0"/>
        <pt x="254" y="401" on="1"/>
        <pt x="245" y="386" on="0"/>
        <pt x="215" y="374" on="0"/>
        <pt x="188" y="362" on="0"/>
        <pt x="172" y="341" on="0"/>
        <pt x="177" y="318" on="1"/>
        <pt x="152" y="310" on="0"/>
        <pt x="135" y="278" on="0"/>
        <pt x="127" y="240" on="0"/>
        <pt x="117" y="205" on="0"/>
        <pt x="100" y="194" on="1"/>
        <pt x="95" y="172" on="0"/>
        <pt x="76" y="142" on="0"/>
        <pt x="57" y="115" on="0"/>
        <pt x="41" y="88" on="0"/>
        <pt x="38" y="70" on="1"/>
        <pt x="27" y="61" on="0"/>
        <pt x="2" y="43" on="0"/>
        <pt x="-19" y="22" on="0"/>
        <pt x="-34" y="-2" on="0"/>
        <pt x="-34" y="-18" on="1"/>
        <pt x="-34" y="-23" on="0"/>
        <pt x="-34" y="-30" on="0"/>
        <pt x="-29" y="-33" on="1"/>
        <pt x="-45" y="-48" on="0"/>
        <pt x="-75" y="-84" on="0"/>
        <pt x="-98" y="-86" on="1"/>
        <pt x="-107" y="-57" on="0"/>
        <pt x="-91" y="-8" on="0"/>
        <pt x="-64" y="38" on="0"/>
        <pt x="-40" y="84" on="0"/>
        <pt x="-41" y="109" on="1"/>
        <pt x="-42" y="112" on="0"/>
        <pt x="-42" y="119" on="0"/>
        <pt x="-42" y="122" on="1"/>
        <pt x="-42" y="130" on="0"/>
        <pt x="-31" y="139" on="0"/>
        <pt x="-16" y="149" on="0"/>
        <pt x="-1" y="163" on="0"/>
        <pt x="2" y="176" on="1"/>
        <pt x="6" y="194" on="0"/>
        <pt x="29" y="232" on="0"/>
        <pt x="54" y="271" on="0"/>
        <pt x="78" y="310" on="0"/>
        <pt x="83" y="331" on="1"/>
        <pt x="81" y="333" on="0"/>
        <pt x="81" y="335" on="1"/>
        <pt x="69" y="353" on="0"/>
        <pt x="40" y="354" on="0"/>
        <pt x="23" y="347" on="1"/>
        <pt x="10" y="342" on="0"/>
        <pt x="-7" y="341" on="0"/>
        <pt x="-17" y="353" on="1"/>
        <pt x="-24" y="362" on="1"/>
        <pt x="-26" y="360" on="0"/>
        <pt x="-36" y="349" on="0"/>
        <pt x="-38" y="349" on="1"/>
        <pt x="-40" y="349" on="0"/>
        <pt x="-49" y="356" on="0"/>
        <pt x="-61" y="365" on="0"/>
        <pt x="-73" y="373" on="0"/>
        <pt x="-79" y="374" on="1"/>
        <pt x="-82" y="384" on="0"/>
        <pt x="-96" y="414" on="0"/>
        <pt x="-96" y="422" on="1"/>
        <pt x="-96" y="427" on="0"/>
        <pt x="-91" y="435" on="0"/>
        <pt x="-88" y="439" on="1"/>
        <pt x="-74" y="458" on="0"/>
        <pt x="-41" y="487" on="0"/>
        <pt x="-5" y="510" on="0"/>
        <pt x="35" y="529" on="0"/>
        <pt x="57" y="539" on="1"/>
        <pt x="62" y="541" on="0"/>
        <pt x="74" y="547" on="0"/>
        <pt x="81" y="549" on="1"/>
        <pt x="88" y="544" on="0"/>
        <pt x="105" y="541" on="0"/>
        <pt x="122" y="541" on="0"/>
        <pt x="140" y="542" on="0"/>
        <pt x="148" y="541" on="1"/>
        <pt x="161" y="563" on="0"/>
        <pt x="179" y="610" on="0"/>
        <pt x="193" y="658" on="0"/>
        <pt x="205" y="706" on="0"/>
        <pt x="213" y="730" on="1"/>
        <pt x="234" y="737" on="0"/>
        <pt x="243" y="765" on="0"/>
        <pt x="237" y="795" on="0"/>
        <pt x="229" y="821" on="0"/>
        <pt x="234" y="827" on="1"/>
        <pt x="236" y="830" on="0"/>
        <pt x="251" y="834" on="0"/>
        <pt x="256" y="835" on="1"/>
        <pt x="259" y="843" on="0"/>
        <pt x="268" y="859" on="0"/>
        <pt x="273" y="867" on="1"/>
        <pt x="281" y="883" on="0"/>
        <pt x="296" y="906" on="0"/>
        <pt x="314" y="911" on="1"/>
        <pt x="316" y="901" on="0"/>
        <pt x="327" y="878" on="0"/>
        <pt x="338" y="855" on="0"/>
        <pt x="347" y="833" on="0"/>
        <pt x="347" y="823" on="1"/>
        <pt x="347" y="810" on="0"/>
        <pt x="334" y="797" on="0"/>
        <pt x="324" y="790" on="1"/>
        <pt x="316" y="783" on="1"/>
        <pt x="323" y="774" on="0"/>
        <pt x="331" y="752" on="0"/>
        <pt x="316" y="744" on="1"/>
        <pt x="315" y="744" on="0"/>
        <pt x="314" y="743" on="0"/>
        <pt x="313" y="743" on="1"/>
        <pt x="307" y="724" on="0"/>
        <pt x="303" y="689" on="0"/>
        <pt x="297" y="657" on="0"/>
        <pt x="281" y="628" on="0"/>
        <pt x="263" y="614" on="1"/>
        <pt x="270" y="607" on="1"/>
        <pt x="272" y="605" on="0"/>
        <pt x="271" y="593" on="0"/>
        <pt x="269" y="580" on="0"/>
        <pt x="267" y="566" on="0"/>
        <pt x="267" y="563" on="1"/>
        <pt x="267" y="559" on="0"/>
        <pt x="259" y="555" on="0"/>
        <pt x="252" y="551" on="0"/>
        <pt x="248" y="548" on="0"/>
        <pt x="252" y="545" on="1"/>
        <pt x="245" y="526" on="1"/>
        <pt x="257" y="526" on="0"/>
        <pt x="286" y="529" on="0"/>
        <pt x="315" y="535" on="0"/>
        <pt x="340" y="547" on="0"/>
        <pt x="349" y="557" on="1"/>
        <pt x="358" y="568" on="0"/>
        <pt x="375" y="582" on="0"/>
        <pt x="392" y="577" on="1"/>
        <pt x="425" y="587" on="0"/>
        <pt x="463" y="636" on="0"/>
        <pt x="496" y="691" on="0"/>
        <pt x="535" y="743" on="0"/>
        <pt x="570" y="758" on="1"/>
        <pt x="566" y="775" on="0"/>
        <pt x="579" y="806" on="0"/>
        <pt x="598" y="837" on="0"/>
        <pt x="615" y="869" on="0"/>
        <pt x="615" y="887" on="1"/>
        <pt x="628" y="887" on="0"/>
        <pt x="638" y="901" on="0"/>
        <pt x="642" y="919" on="0"/>
        <pt x="646" y="937" on="0"/>
        <pt x="653" y="941" on="1"/>
        <pt x="664" y="948" on="1"/>
        <pt x="654" y="956" on="0"/>
        <pt x="649" y="968" on="0"/>
        <pt x="649" y="980" on="0"/>
        <pt x="650" y="994" on="0"/>
        <pt x="646" y="1004" on="1"/>
        <pt x="649" y="1005" on="0"/>
        <pt x="661" y="1011" on="0"/>
        <pt x="673" y="1017" on="0"/>
        <pt x="683" y="1022" on="0"/>
        <pt x="685" y="1022" on="1"/>
        <pt x="692" y="1002" on="0"/>
        <pt x="703" y="968" on="0"/>
      </contour>
      <contour>
        <pt x="137" y="473" on="1"/>
        <pt x="126" y="473" on="0"/>
        <pt x="108" y="474" on="0"/>
        <pt x="103" y="485" on="1"/>
        <pt x="101" y="484" on="0"/>
        <pt x="96" y="484" on="0"/>
        <pt x="94" y="483" on="1"/>
        <pt x="81" y="480" on="0"/>
        <pt x="46" y="469" on="0"/>
        <pt x="13" y="451" on="0"/>
        <pt x="-13" y="429" on="0"/>
        <pt x="-16" y="416" on="1"/>
        <pt x="-18" y="408" on="1"/>
        <pt x="8" y="400" on="0"/>
        <pt x="52" y="400" on="0"/>
        <pt x="91" y="414" on="0"/>
        <pt x="127" y="441" on="0"/>
        <pt x="145" y="459" on="1"/>
      </contour>
    </TTGlyph>
</ttFont>
